<svg version="1.2" xmlns="http://www.w3.org/2000/svg" viewBox="0 0 1000 510" width="1000" height="510">
	<title>3887761_11837-ai</title>
	<style>
		.s0 { fill: #606c78 } 
		.s1 { fill: #bd4800 } 
		.s2 { fill: #0f0e0e } 
		.s3 { fill: #e05600 } 
		.s4 { fill: #1f1c1d } 
		.s5 { fill: #34404a } 
		.s6 { fill: #4f5f6b } 
		.s7 { fill: #195ab0 } 
		.s8 { fill: #262626 } 
		.s9 { fill: #343539 } 
		.s10 { fill: #1c2226 } 
		.s11 { fill: #c9c7c7 } 
		.s12 { fill: #d6d4d4 } 
		.s13 { fill: #d1d0d1 } 
		.s14 { fill: #82807f } 
		.s15 { fill: #cdcbcc } 
		.s16 { fill: #e5e4e3 } 
		.s17 { fill: #a09d9c } 
		.s18 { fill: #303a43 } 
		.s19 { fill: #293239 } 
		.s20 { fill: #434a51 } 
		.s21 { fill: #1e252a } 
		.s22 { fill: #323335 } 
		.s23 { fill: #333e47 } 
		.s24 { fill: #21282e } 
		.s25 { fill: #283037 } 
		.s26 { fill: #3d4348 } 
		.s27 { fill: #232a31 } 
		.s28 { fill: #2f3941 } 
		.s29 { fill: #2a333a } 
		.s30 { fill: #353f48 } 
		.s31 { fill: #424c55 } 
		.s32 { fill: #48525a } 
		.s33 { fill: #0f4283 } 
		.s34 { fill: #b4b7be } 
		.s35 { fill: #041b38 } 
		.s36 { fill: #072c5e } 
		.s37 { fill: #8c9196 } 
		.s38 { fill: #a3cbff } 
		.s39 { fill: #b4edfa } 
		.s40 { fill: #121314 } 
		.s41 { fill: #484d4b } 
		.s42 { fill: #4d4d4d } 
		.s43 { fill: #cacfd1 } 
		.s44 { fill: #d7dcde } 
		.s45 { fill: #f0c17d } 
		.s46 { fill: #ffdba7 } 
		.s47 { fill: #632404 } 
		.s48 { fill: #fd6202 } 
		.s49 { fill: #eff1f2 } 
		.s50 { fill: #8a8c8b } 
		.s51 { fill: #a1a3a2 } 
		.s52 { fill: #331202 } 
		.s53 { fill: #878783 } 
		.s54 { fill: #787878 } 
		.s55 { fill: #c2c2c0 } 
		.s56 { fill: #043661 } 
		.s57 { fill: #032747 } 
		.s58 { fill: #032d52 } 
		.s59 { fill: #f5c800 } 
		.s60 { fill: #a30000 } 
		.s61 { fill: #d60000 } 
		.s62 { fill: #365a78 } 
	</style>
	<g id="icons">
		<path id="&lt;Path&gt;" class="s0" d="m684.1 369.1l90.8 53.2 79.6-45.6-90.8-53.2z"/>
		<path id="&lt;Path&gt;" class="s0" d="m71.9 341.9c-8 45.5 17.6 73.9 49.5 96.1 39.6 27.6 98.7 59.5 147.9 58.4 30.6 16.7 79.4 2.1 100.5-43.9 72-39.9 145.6-75.5 215.4-119.1 22.1 11.5 59.4-6.9 70.9-42.9 80.6-46.9 28.8-139-30.7-175.7l-227.5 31.3z"/>
		<path id="&lt;Path&gt;" class="s0" d="m897 374.9c21.5-3.6 36 14.8 35.9 31.5-0.1 14.8-13.6 25.6-26 35.1-16.5 12.6-38.2 20.5-58.5 15-11.7-3.2-23.9-14.5-21.2-29.9 2.5-14.1 55.8-49.3 69.8-51.7z"/>
		<g id="&lt;Group&gt;">
			<g id="&lt;Group&gt;">
				<path id="&lt;Path&gt;" class="s1" d="m643 231c-1.6 5.4-2.9 6.8-5.3 9.2-1.8 1.8-11.4 7.9-12.1 9.7-0.5 1.3-0.5 3.6 1.6 4.9 2.2 1.4 6.5 1.4 9.5 0.9 6.3-0.9 11.1-4.6 16.1-8.3 0.5 0.6 2.7-0.2 4.8-1.4 1.7-1 2.6-1.9 2.8-3.5 0.2-1.1-0.1-3.5-0.2-4.7-0.4-3.2-1.8-5.8-3.2-9l-6.2-1.4z"/>
				<path id="&lt;Path&gt;" class="s2" d="m625.4 250.9c-0.2 1.3 0.2 2.9 1.8 3.9 2.2 1.4 6.6 1.4 9.5 0.9 6.3-0.9 11.1-4.6 16.1-8.3 0.5 0.6 2.7-0.2 4.8-1.4 1.7-1 2.6-1.9 2.8-3.5 0.1-0.6 0.1-1.5 0-2.4-0.8 2.3-5.8 4.7-8.2 4.8-4.9 3.7-9.8 7.1-16.1 8.1-3 0.4-7.3 0.5-9.5-0.9q-0.8-0.6-1.2-1.2z"/>
			</g>
			<g id="&lt;Group&gt;">
				<path id="&lt;Path&gt;" class="s3" d="m658.4 240c-1.6 5.4-2.9 6.8-5.3 9.2-1.7 1.9-11.3 8-12 9.7-0.6 1.4-0.6 3.6 1.5 5 2.3 1.4 6.6 1.4 9.5 0.9 6.3-0.9 11.2-4.6 16.1-8.3 0.5 0.5 2.8-0.2 4.9-1.5 1.7-1 2.5-1.8 2.7-3.4 0.2-1.1 0-3.5-0.2-4.7-0.4-3.3-1.8-5.8-3.2-9.1l-6.2-1.4z"/>
				<path id="&lt;Path&gt;" class="s4" d="m640.8 260c-0.2 1.3 0.2 2.8 1.8 3.9 2.3 1.4 6.6 1.4 9.5 0.9 6.3-0.9 11.2-4.6 16.1-8.3 0.5 0.5 2.8-0.2 4.9-1.5 1.7-1 2.5-1.8 2.7-3.4 0.1-0.6 0.1-1.5 0-2.5-0.8 2.4-5.8 4.8-8.2 4.9-4.9 3.7-9.8 7.1-16.1 8.1-2.9 0.4-7.2 0.5-9.5-1q-0.8-0.5-1.2-1.1z"/>
			</g>
			<path id="&lt;Path&gt;" class="s5" d="m658.2 104.8c1.6 7.2 3.5 13.5 4 20.9 1.1 13.8-5.1 36.6-6 51.6l0.5 10.9c1.2 11.3 0.6 23.1 1.5 40.5q0.2 0.8 0.1 1.6c2.3 1.8 0.5 5.3-4.3 8-5 2.9-11.5 3.9-14.4 2.2-0.8-0.5-1.3-1.1-1.4-1.8-0.4-0.5-2.5-64.2-3.4-72.1-0.8-22.3-0.6-42.5-1.3-66.3z"/>
			<path id="&lt;Path&gt;" class="s6" d="m669.8 89.1c1.8 4.4 10 20.5 10.8 26 1.5 10.7-1.4 16.5-3.1 26.4-2.3 12.5-4.6 23.5-5.3 36.2l1.8 16.4c1.1 11.3-0.4 29.6 0.6 47 0.5 1.9-1.4 4.6-5.2 6.8-5 2.9-11.5 3.8-14.5 2.1-0.8-0.5-1.3-1.2-1.4-1.9v-0.1l-4.2-74.8c-0.9-22.4-1.6-40.1-2.3-63.9z"/>
		</g>
		<g id="&lt;Group&gt;">
			<path id="&lt;Path&gt;" class="s7" d="m179 189c-0.4 0.4-1.2 0.7-1.7 1-40.7 24.3-65.4 52.3-78.2 72.7-7.9 10.5-13.7 21.7-6.6 35.4 8.7 16.6 39.4 30.9 54 37.9 26.2 12.6 73.4 42.3 100.4 21.2l51-39.8 14.2-43z"/>
			<path id="&lt;Path&gt;" class="s8" d="m653.4 263.5c20.7-79.5-21.3-58.9-107.7-105.9l-18.9 32.1z"/>
			<g id="&lt;Group&gt;">
				<path id="&lt;Path&gt;" class="s9" d="m650.9 260.3l-19.5-11.3-1-0.1 19.5 11.3z"/>
				<path id="&lt;Path&gt;" class="s10" d="m578 285.6c12.4 7.2 25.7-4.4 35.3-20 9.7-15.7 15.5-35.6 6.4-44.7q-0.2-0.2-0.5-0.5c-0.7-0.6-1.5-1.3-2.3-1.7l20.3 10.4c17.2 9.8 4.7 43.7-4.6 55.8-9.9 12.7-25.4 19.9-35.7 14z"/>
				<g id="&lt;Group&gt;">
					<path id="&lt;Path&gt;" class="s11" d="m611.3 282.1c0.2-0.1 0.4-0.2 0.6-0.3 0.3-0.1 0.5-0.3 0.8-0.5 0 0 0.1-0.1 0.1-0.1q0.4-0.3 0.8-0.7c0.1 0 0.1 0 0.2-0.1 0.3-0.2 0.6-0.5 0.9-0.8 0.1-0.1 0.2-0.2 0.3-0.3q0.4-0.3 0.9-0.8 0.1-0.1 0.2-0.3c0.4-0.3 0.8-0.7 1.2-1.1q0.1-0.1 0.1-0.2c0.4-0.4 0.7-0.8 1.1-1.2q0.1-0.1 0.2-0.3c0.4-0.4 0.8-0.9 1.2-1.4q0.1-0.1 0.2-0.3 0.6-0.7 1.1-1.5 0.7-0.9 1.3-1.9 0.7-1 1.3-1.9 0.1-0.3 0.3-0.6 0.1-0.2 0.3-0.4 0.4-0.9 0.9-1.8 0-0.1 0.2-0.3c0.3-0.6 0.6-1.2 0.8-1.8 0.1-0.1 0.1-0.1 0.1-0.2q0.4-0.9 0.7-1.7c0 0 0.1-0.1 0.1-0.1q0.2-0.8 0.4-1.4 0 0 0 0 0.2-0.7 0.2-1 0-0.4-0.1-0.5l5.6 3.2c0 0 0 0 0 0.1 0 0 0 0 0 0q0 0 0 0 0 0 0 0.1 0 0 0 0 0.1 0 0.1 0 0 0 0 0.1 0 0 0 0 0 0 0 0.1 0 0 0 0 0 0 0 0.1 0 0 0 0 0 0 0 0 0 0.1 0 0.1 0 0-0.1 0.1 0 0 0 0.1 0.1 0.1 0 0.1 0 0.1 0 0.2c0 0.1 0 0.1-0.1 0.2 0 0.1 0 0.1 0 0.2q0 0 0 0 0 0 0 0.1-0.1 0.1-0.1 0.3-0.1 0.2-0.2 0.4c0 0.1-0.1 0.3-0.1 0.4 0 0.1 0 0.2-0.1 0.2 0 0.1 0 0.1 0 0.1-0.1 0.1-0.1 0.2-0.1 0.3q-0.1 0.3-0.3 0.6-0.1 0.4-0.3 0.7c0 0.1 0 0.1 0 0.2-0.1 0-0.1 0-0.1 0.1q-0.1 0.3-0.3 0.6-0.2 0.4-0.4 0.9c-0.1 0.1-0.1 0.2-0.2 0.3q-0.1 0.2-0.1 0.4-0.2 0.2-0.3 0.5c-0.3 0.4-0.5 0.8-0.7 1.2q-0.1 0.2-0.2 0.4c-0.1 0-0.1 0.1-0.1 0.1-0.1 0.2-0.2 0.3-0.3 0.5q-0.6 1-1.2 1.9c0 0.1-0.1 0.2-0.2 0.3-0.3 0.5-0.6 1-1 1.4 0 0.1-0.1 0.2-0.1 0.3q-0.3 0.4-0.6 0.8c-0.2 0.2-0.4 0.4-0.6 0.7q-0.1 0.1-0.2 0.3 0 0-0.1 0.1-0.4 0.5-0.8 1c-0.1 0.1-0.1 0.2-0.2 0.2q-0.1 0.2-0.3 0.4-0.2 0.2-0.4 0.4-0.3 0.4-0.6 0.7c-0.1 0.1-0.1 0.1-0.2 0.2q0 0-0.1 0.1c-0.3 0.3-0.6 0.6-0.9 0.9q0 0.1-0.1 0.2c-0.1 0.1-0.2 0.2-0.3 0.3q-0.2 0.2-0.4 0.4-0.3 0.2-0.4 0.4c-0.1 0.1-0.2 0.1-0.3 0.2-0.1 0.1-0.1 0.1-0.2 0.2q-0.3 0.3-0.7 0.6 0 0-0.1 0.1-0.1 0-0.1 0.1-0.2 0.1-0.4 0.3-0.2 0.2-0.4 0.3c0 0 0 0.1-0.1 0.1 0 0 0 0 0 0q-0.1 0.1-0.3 0.2c-0.1 0-0.2 0.1-0.3 0.2q0 0-0.2 0.1 0 0 0 0c-0.1 0-0.1 0.1-0.2 0.1q0 0-0.1 0.1 0 0-0.1 0-0.1 0.1-0.1 0.1 0 0-0.1 0c0 0 0 0-0.1 0q0 0 0 0c0 0 0 0 0 0-0.1 0-0.1 0-0.1 0.1 0 0 0 0 0 0 0 0-0.1 0-0.1 0 0 0-0.1 0-0.1 0 0 0 0 0 0 0 0 0 0 0 0-0.1q-0.1 0-0.1 0l-5.5-3.2c0 0.1 0.2 0.1 0.4 0z"/>
					<path id="&lt;Path&gt;" class="s12" d="m621.7 252q0.1 0.1 0.2 0.1 0.6 0.1 1.3 0.2c0.1 0 0.1 0 0.2 0q0.7 0 1.5-0.1c0.1 0 0.2 0 0.2 0q0.9-0.1 1.9-0.3l2.4-0.5 5.6 3.3-2.4 0.4q-0.4 0.1-0.7 0.2c-0.3 0-0.6 0.1-0.9 0.1-0.1 0-0.2 0-0.3 0.1-0.1 0-0.1 0-0.2 0q-0.2 0-0.4 0-0.4 0-0.8 0-0.2 0-0.3 0c-0.1 0-0.2 0-0.2 0q-0.2 0-0.2 0-0.5 0-0.8-0.1c-0.1 0-0.2-0.1-0.3-0.1q-0.1 0-0.2 0-0.2-0.1-0.3-0.1-0.5-0.2-0.9-0.4l-5.5-3.2c0.3 0.2 0.7 0.3 1.1 0.4z"/>
					<path id="&lt;Path&gt;" class="s13" d="m607.9 268.5q0.2 0 0.5-0.2c0.2-0.1 0.3-0.2 0.4-0.4 0.2-0.1 0.3-0.3 0.4-0.5 0.1-0.2 0.2-0.4 0.3-0.6q0.1-0.3 0.1-0.5 0-0.3-0.1-0.5 0 0 0 0-0.1-0.2-0.2-0.3l5.5 3.2q0.2 0.1 0.2 0.2 0.1 0 0 0.1c0 0 0.1 0 0.1 0q0 0 0 0 0 0 0 0 0 0.1 0 0.1 0 0 0 0.1 0 0 0 0 0 0 0.1 0.1 0 0 0 0 0 0.1 0 0.1 0 0 0 0.1 0 0 0 0 0 0 0 0.1 0 0 0 0 0 0 0 0.1-0.1 0-0.1 0 0 0 0 0.1 0 0 0 0 0 0.1 0 0.1 0 0 0 0 0 0.1 0 0.1c0 0-0.1 0-0.1 0q0 0 0 0.1 0 0 0 0 0 0 0 0 0 0.1 0 0.1 0 0 0 0.1 0 0 0 0-0.1 0-0.1 0.1c0 0 0 0 0 0 0 0.1-0.1 0.1-0.1 0.1q0 0.1 0 0.1 0 0 0 0-0.1 0.1-0.2 0.2 0 0.1 0 0.1c0 0.1-0.1 0.1-0.1 0.1q0 0.1 0 0.1c0 0 0 0-0.1 0q0 0 0 0.1 0 0 0 0c0 0 0 0 0 0 0 0-0.1 0-0.1 0 0 0.1 0 0.1 0 0.1 0 0 0 0-0.1 0q0 0.1 0 0.1 0 0-0.1 0c0 0 0 0 0 0 0 0.1 0 0.1 0 0.1 0 0-0.1 0-0.1 0 0 0 0 0 0 0q0 0 0 0-0.1 0-0.1 0.1c0 0 0 0 0 0 0 0-0.1 0-0.1 0 0 0 0 0-0.1 0 0 0 0 0.1 0 0.1 0 0 0 0 0 0-0.1 0-0.1 0-0.1 0q0 0-0.1 0c0 0 0 0 0 0 0 0 0 0 0 0q0 0 0 0c-0.1 0-0.1 0-0.1 0 0 0-0.1 0-0.1 0 0 0 0 0 0 0 0 0-0.1 0-0.1 0q0 0-0.1-0.1l-5.6-3.2q0.2 0.1 0.4 0.1z"/>
					<path id="&lt;Path&gt;" class="s13" d="m615 256.3q0.2 0 0.4-0.2 0.3-0.1 0.5-0.3 0.2-0.3 0.4-0.6 0 0 0 0 0.1-0.3 0.2-0.6 0 0 0 0 0.1-0.3 0.1-0.5 0-0.3-0.1-0.5-0.1-0.2-0.2-0.3l5.6 3.2q0.1 0.1 0.1 0.2 0.1 0 0.1 0.1 0 0 0 0 0 0 0 0c0 0.1 0 0.1 0 0.1q0 0 0 0.1 0 0 0 0 0.1 0.1 0.1 0.1 0 0 0 0.1 0 0 0 0 0 0.1 0 0.1 0 0 0 0 0 0 0 0.1 0 0 0 0 0 0 0 0 0 0.1 0 0.1 0 0 0 0-0.1 0.1-0.1 0.1 0 0 0 0 0 0.1 0 0.1c0 0 0 0 0 0.1q0 0 0 0 0 0 0 0.1c0 0 0 0 0 0q0 0 0 0 0 0 0 0.1c0 0-0.1 0-0.1 0q0 0 0 0.1 0 0 0 0c0 0.1-0.1 0.1-0.1 0.1 0 0 0 0.1 0 0.1 0 0 0 0 0 0.1 0 0-0.1 0-0.1 0q0 0.1 0 0.1c0 0 0 0 0 0q-0.1 0.1-0.1 0.2 0 0-0.1 0.1 0 0 0 0c0 0.1-0.1 0.1-0.1 0.1q0 0 0 0.1-0.1 0-0.1 0 0 0 0 0 0 0 0 0 0 0 0 0.1c0 0-0.1 0-0.1 0 0 0 0 0 0 0.1q-0.1 0-0.1 0c0 0 0 0 0 0q0 0.1-0.1 0.1 0 0 0 0 0 0-0.1 0 0 0 0 0 0 0.1 0 0.1c0 0 0 0 0 0-0.1 0-0.1 0-0.1 0q0 0-0.1 0c0 0 0 0.1 0 0.1 0 0 0 0-0.1 0q0 0 0 0c0 0-0.1 0-0.1 0 0 0 0 0 0 0q0 0 0 0-0.1 0-0.1 0 0 0 0 0c0 0-0.1 0-0.1 0 0 0 0 0-0.1 0q0 0-0.1 0 0 0 0 0l-5.6-3.3q0.2 0.1 0.4 0.1z"/>
					<path id="&lt;Path&gt;" class="s14" d="m605.8 278.4q-0.2-1.3-0.5-2.4 0-0.1 0-0.1c-0.2-0.7-0.6-1.3-0.9-1.7 0-0.1-0.1-0.2-0.1-0.2-0.3-0.5-0.7-0.9-1.2-1.1l5.6 3.2q0.7 0.4 1.1 1.1c0.1 0.1 0.2 0.1 0.2 0.2q0.1 0.1 0.1 0.1 0.2 0.3 0.4 0.7 0.1 0.3 0.2 0.6 0.1 0.2 0.1 0.3c0 0.1 0.1 0.1 0.1 0.1q0 0.1 0 0.2 0.1 0.3 0.2 0.6 0.1 0.4 0.1 0.7 0.1 0.4 0.1 0.7 0 0.2 0 0.3 0.1 0 0.1 0.1c0 0.1 0 0.2 0 0.4 0 0.3 0.1 0.5 0.1 0.8 0 0.3 0 0.6 0 0.9q0 0.5 0 1 0 0 0 0v2.3 0.7l-5.6-3.3v-0.6-2.3q0-1.7-0.1-3.2 0 0 0-0.1z"/>
					<path id="&lt;Path&gt;" class="s14" d="m630.1 249.8q0 0 0-0.1 0.1-0.6 0.2-1.4 0 0 0 0 0.1-0.8 0.1-1.6 0-0.1 0-0.3 0-0.8 0-1.6 0-0.2-0.1-0.3c0-0.6 0-1.2-0.1-1.8q0-0.1 0-0.1-0.1-0.9-0.3-1.7c0-0.1 0-0.2-0.1-0.3q-0.1-0.9-0.4-1.8c-0.3-0.7-0.6-1.4-0.9-2.1q-0.1-0.3-0.3-0.5c-0.2-0.4-0.5-0.8-0.7-1.1q-0.4-0.7-0.9-1.2c-0.2-0.2-0.3-0.4-0.4-0.5-0.5-0.5-0.9-0.9-1.3-1.1l5.5 3.2c0.4 0.3 0.9 0.6 1.3 1.1 0.2 0.2 0.3 0.3 0.5 0.5q0.4 0.5 0.9 1.2c0 0.1 0.1 0.2 0.2 0.3 0.2 0.2 0.3 0.5 0.4 0.8q0.2 0.3 0.4 0.6 0 0.1 0.1 0.2 0.3 0.6 0.5 1.2c0.1 0.2 0.1 0.4 0.2 0.6q0.1 0.3 0.2 0.6 0.1 0.5 0.3 1 0 0.1 0 0.2c0 0.1 0 0.2 0.1 0.3q0 0.3 0.1 0.7 0.1 0.5 0.1 1.1 0 0 0 0 0 0 0 0 0.2 0.6 0.2 1.2 0 0.3 0 0.6 0.1 0.2 0 0.3 0 0.1 0 0.2c0 0.3 0.1 0.7 0.1 1q0 0.2 0 0.5 0 0.1-0.1 0.2 0 0.1 0 0.2 0 0.4 0 0.8c0 0.2 0 0.4 0 0.6q0 0 0 0c0 0.2-0.1 0.4-0.1 0.5 0 0.2 0 0.3-0.1 0.5 0 0.1 0 0.2 0 0.3 0 0.1 0 0.1 0 0.2q0 0 0 0c0 0-0.1 0.1-0.1 0.1 0 0.1 0 0.1 0 0.2 0 0.1 0 0.1 0 0.2q-0.1 0.1-0.1 0.1 0 0.1 0 0.2-0.1 0-0.1 0.1 0 0 0 0.1 0 0 0 0 0 0 0 0.1 0 0 0 0-0.1 0-0.1 0.1 0 0 0 0.1-0.1 0.1-0.1 0.2-0.1 0-0.1 0 0 0 0 0 0 0 0 0 0 0 0 0 0 0.1 0 0.1-0.1 0-0.1 0 0 0 0 0c0 0 0 0 0 0q0 0 0 0c0 0 0 0 0 0q0 0.1 0 0.1l-5.6-3.3q0.2-0.1 0.4-0.6 0.2-0.4 0.3-1z"/>
					<path id="&lt;Path&gt;" class="s12" d="m592.7 285.7q0.9 0.5 1.8 0.9c0.4 0.1 0.8 0.3 1.2 0.4q1.2 0.2 2.4 0.3 0.1 0 0.1 0 1.3 0 2.5-0.2 0 0 0.1 0c0.8-0.1 1.5-0.3 2.2-0.5 0 0 0 0 0.1-0.1q1-0.3 1.7-0.7c0.3-0.2 0.6-0.4 0.8-0.6q0 0 0 0 0.3-0.3 0.3-0.6l5.6 3.3q0 0 0 0 0 0 0 0 0 0 0 0 0 0 0 0 0 0.1 0 0.1 0 0 0 0 0 0 0 0 0 0 0 0c0 0-0.1 0-0.1 0q0 0 0 0.1 0 0 0 0 0 0 0 0 0 0 0 0 0 0 0 0 0 0.1 0 0.1-0.1 0-0.1 0 0 0.1 0 0.1c0 0 0 0 0 0q0 0 0 0-0.1 0.1-0.1 0.1 0 0 0 0c0 0-0.1 0-0.1 0.1q0 0 0 0c0 0 0 0 0 0 0 0 0 0-0.1 0.1 0 0 0 0 0 0q-0.1 0-0.1 0.1-0.1 0-0.1 0.1-0.1 0-0.1 0-0.1 0.1-0.2 0.1 0 0.1-0.1 0.1 0 0-0.1 0 0 0.1-0.1 0.1-0.1 0.1-0.2 0.1-0.2 0.1-0.3 0.2-0.2 0-0.4 0.1-0.2 0.1-0.4 0.2c-0.1 0-0.2 0-0.3 0.1 0 0 0 0-0.1 0q0 0-0.2 0.1c-0.2 0-0.4 0.1-0.6 0.1-0.3 0.1-0.5 0.2-0.8 0.2-0.2 0.1-0.3 0.1-0.5 0.1q-0.1 0-0.2 0-0.1 0-0.2 0.1-0.5 0-1 0.1-0.5 0-1 0-0.1 0-0.2 0-0.1 0-0.1 0-0.4 0-0.8 0c-0.4-0.1-0.8-0.1-1.2-0.2q-0.2-0.1-0.5-0.1-0.4-0.1-0.8-0.3-0.2 0-0.3-0.1-1-0.4-1.9-0.9z"/>
					<path id="&lt;Path&gt;" class="s13" d="m600.8 264.5q0.2-0.1 0.5-0.2 0.3-0.2 0.5-0.4-0.1 0 0 0 0.2-0.2 0.3-0.5 0 0 0 0c0.1-0.2 0.2-0.4 0.3-0.6q0 0 0 0 0.1-0.3 0.1-0.6 0-0.3-0.1-0.5-0.1-0.2-0.2-0.2l5.5 3.2c0.1 0 0.2 0.1 0.2 0.2q0.1 0 0 0 0 0 0.1 0.1 0 0 0 0 0 0 0 0 0 0 0 0.1 0 0 0 0 0 0.1 0 0.1 0 0 0 0.1 0.1 0 0.1 0 0 0.1 0 0.1 0 0 0 0.1 0 0 0 0 0 0 0 0 0 0 0 0 0 0.1 0 0.1 0 0 0 0-0.1 0.1-0.1 0.1 0 0 0 0 0 0.1 0 0.1 0 0 0 0.1 0 0 0 0 0 0 0 0.1c0 0-0.1 0-0.1 0q0 0 0 0 0 0 0 0 0 0.1 0 0.1 0 0 0 0.1 0 0 0 0 0 0.1 0 0.1-0.1 0-0.1 0.1c0 0 0 0 0 0 0 0.1-0.1 0.1-0.1 0.1 0 0 0 0.1 0 0.1q0 0 0 0 0 0 0 0-0.1 0.1-0.2 0.2 0 0.1 0 0.1c0 0.1-0.1 0.1-0.1 0.1q0 0 0 0.1c0 0 0 0-0.1 0q0 0 0 0 0 0 0 0c0 0 0 0.1 0 0.1 0 0-0.1 0-0.1 0 0 0 0 0.1 0 0.1q-0.1 0 0 0c-0.1 0-0.1 0-0.1 0.1q0 0-0.1 0 0 0 0 0c0 0 0 0 0 0.1 0 0-0.1 0-0.1 0 0 0 0 0 0 0q0 0 0 0c0 0-0.1 0-0.1 0 0 0 0 0.1 0 0.1 0 0-0.1 0-0.1 0q0 0 0 0c-0.1 0-0.1 0-0.1 0 0 0 0 0 0 0.1 0 0-0.1 0-0.1 0q0 0 0 0c-0.1 0-0.1 0-0.1 0 0 0 0 0 0 0h-0.1q0 0 0 0c-0.1 0-0.1 0-0.1 0 0 0 0 0-0.1 0 0-0.1 0-0.1-0.1-0.1l-5.5-3.2c0.1 0 0.2 0.1 0.3 0.1z"/>
					<path id="&lt;Path&gt;" class="s13" d="m607.9 252.2q0 0 0 0 0.2 0 0.5-0.1 0.2-0.2 0.4-0.4 0.2-0.2 0.4-0.5 0.1-0.3 0.2-0.6 0 0 0 0 0.2-0.3 0.2-0.6 0-0.3-0.2-0.5 0-0.2-0.2-0.2l5.6 3.2c0 0 0.1 0.1 0.2 0.2q0 0 0 0 0 0.1 0 0.1 0.1 0 0 0 0 0 0 0.1 0.1 0 0.1 0 0 0.1 0 0.1 0 0 0 0 0 0.1 0 0.1 0 0 0 0.1 0 0 0 0v0.1q0 0 0 0 0 0 0 0 0 0.1 0 0.1 0 0 0 0 0 0.1 0 0.1 0 0 0 0 0 0.1 0 0.1c0 0-0.1 0-0.1 0q0 0.1 0 0.1 0.1 0 0 0.1 0 0 0 0 0 0 0 0 0 0.1 0 0.1 0 0 0 0.1c0 0-0.1 0-0.1 0q0 0 0 0.1 0 0 0 0-0.1 0.1-0.1 0.1c0 0 0 0.1 0 0.1 0 0 0 0.1-0.1 0.1q0 0.1-0.1 0.2 0 0.1-0.1 0.1c0 0 0 0.1 0 0.1 0 0 0 0-0.1 0q0 0.1 0 0.1 0 0 0 0-0.1 0-0.1 0.1c0 0 0 0 0 0q-0.1 0 0 0.1c-0.1 0-0.1 0-0.1 0q0 0-0.1 0c0 0.1 0 0.1 0 0.1 0 0 0 0 0 0 0 0-0.1 0-0.1 0 0 0.1 0 0.1 0 0.1 0 0-0.1 0-0.1 0q0 0 0 0-0.1 0-0.1 0.1c0 0 0 0 0 0-0.1 0-0.1 0-0.1 0 0 0 0 0 0 0q-0.1 0-0.1 0c0 0 0 0-0.1 0.1 0 0 0 0 0 0 0 0 0 0 0 0 0 0-0.1 0-0.1 0q0 0 0 0 0 0-0.1 0c0 0 0 0 0 0 0 0 0 0-0.1 0q0 0 0-0.1-0.1 0-0.1 0l-5.6-3.2q0.2 0.1 0.4 0z"/>
					<path id="&lt;Path&gt;" class="s11" d="m603.2 247.2q0.1 0.1 0.2 0.1 0.7 0.2 1.5 0.2c0 0 0.1 0 0.1 0q0.8-0.1 1.6-0.3 0 0 0 0 0.9-0.3 1.7-0.8c0.8-0.4 1.6-1 2.4-1.7q0 0 0 0 1.1-1.1 2.2-2.6 0 0 0 0c0.8-1 1.4-2.1 2.1-3.3q0.1-0.1 0.2-0.2 1-1.8 1.9-4l1.6-3.4q0-0.3-0.3-0.5l5.6 3.3q0.1 0 0.2 0.1c0 0.1 0 0.1 0 0.1q0 0 0.1 0 0 0.1 0 0.1 0 0 0 0 0 0 0 0 0 0 0 0 0 0 0 0.1 0 0 0 0 0 0 0 0 0 0 0 0l-1.6 3.4q0 0.1-0.1 0.2-0.2 0.6-0.5 1.1-0.2 0.5-0.4 1c-0.2 0.3-0.4 0.7-0.6 1-0.1 0.2-0.3 0.5-0.4 0.7q0 0.1-0.1 0.3-0.1 0.1-0.2 0.3-0.6 1-1.2 1.9-0.3 0.5-0.6 0.9-0.1 0.1-0.1 0.1 0 0 0 0.1-0.2 0.2-0.4 0.4c-0.1 0.2-0.3 0.3-0.4 0.5q-0.2 0.2-0.3 0.4-0.2 0.2-0.4 0.4-0.2 0.2-0.3 0.4-0.2 0.2-0.4 0.3c0 0.1 0 0.1-0.1 0.1q0 0 0 0-0.1 0.1-0.3 0.3-0.1 0.1-0.3 0.3-0.2 0.1-0.4 0.3c-0.1 0-0.2 0.1-0.3 0.2q-0.2 0.1-0.3 0.2-0.2 0.1-0.3 0.2c-0.1 0.1-0.2 0.2-0.3 0.2-0.1 0-0.1 0-0.1 0.1q-0.1 0-0.2 0.1c-0.1 0-0.2 0.1-0.3 0.1-0.1 0.1-0.2 0.1-0.3 0.2-0.1 0-0.2 0.1-0.3 0.1-0.1 0-0.2 0.1-0.3 0.1q-0.1 0.1-0.3 0.1 0 0 0 0c0 0 0 0 0 0-0.2 0.1-0.2 0.1-0.4 0.1q-0.1 0.1-0.3 0.1-0.2 0-0.4 0.1c-0.1 0-0.2 0-0.4 0 0 0-0.1 0-0.2 0q0 0 0 0c-0.1 0-0.1 0-0.2 0q-0.2 0-0.5 0-0.3 0-0.6-0.1-0.1 0-0.2-0.1-0.2 0-0.2 0-0.3-0.1-0.4-0.1-0.6-0.2-1.2-0.6l-5.5-3.2q0.7 0.4 1.5 0.6z"/>
					<path id="&lt;Path&gt;" class="s15" d="m587.2 275.6l0.6-0.6 2-1.6q1.6-1.5 3-3.1c0 0 0-0.1 0-0.1q1.4-1.5 2.4-3.1c0 0 0-0.1 0.1-0.1 0.7-1.1 1.2-2.1 1.7-3.1 0 0 0 0 0 0q0.7-1.6 1.1-3.1 0 0 0 0 0.3-1.5 0.3-2.9 0 0 0 0c0-0.9 0-1.8-0.3-2.7q0 0 0 0-0.3-1.3-1-2.4c0 0-0.1 0-0.1-0.1-0.5-0.7-1.1-1.4-1.8-2.1l-1.6-1.3 5.5 3.2 1.7 1.4q1 0.9 1.7 2 0.1 0 0.1 0.1 0 0 0 0 0.3 0.4 0.5 0.9 0.2 0.4 0.3 0.7 0.1 0.3 0.2 0.7 0.1 0 0 0.1 0.1 0 0.1 0.1c0 0.1 0 0.2 0.1 0.3q0 0.2 0.1 0.5c0 0.1 0 0.3 0 0.4q0.1 0.3 0.1 0.5 0 0.2 0 0.4 0 0.2 0 0.4 0 0.1 0 0.1 0 0 0 0.1 0 0.1 0 0.2 0 0.2 0 0.4c0 0.1 0 0.2 0 0.4 0 0.1-0.1 0.2-0.1 0.4 0 0.1 0 0.2 0 0.3q-0.1 0.2-0.1 0.4-0.1 0.2-0.1 0.4 0 0.2-0.1 0.4 0 0 0 0 0.1 0 0 0 0 0.2-0.1 0.4 0 0.2-0.1 0.4 0 0.2-0.2 0.5 0 0.1-0.1 0.3c0 0.2-0.1 0.3-0.1 0.4-0.1 0.2-0.1 0.3-0.2 0.4 0 0.2-0.1 0.3-0.1 0.5q-0.1 0-0.1 0.1c0 0-0.1 0-0.1 0 0 0.1 0 0.2 0 0.3q-0.2 0.2-0.3 0.4-0.1 0.3-0.3 0.6-0.2 0.5-0.5 0.9-0.3 0.5-0.6 0.9c0 0 0 0.1 0 0.1q-0.1 0.1-0.2 0.2c-0.2 0.4-0.5 0.7-0.7 1.1q-0.3 0.4-0.6 0.7-0.3 0.4-0.5 0.8-0.2 0.1-0.4 0.3c0 0.1 0 0.1 0 0.1q-0.2 0.1-0.2 0.3-0.4 0.3-0.7 0.7-0.4 0.4-0.8 0.8-0.4 0.4-0.9 0.9c-0.1 0.1-0.3 0.3-0.5 0.4l-2 1.6-0.5 0.6q0 0 0 0-0.1 0-0.1 0 0 0 0 0 0 0 0 0.1 0 0 0 0 0 0 0 0-0.1 0-0.1 0 0 0 0 0 0 0 0 0-0.1 0 0 0-0.1 0-0.1 0 0 0 0-0.1-0.1 0-0.1 0l-5.5-3.2c0.1 0.1 0.2 0.1 0.3 0z"/>
					<path id="&lt;Path&gt;" class="s16" d="m581.3 273.2c0.1-0.4 0.1-0.9 0.1-1.3 0-0.2 0-0.4 0-0.6q0-0.1 0.1-0.3 0-0.2 0-0.5 0.1-0.7 0.1-1.3c0.1-0.5 0.2-0.9 0.2-1.3q0-0.1 0-0.1 0 0 0 0 0.1-0.7 0.3-1.4 0.1-0.7 0.3-1.4c0-0.2 0-0.3 0.1-0.4 0-0.1 0-0.2 0-0.3 0.1-0.3 0.2-0.5 0.2-0.8 0.1-0.4 0.3-0.9 0.4-1.4q0.1-0.4 0.2-0.9 0.1-0.1 0.1-0.2 0.1-0.2 0.1-0.3 0.2-0.7 0.5-1.4 0.2-0.7 0.4-1.4c0 0 0.1-0.1 0.1-0.2 0 0 0-0.1 0.1-0.1q0.1-0.5 0.3-1c0.2-0.4 0.4-0.9 0.6-1.3q0.1-0.4 0.3-0.8 0-0.1 0.1-0.2 0.1-0.2 0.1-0.3 0.2-0.6 0.6-1.3 0.3-0.7 0.7-1.4 0-0.1 0.1-0.2 0-0.1 0.1-0.2 0.3-0.6 0.6-1.2c0.2-0.4 0.5-0.9 0.8-1.4q0.1-0.3 0.3-0.6 0.1-0.2 0.2-0.3c0.2-0.4 0.5-0.8 0.8-1.2q0.5-0.9 1-1.7 0.1-0.1 0.2-0.3 0.8-1.2 1.7-2.4 0 0 0 0c0 0 0.1-0.1 0.1-0.1q0.5-0.7 1.1-1.4 0.4-0.7 1-1.3c0 0 0 0 0 0 0-0.1 0.1-0.1 0.1-0.1q0.4-0.6 0.9-1.1 0.5-0.6 1.1-1.2 0.1-0.1 0.2-0.2 0.1-0.1 0.2-0.3 0.3-0.3 0.7-0.6 0.5-0.6 1.1-1.2 0.2-0.2 0.5-0.4c0-0.1 0.2-0.1 0.2-0.2q0.3-0.2 0.5-0.5c0.4-0.3 0.8-0.7 1.2-1 0.2-0.2 0.5-0.4 0.7-0.5q0.1-0.2 0.2-0.3 0.2-0.1 0.3-0.2 0.6-0.5 1.3-1 0.4-0.3 0.9-0.6 0.1-0.1 0.1-0.1 0.1-0.1 0.2-0.1 0.5-0.4 1.1-0.8 0.6-0.4 1.2-0.7c0.1-0.1 0.2-0.1 0.3-0.2 0.3-0.1 0.6-0.3 0.9-0.5 0.3-0.2 0.7-0.4 1.1-0.5q0.3-0.2 0.7-0.4c0.1 0 0.1 0 0.2 0q0-0.1 0.2-0.2 0.6-0.2 1.1-0.4c0.3-0.2 0.7-0.3 1.1-0.4 0-0.1 0.1-0.1 0.1-0.1q0.1 0 0.2 0c0.2-0.1 0.5-0.2 0.7-0.3q0.6-0.2 1.2-0.3 0.2-0.1 0.5-0.1 0.1 0 0.2-0.1 0.2 0 0.4 0 0.6-0.2 1.2-0.2 0.3-0.1 0.7-0.1c0 0 0.1 0 0.2 0 0.1 0 0.2-0.1 0.3-0.1q0.7 0 1.3 0 0.2 0 0.5 0c0.1 0 0.3 0 0.4 0q0.2 0 0.5 0.1 0.8 0 1.5 0.2 0 0 0.1 0c0 0 0.1 0 0.1 0q0.9 0.2 1.7 0.5 0.1 0 0.1 0.1c0.7 0.2 1.5 0.5 2.1 0.9l5.5 3.2c-0.6-0.3-1.3-0.7-2-0.9q-0.9-0.3-1.8-0.5c-0.1 0-0.1-0.1-0.2-0.1q-1-0.2-2-0.2c-0.2 0-0.3 0-0.5-0.1q-1 0-2 0.1c-0.1 0-0.2 0-0.3 0q-1.1 0.1-2.2 0.4c-0.1 0-0.2 0-0.3 0-0.7 0.2-1.6 0.4-2.3 0.7q-0.1 0-0.2 0c-0.9 0.3-1.7 0.7-2.6 1.1q-0.1 0-0.2 0.1-1.3 0.6-2.6 1.4-1.5 0.8-2.8 1.7-0.1 0-0.1 0.1-1.3 0.9-2.5 1.9-0.2 0.1-0.3 0.2-1.2 0.9-2.3 2c-0.1 0.1-0.2 0.2-0.3 0.3q-1.1 1-2.2 2.2-0.1 0.1-0.2 0.2-1.2 1.2-2.2 2.5-0.1 0.1-0.1 0.1-1.1 1.3-2.2 2.7 0 0.1-0.1 0.1-0.9 1.3-1.8 2.7-0.6 0.9-1.1 1.7-0.5 0.7-0.9 1.5-0.2 0.3-0.4 0.7-0.7 1.2-1.4 2.5 0 0.2-0.1 0.3c-0.5 1-1 2-1.4 3.1q-0.1 0.1-0.1 0.2c-0.5 1-0.9 2.1-1.3 3.1 0 0.1 0 0.1-0.1 0.2q-0.6 1.6-1 3.2 0 0.1-0.1 0.2-0.4 1.6-0.8 3.1c0 0.1 0 0.2-0.1 0.3q-0.3 1.6-0.6 3.2 0 0.1 0 0.1-0.2 1.6-0.4 3.2 0 0.1 0 0.2-0.1 1.6-0.1 3.2 0 1.5 0.1 3 0 0.1 0 0.2 0.2 1.3 0.4 2.6 0.1 0.1 0.1 0.3 0.2 1.2 0.6 2.2 0 0.2 0.1 0.4 0.3 1 0.7 1.9 0.1 0.2 0.1 0.3 0.5 1 1.1 2c0.6 0.8 1.2 1.6 1.9 2.3q0.3 0.2 0.5 0.5c0.7 0.6 1.4 1.2 2.3 1.7l-5.6-3.2c-0.8-0.5-1.6-1.1-2.3-1.8q-0.2-0.2-0.5-0.5c-0.7-0.6-1.3-1.4-1.8-2.3q0 0 0 0c-0.4-0.6-0.8-1.2-1.1-1.8q0-0.1 0-0.1-0.1-0.2-0.1-0.3-0.3-0.6-0.5-1.2-0.2-0.3-0.3-0.7 0-0.2-0.1-0.4-0.1-0.2-0.1-0.3-0.2-0.7-0.4-1.4 0-0.3-0.1-0.6 0-0.1-0.1-0.3 0-0.2 0-0.4c-0.1-0.5-0.2-0.9-0.2-1.3-0.1-0.3-0.1-0.5-0.1-0.8q0-0.1-0.1-0.3 0-0.1 0-0.3 0-0.6 0-1.2-0.1-0.7-0.1-1.4 0 0 0 0 0-0.7 0-1.3z"/>
					<path id="&lt;Compound Path&gt;" fill-rule="evenodd" class="s17" d="m613.9 231c14.9-8.6 27.1-1.9 27.1 15.4 0.1 17.2-12.1 38.2-27 46.8-15.1 8.7-27.1 1.6-27.1-15.5-0.1-17.4 11.9-38 27-46.7zm-3.6 58c0.7-0.3 1.1-0.8 1.2-1.1v-3c0.2-8.4-3.2-11.2-8.8-8-1.7 1-3.6 2.5-5.6 4.6l-2.6 2.6c-0.8 1.4 2.4 5 6.7 6.1 3.3 0.8 7.3-0.1 9.1-1.2zm3.6-33.7c0.6-0.3 1.2-1.4 1.2-2 0-0.9-0.6-1-1.2-0.7q-1.1 0.7-1.1 2c0 0.7 0.4 1.1 1.1 0.7zm0.1 16.2c0.6-0.3 1.2-1.3 1.2-2 0-0.9-0.7-1-1.2-0.7q-1.2 0.7-1.2 2.1c0 0.6 0.4 1.1 1.2 0.6zm-7.1-4c0.6-0.3 1.2-1.4 1.2-2 0-0.9-0.6-1.1-1.2-0.7q-1.2 0.7-1.2 2c0 0.7 0.4 1.2 1.2 0.7zm15.8-29.7l1.6-3.4c0-1.3-5.4-0.8-10.6 2.3-5.3 3-10.6 8.6-10.2 9.7l0.4 0.2 1.2 1.4c2.6 3 5.7 3.4 8.8 1.7 3.1-1.8 6.2-5.9 8.8-11.9zm-0.5 19.5c0-0.9-0.6-1-1.2-0.7-0.8 0.5-1.1 1.2-1.1 2.1 0 0.6 0.3 1.1 1.1 0.7 0.6-0.4 1.2-1.4 1.2-2.1zm-5.9 28q0.3 0.2 1.2-0.3c1.9-1.1 5.9-4.9 9.3-9.5 4.5-6 7.4-13.6 6.4-13.7l-0.6 0.1-1.7 0.4c-2.1 0.2-4 0.9-5.7 1.9-5.6 3.2-9 9.9-8.9 18.2zm12.6-50q-0.2 0-0.3 0.2l-0.4 0.9-1.2 2.5c-5.8 12-3.6 18.4 5.6 16.2l2.4-0.5c1.1-0.8 1.5-7.8-0.1-12.6-1.4-4.5-4.7-7.5-6-6.7zm-36.1 43.5l0.5-0.6 2-1.6c9-8.3 11.4-17.6 5.5-22.8l-1.7-1.3q0 0-0.1 0.1c-1.1 0.6-4.8 7.5-6.3 13.8-1.5 6.7-1.1 13.1 0.1 12.4z"/>
					<path id="&lt;Path&gt;" class="s16" d="m609.2 264.1q0-0.1 0-0.2c0-0.1 0-0.2 0-0.2q0-0.2 0-0.3 0.1-0.1 0.1-0.2 0-0.1 0-0.2c0.1-0.1 0.1-0.2 0.1-0.3q0-0.1 0-0.2 0.1-0.1 0.1-0.3 0 0 0.1-0.1 0 0 0 0 0 0 0-0.1 0-0.1 0-0.2 0.1-0.1 0.1-0.2 0.1-0.2 0.1-0.3 0.1-0.1 0.1-0.2 0-0.1 0.1-0.2 0-0.1 0.1-0.2 0-0.1 0.1-0.2 0-0.2 0.1-0.3c0.1-0.1 0.1-0.2 0.2-0.3q0 0 0 0 0 0 0-0.1 0.2-0.2 0.4-0.5c0-0.1 0.2-0.2 0.2-0.4 0.1-0.1 0.2-0.1 0.2-0.2 0.1-0.1 0.2-0.2 0.2-0.2 0.1-0.1 0.1-0.2 0.2-0.2 0-0.1 0.1-0.2 0.1-0.2 0.1-0.1 0.1-0.1 0.1-0.1q0 0 0 0 0.1-0.1 0.1-0.1 0.1-0.1 0.2-0.2 0.1-0.1 0.2-0.2 0.1-0.1 0.2-0.2 0.2-0.1 0.2-0.2 0.2 0 0.3-0.1 0-0.1 0.2-0.2c0 0 0.1-0.1 0.2-0.1q0.1-0.1 0.2-0.1c0 0 0 0 0-0.1q0.1 0 0.2 0c0-0.1 0.1-0.1 0.1-0.1q0.1-0.1 0.2-0.1c0.1 0 0.1 0 0.2-0.1q0 0 0.1 0c0 0 0.1 0 0.1 0q0-0.1 0.1-0.1 0.1 0 0.1 0c0.1 0 0.2-0.1 0.2-0.1 0.1 0 0.2 0 0.2 0q0.1 0 0.2 0 0 0 0 0 0 0 0 0 0.1 0 0.2 0 0.1 0 0.2 0 0.1 0 0.3 0 0 0 0 0 0 0 0 0c0.1 0 0.2 0.1 0.3 0.1q0.2 0.1 0.3 0.2l1.4 0.8q-0.3-0.2-0.6-0.3-0.4 0-0.7 0-0.1 0-0.1 0-0.3 0-0.8 0.2 0 0 0 0-0.4 0.1-0.8 0.4c-0.6 0.3-1.2 0.8-1.8 1.4q0 0 0 0c-0.5 0.6-1 1.2-1.4 1.9q0 0 0 0-0.6 1.1-1 2.2 0 0 0 0-0.3 1.1-0.3 2.2 0 1 0.3 1.7 0 0 0 0 0.3 0.7 0.9 1.1l-1.3-0.8q-0.5-0.3-0.8-0.8-0.1-0.1-0.1-0.3 0 0 0 0c0 0-0.1 0-0.1 0q0-0.1-0.1-0.2c0-0.1 0-0.1 0-0.2 0-0.1-0.1-0.2-0.1-0.2q0-0.1 0-0.2-0.1-0.1-0.1-0.2 0.1-0.1 0-0.2 0-0.1 0-0.2 0-0.1 0-0.2 0-0.1 0-0.1 0-0.1 0-0.2z"/>
					<path id="&lt;Path&gt;" class="s11" d="m615.1 257.4c2.3-1.4 4.3-0.3 4.3 2.6 0.1 2.8-1.9 6.2-4.2 7.5-2.6 1.5-4.6 0.4-4.6-2.4 0-2.9 2-6.3 4.5-7.7z"/>
					<path id="&lt;Path&gt;" class="s17" d="m612 264.6q0-0.1 0-0.2c0 0 0-0.1 0-0.2q0 0 0-0.1c0-0.1 0-0.1 0-0.2q0-0.1 0.1-0.2 0 0 0-0.1 0-0.1 0-0.2c0.1-0.1 0.1-0.1 0.1-0.2q0-0.1 0-0.2 0 0 0 0c0 0 0.1-0.1 0.1-0.1 0-0.1 0-0.1 0.1-0.2 0 0 0-0.1 0-0.1 0-0.1 0-0.1 0.1-0.2 0-0.1 0-0.1 0-0.2q0.1 0 0.1-0.1 0.1-0.1 0.1-0.2 0-0.1 0.1-0.2 0-0.1 0.2-0.2 0-0.1 0-0.1 0 0 0 0 0.1-0.2 0.2-0.4 0.1-0.1 0.2-0.3 0.1 0 0.1-0.1 0.1-0.1 0.2-0.2 0.1-0.1 0.1-0.2 0.1 0 0.1-0.1 0.1-0.1 0.2-0.1 0 0 0 0-0.1 0 0 0 0.1-0.1 0.1-0.2 0.1-0.1 0.2-0.1 0.1-0.1 0.1-0.2c0.1 0 0.1-0.1 0.2-0.1 0 0 0.1-0.1 0.1-0.1q0.1-0.1 0.2-0.1 0.1-0.1 0.1-0.1 0.1-0.1 0.2-0.1 0 0 0 0 0.1 0 0.1-0.1 0.1 0 0.2 0 0-0.1 0.1-0.1 0.1 0 0.1-0.1 0.1 0 0.1 0 0.2 0 0.2-0.1 0.1 0 0.1 0 0.1 0 0.2 0 0 0 0.1-0.1 0.1 0 0.1 0 0 0 0.1 0 0 0 0.2 0 0 0 0.1 0c0.1 0 0.1 0 0.2 0.1q0.1 0 0.2 0 0.2 0.1 0.3 0.1l1.4 0.8c-0.3-0.1-0.7-0.2-1.1-0.2q-0.6 0.1-1.3 0.5-0.7 0.4-1.3 1 0 0 0 0-0.6 0.6-1 1.4 0 0 0 0-0.5 0.8-0.8 1.6c-0.1 0.6-0.3 1.2-0.3 1.7 0 0.5 0.2 0.9 0.3 1.2q0 0 0 0 0.2 0.5 0.7 0.8l-1.4-0.8q-0.3-0.2-0.6-0.6 0-0.1-0.1-0.2 0 0 0 0 0-0.1-0.1-0.2c0 0 0-0.1 0-0.1 0-0.1-0.1-0.1-0.1-0.2q0.1 0 0-0.1 0-0.1 0-0.1 0-0.1 0-0.2 0 0 0-0.1 0-0.1 0-0.2 0 0 0 0 0 0 0-0.1z"/>
					<path id="&lt;Path&gt;" class="s14" d="m616.7 259.8c1.8-1 3.3-0.4 3.4 1.9-0.1 2-1.6 4.5-3.4 5.5-1.7 1-3.3 0.4-3.4-1.7 0-2.2 1.6-4.7 3.4-5.7z"/>
				</g>
				<path id="&lt;Path&gt;" class="s18" d="m646.6 222.4c-7.1-0.2-18 1.3-24.8 3.6-35.5 11.8-47.1 64.1-20.7 83.2-5.5 2.1-29-12.8-36-18-10.8-29.6 9.4-69.3 40.9-83.3 5.5-2.4 12.8-2.2 18 0.9z"/>
				<g id="&lt;Group&gt;">
					<path id="&lt;Path&gt;" class="s10" d="m612.5 306.7l-19.5-11.3v1.5l19.5 11.3z"/>
					<path id="&lt;Path&gt;" class="s19" d="m634.1 225.8l19.4 11.3-1.2 0.7-19.5-11.3z"/>
					<path id="&lt;Path&gt;" class="s10" d="m595.3 308.5l-19.5-11.3-0.6 1.7 19.4 11.3z"/>
					<path id="&lt;Path&gt;" class="s20" d="m646.2 220.7l-19.4-11.3-1.1 1.4 19.4 11.3z"/>
					<path id="&lt;Path&gt;" class="s21" d="m569.1 293.3l19.4 11.3q1.5 1.3 3.2 2.3l-19.5-11.3q-1.7-1-3.1-2.3z"/>
					<path id="&lt;Path&gt;" class="s22" d="m618.8 207c0.4 0.1 0.7 0.2 1.1 0.3 0.1 0.1 0.2 0.2 0.3 0.2 0.8 0.3 1.7 0.7 2.5 1.2l19.4 11.3c-0.8-0.5-1.6-0.9-2.5-1.2-0.4-0.2-0.9-0.3-1.3-0.5z"/>
					<path id="&lt;Path&gt;" class="s20" d="m583.9 298.2l-19.4-11.3-1.2 1.4 19.5 11.3z"/>
					<path id="&lt;Path&gt;" class="s10" d="m563.3 288.3l19.5 11.3q0.8 1.7 1.8 3.2 0.3 0.3 0.5 0.6c0.7 1 1.5 1.9 2.3 2.6l-19.5-11.3c-0.8-0.7-1.5-1.6-2.2-2.6q-0.3-0.3-0.5-0.7c-0.2-0.2-0.4-0.4-0.5-0.6q-0.8-1.2-1.4-2.5 0 0 0 0z"/>
					<path id="&lt;Path&gt;" class="s23" d="m631.1 215.9l-19.5-11.3-0.6 1.7 19.5 11.3z"/>
					<path id="&lt;Path&gt;" class="s24" d="m633.3 215.8q-0.1 0-0.4 0-0.8 0-1.8 0.1l-19.5-11.3q0.5 0 1-0.1c0.3 0 0.6 0 0.9 0 0.1 0 0.3 0 0.4 0q0 0 0.2 0 0.8 0 1.6 0.1h0.1c0.7 0 1.3 0.1 2 0.3 0 0 0 0 0 0q0.9 0.1 1.7 0.4l19.5 11.3q-0.9-0.2-1.8-0.4-0.9-0.2-2-0.3-0.9-0.1-1.9-0.1z"/>
					<path id="&lt;Path&gt;" class="s21" d="m581.5 289.1c0.2 1.6 0.5 3.2 0.9 4.6q0 0.2 0.1 0.4 0.6 2.2 1.4 4.1l-19.4-11.3q-0.4-0.8-0.7-1.7-0.3-0.9-0.6-1.9-0.1-0.2-0.2-0.5c0-0.1 0-0.3-0.1-0.4q-0.1-0.4-0.2-0.9-0.2-0.9-0.4-1.8-0.1-0.8-0.2-1.7 0-0.1 0-0.2z"/>
					<path id="&lt;Path&gt;" class="s25" d="m621.3 220.2l-19.5-11.3c0.3-0.2 0.7-0.3 1-0.5q0.8-0.3 1.5-0.5 0.7-0.3 1.4-0.5c0.3-0.1 0.5-0.1 0.7-0.2q0.1 0 0.2 0 0.3-0.1 0.6-0.2 0.7-0.2 1.4-0.3c0.5-0.1 1-0.2 1.5-0.3 0.3 0 0.6 0 0.9-0.1l19.5 11.3q-2.2 0.3-4.4 0.9-0.1 0-0.3 0-2.2 0.7-4.5 1.7z"/>
					<path id="&lt;Path&gt;" class="s26" d="m581.5 278.7l-19.5-11.3-1.3 0.7 19.5 11.3z"/>
					<path id="&lt;Path&gt;" class="s27" d="m560.4 272.5c0-0.4 0-0.8 0-1.3 0-0.1 0.1-0.2 0.1-0.3 0-0.1 0-0.3 0-0.4 0-0.3 0-0.6 0.1-0.9q0-0.8 0.1-1.5l19.5 11.3q-0.1 1.2-0.3 2.4 0 0.2 0 0.4-0.1 1.3-0.1 2.7c0 0.8 0.1 1.6 0.1 2.4 0.1 0.8 0.2 1.6 0.3 2.5l-19.5-11.3c0-0.9-0.2-1.7-0.2-2.5q0-0.1 0-0.2-0.1-0.6-0.1-1.2c0-0.3-0.1-0.6-0.1-1q0 0 0-0.1 0-0.5 0.1-1z"/>
					<path id="&lt;Path&gt;" class="s19" d="m612.2 223.9l-19.4-11.3v1.5l19.4 11.3z"/>
					<path id="&lt;Path&gt;" class="s28" d="m612.2 223.9l-19.4-11.3q0.3-0.2 0.6-0.5c0.4-0.2 0.7-0.5 1.1-0.8q0.3-0.2 0.5-0.3 0.1-0.1 0.2-0.1c0.3-0.3 0.7-0.5 1.1-0.7q0.4-0.3 0.8-0.6c0.1 0 0.2 0 0.2-0.1q0.3-0.2 0.6-0.3 0.4-0.2 0.9-0.5 0.3-0.1 0.6-0.3c0.1 0 0.2-0.1 0.3-0.1 0.1 0 0.2-0.1 0.2-0.1q0.9-0.4 1.9-0.8l19.5 11.3c-0.8 0.3-1.4 0.6-2.1 0.9-0.1 0-0.2 0.1-0.3 0.1-0.7 0.4-1.4 0.7-2.1 1.1-0.8 0.5-1.6 1-2.3 1.5-0.2 0.1-0.4 0.2-0.5 0.4q-0.9 0.6-1.8 1.2z"/>
					<path id="&lt;Path&gt;" class="s29" d="m581.5 278.7l-19.5-11.3q0.1-0.9 0.2-1.7 0.1-1 0.3-1.9 0.2-0.9 0.3-1.8 0-0.3 0.1-0.5c0-0.1 0-0.2 0-0.3q0.2-0.5 0.3-1.1c0.1-0.6 0.3-1.2 0.4-1.7q0.2-0.9 0.4-1.8c0.2-0.5 0.3-0.9 0.4-1.4l19.5 11.4q-0.9 2.9-1.5 5.9c0 0.1 0 0.2-0.1 0.3-0.3 2-0.6 3.9-0.8 5.9z"/>
					<path id="&lt;Path&gt;" class="s30" d="m602.9 233.6l-19.4-11.4c0.3-0.3 0.6-0.6 0.9-0.9 0.5-0.5 0.9-1 1.5-1.4 0.5-0.5 1-1 1.5-1.5q0.3-0.2 0.5-0.4 0.1-0.1 0.2-0.2c0.4-0.3 0.6-0.6 0.9-0.8q0.8-0.7 1.7-1.3 0.7-0.7 1.6-1.3c0.1-0.1 0.3-0.2 0.5-0.3l19.4 11.3q-2.3 1.7-4.6 3.7-0.1 0.1-0.2 0.2c-1.6 1.3-3 2.8-4.5 4.3z"/>
					<path id="&lt;Path&gt;" class="s31" d="m588.4 254.9l-19.5-11.3q0.3-0.6 0.6-1.2 0.5-1 1.1-2 0.7-1.3 1.4-2.6 0.1-0.1 0.1-0.2c0 0 0.1 0 0.1-0.1q1.5-2.6 3.2-5.1 0.2-0.2 0.3-0.4l19.4 11.3q-1.9 2.8-3.5 5.6-0.1 0.1-0.1 0.2-1.7 2.9-3.1 5.8z"/>
					<path id="&lt;Path&gt;" class="s19" d="m588.4 254.9l-19.5-11.3-1.1-0.1 19.4 11.3z"/>
					<path id="&lt;Path&gt;" class="s18" d="m582.7 266.5l-19.5-11.3q0-0.1 0-0.1c0.2-0.5 0.4-1.1 0.6-1.6q0.3-0.9 0.6-1.8 0.3-1 0.7-2c0.1-0.1 0.1-0.2 0.1-0.2q0.1-0.2 0.1-0.3c0.3-0.7 0.6-1.3 0.8-2q0.8-1.8 1.6-3.6 0-0.1 0-0.1l19.5 11.3q-1.3 2.9-2.4 5.7c-0.1 0.1-0.1 0.2-0.1 0.3-0.7 1.9-1.4 3.8-2 5.7z"/>
					<path id="&lt;Path&gt;" class="s32" d="m594.4 242.3l-19.4-11.3q0.4-0.7 0.9-1.3 1.2-1.6 2.4-3.1 0.1-0.2 0.4-0.5 0.1-0.2 0.3-0.4 0.5-0.6 1-1.2 0.7-0.8 1.4-1.7 0.6-0.7 1.3-1.4 0.1-0.1 0.1-0.1l19.5 11.3q-2 2.1-3.9 4.4c-0.1 0.2-0.2 0.3-0.3 0.4q-1.9 2.4-3.7 4.9z"/>
					<path id="&lt;Compound Path&gt;" fill-rule="evenodd" class="s18" d="m580.2 279.4l1.3-0.7c0.4-4 1.2-8.1 2.4-12.1l-1.2-0.1c1.1-3.9 2.7-7.7 4.5-11.7l1.2 0.1q2.9-6 6.7-11.6l-0.7-1c2.6-3.5 5.1-6.8 7.9-9.7l0.6 1c2.9-3.1 6.1-5.9 9.3-8.2v-1.5c1.4-1 3-2.2 4.6-3.1 1.6-0.9 2.9-1.4 4.5-2.1v1.5q4.8-2.1 9.2-2.5l0.6-1.8c3-0.3 5.5 0 7.9 0.7l-0.7 1.7c2.6 0.8 4.8 2.1 6.8 3.8l1.1-1.4c1.8 2 3.4 4 4.6 6.5l-1 1.2c1.2 2.7 2 5.9 2.5 9.4l1.2-0.7c0.3 1.4 0.3 3.2 0.3 5.1 0 1.7 0 3.3-0.2 5.2l-1.3 0.8c-0.4 3.9-1.2 8-2.4 12l1 0.1c-1.2 3.8-2.8 7.9-4.5 11.6l-1.1-0.1c-1.9 4.1-4.2 8.1-6.8 11.8l0.6 0.8c-2.3 3.4-4.8 6.7-7.8 9.8l-0.6-0.9c-2.9 3.1-6 5.9-9.2 8.2v1.5c-1.6 1.1-2.9 1.9-4.5 2.8-1.6 0.9-3.1 1.8-4.5 2.4v-1.5c-3.3 1.5-6.5 2.3-9.4 2.6l-0.6 1.5c-2.8 0.3-5.3-0.1-7.9-0.6l0.7-1.7c-2.6-0.8-4.9-2.1-6.8-3.9l-1.1 1.4c-1.8-1.7-3.4-3.9-4.6-6.4l1.1-1.4c-1.2-2.6-2-5.7-2.4-9.1l-1.3 0.7c-0.2-1.7-0.4-3.1-0.4-4.9 0-1.9 0.2-3.8 0.4-5.5zm36.8 15.7c15-8.7 27.5-30.3 27.4-47.5-0.1-17.5-12.6-24.5-27.6-15.8-15.2 8.8-27.5 30.1-27.4 47.5 0 17.3 12.3 24.5 27.6 15.8z"/>
					<path id="&lt;Path&gt;" class="s19" d="m594.4 242.3l0.7 1-19.4-11.3-0.7-1z"/>
				</g>
			</g>
			<path id="&lt;Path&gt;" class="s8" d="m354.6 432.5c20.7-79.5 7.7-40-78.7-87l-18.9 32.1z"/>
			<g id="&lt;Group&gt;">
				<path id="&lt;Path&gt;" class="s9" d="m350.5 429.9l-19.4-11.3-1-0.1 19.5 11.3z"/>
				<path id="&lt;Path&gt;" class="s10" d="m277.6 455.2c12.4 7.1 25.8-4.4 35.4-20 9.7-15.8 15.5-35.6 6.4-44.7q-0.2-0.2-0.5-0.5c-0.7-0.7-1.5-1.3-2.3-1.8l20.3 10.5c17.2 9.7 4.7 43.7-4.6 55.7-9.9 12.8-25.4 20-35.8 14z"/>
				<g id="&lt;Group&gt;">
					<path id="&lt;Path&gt;" class="s11" d="m310.9 451.7c0.2-0.1 0.4-0.2 0.7-0.3 0.2-0.2 0.5-0.3 0.8-0.5 0-0.1 0-0.1 0-0.1q0.4-0.3 0.9-0.7c0 0 0.1 0 0.2-0.1 0.2-0.2 0.6-0.5 0.9-0.8 0.1-0.1 0.2-0.2 0.3-0.3q0.4-0.4 0.9-0.8 0.1-0.1 0.2-0.3c0.4-0.3 0.8-0.7 1.1-1.1q0.2-0.2 0.2-0.3c0.4-0.3 0.7-0.7 1.1-1.1q0.1-0.1 0.2-0.3c0.4-0.5 0.7-0.9 1.1-1.4q0.2-0.1 0.2-0.3 0.6-0.7 1.2-1.5 0.7-0.9 1.3-1.9 0.7-1 1.2-1.9 0.2-0.4 0.4-0.7 0.1-0.1 0.2-0.3 0.5-0.9 1-1.8 0-0.1 0.1-0.3c0.4-0.6 0.7-1.3 0.9-1.9 0 0 0 0 0.1-0.1q0.4-0.9 0.7-1.7c0 0 0-0.1 0-0.1q0.3-0.8 0.5-1.4 0 0 0 0 0.2-0.7 0.2-1.1 0-0.3-0.1-0.4l5.5 3.2c0 0 0.1 0 0.1 0.1 0 0 0 0 0 0q0 0 0 0 0 0 0 0 0 0.1 0 0.1 0.1 0 0.1 0 0 0 0 0 0 0.1 0 0.1 0 0 0 0 0 0.1 0 0.1 0 0 0 0 0 0.1 0 0.1 0 0 0 0 0 0 0 0.1 0 0-0.1 0.1 0 0 0 0.1 0 0 0 0.1 0 0.1 0 0.2c-0.1 0.1-0.1 0.1-0.1 0.2 0 0 0 0.1 0 0.2q0 0 0 0 0 0 0 0-0.1 0.2-0.1 0.4-0.1 0.1-0.2 0.3c0 0.2-0.1 0.4-0.1 0.5-0.1 0.1-0.1 0.2-0.1 0.2 0 0.1 0 0.1 0 0.1-0.1 0.1-0.1 0.2-0.1 0.3q-0.1 0.3-0.3 0.6-0.1 0.3-0.3 0.7c0 0.1-0.1 0.1-0.1 0.2 0 0 0 0 0 0.1q-0.2 0.3-0.3 0.5-0.2 0.5-0.4 1c-0.1 0.1-0.2 0.2-0.2 0.3q-0.1 0.2-0.2 0.3-0.1 0.3-0.2 0.6c-0.3 0.4-0.5 0.8-0.7 1.2q-0.1 0.2-0.2 0.4c-0.1 0-0.1 0.1-0.1 0.1-0.1 0.2-0.2 0.3-0.3 0.5q-0.6 0.9-1.2 1.9c-0.1 0.1-0.1 0.2-0.2 0.3-0.3 0.5-0.6 0.9-1 1.4 0 0.1-0.1 0.2-0.2 0.2q-0.3 0.4-0.6 0.9c-0.1 0.2-0.3 0.4-0.5 0.6q-0.1 0.2-0.2 0.3-0.1 0.1-0.1 0.2-0.4 0.5-0.8 1c-0.1 0.1-0.2 0.2-0.2 0.2q-0.2 0.2-0.3 0.3-0.2 0.3-0.4 0.5-0.3 0.3-0.6 0.7c-0.1 0-0.1 0.1-0.2 0.2q0 0-0.1 0.1c-0.3 0.3-0.6 0.6-0.9 0.9q0 0.1-0.1 0.2c-0.1 0.1-0.2 0.1-0.3 0.2q-0.2 0.3-0.5 0.5-0.2 0.2-0.4 0.4c0 0-0.1 0.1-0.2 0.2-0.1 0.1-0.1 0.1-0.2 0.2q-0.3 0.3-0.7 0.6-0.1 0-0.1 0.1-0.1 0-0.1 0.1-0.2 0.1-0.4 0.3-0.2 0.1-0.4 0.3c-0.1 0-0.1 0-0.1 0 0 0.1 0 0.1 0 0.1q-0.2 0.1-0.3 0.2c-0.1 0-0.2 0.1-0.3 0.1q-0.1 0.1-0.2 0.2 0 0 0 0c-0.1 0-0.1 0.1-0.2 0.1q0 0-0.1 0.1-0.1 0-0.1 0-0.1 0-0.1 0.1-0.1 0-0.1 0c-0.1 0-0.1 0-0.1 0q0 0 0 0c0 0 0 0 0 0-0.1 0-0.1 0-0.1 0 0 0-0.1 0-0.1 0 0 0 0 0 0 0.1 0 0-0.1 0-0.1-0.1 0 0 0 0 0 0 0 0-0.1 0-0.1 0q0 0 0 0l-5.6-3.2c0.1 0 0.3 0 0.4 0z"/>
					<path id="&lt;Path&gt;" class="s12" d="m321.4 421.6q0.1 0 0.2 0.1 0.6 0.1 1.3 0.2c0.1 0 0.1 0 0.2 0q0.7 0 1.5-0.1c0.1 0 0.1 0 0.2 0q0.9-0.1 1.9-0.3l2.4-0.5 5.5 3.2-2.3 0.5q-0.4 0.1-0.7 0.2c-0.3 0-0.6 0.1-0.9 0.1-0.1 0-0.2 0-0.3 0-0.1 0-0.1 0.1-0.2 0.1q-0.2 0-0.4 0-0.4 0-0.8 0-0.2 0-0.4 0c0 0-0.1 0-0.1 0q-0.2 0-0.2 0-0.5 0-0.8-0.1c-0.1 0-0.2-0.1-0.3-0.1q-0.1 0-0.2-0.1-0.2 0-0.3 0-0.5-0.2-0.9-0.4l-5.6-3.3c0.4 0.2 0.8 0.4 1.2 0.5z"/>
					<path id="&lt;Path&gt;" class="s13" d="m307.6 438.1q0.2-0.1 0.5-0.2c0.2-0.1 0.3-0.2 0.4-0.4 0.2-0.1 0.3-0.3 0.4-0.5 0.1-0.2 0.2-0.4 0.3-0.6q0.1-0.3 0.1-0.6 0-0.3-0.1-0.4 0-0.1 0-0.1-0.1-0.1-0.2-0.2l5.5 3.2q0.1 0.1 0.2 0.2 0 0 0 0.1c0 0 0.1 0 0.1 0q0 0 0 0 0 0 0 0 0 0.1 0 0.1 0 0 0 0 0 0.1 0 0.1 0 0 0 0.1 0 0 0 0 0 0.1 0 0.1 0 0 0 0.1 0 0 0 0 0 0 0 0.1 0 0 0 0 0 0 0 0 0 0.1 0 0.1 0 0 0 0 0 0.1 0 0.1 0 0 0 0.1 0 0 0 0 0 0 0 0.1c0 0-0.1 0-0.1 0q0 0 0 0 0 0 0 0 0 0.1 0 0.1 0 0 0 0.1 0 0-0.1 0 0 0.1 0 0.1 0 0 0 0.1c0 0 0 0 0 0 0 0.1-0.1 0.1-0.1 0.1q0 0.1 0 0.1 0 0 0 0-0.1 0.1-0.2 0.2 0 0.1 0 0.1c0 0.1-0.1 0.1-0.1 0.1q0 0 0 0.1c-0.1 0-0.1 0-0.1 0q0 0 0 0 0 0 0 0c0 0.1 0 0.1 0 0.1 0 0-0.1 0-0.1 0 0 0 0 0.1 0 0.1-0.1 0-0.1 0-0.1 0q0 0 0 0.1 0 0-0.1 0c0 0 0 0 0 0 0 0-0.1 0-0.1 0.1 0 0 0 0 0 0 0 0 0 0 0 0q0 0 0 0-0.1 0-0.1 0c0 0.1 0 0.1-0.1 0.1 0 0 0 0 0 0 0 0 0 0-0.1 0 0 0 0 0 0 0 0 0-0.1 0-0.1 0.1 0 0 0 0 0 0q0 0-0.1 0c0 0 0 0 0 0h-0.1q0 0 0 0c0 0 0 0 0 0 0 0-0.1 0-0.1 0 0 0 0 0 0 0-0.1 0-0.1 0-0.1 0q0-0.1-0.1-0.1l-5.6-3.2q0.2 0.1 0.4 0.1z"/>
					<path id="&lt;Path&gt;" class="s13" d="m314.6 425.9q0.3 0 0.5-0.2 0.3-0.1 0.5-0.4 0.2-0.2 0.3-0.5 0 0 0 0 0.2-0.3 0.3-0.6 0 0 0 0 0.1-0.3 0.1-0.5 0-0.3-0.1-0.5-0.1-0.2-0.2-0.3l5.5 3.2q0.2 0.1 0.2 0.2 0.1 0 0 0.1 0.1 0 0.1 0 0 0 0 0 0 0 0 0c0 0.1 0 0.1 0 0.1q0 0 0 0.1 0 0 0 0 0.1 0 0.1 0.1 0 0 0 0.1 0 0 0 0 0 0.1 0 0.1 0 0 0 0 0 0 0 0 0 0.1 0 0.1 0 0 0 0 0 0 0 0.1 0 0 0 0-0.1 0-0.1 0.1 0 0 0 0 0 0.1 0 0.1c0 0 0 0 0 0q0 0.1 0 0.1 0 0 0 0c0 0-0.1 0-0.1 0q0 0.1 0 0.1 0 0 0 0c0 0.1 0 0.1 0 0.1q0 0 0 0.1 0 0 0 0c0 0-0.1 0.1-0.1 0.1 0 0 0 0 0 0.1 0 0-0.1 0-0.1 0 0 0.1 0 0.1 0 0.1q0 0 0 0c0 0.1 0 0.1 0 0.1q-0.1 0.1-0.1 0.2-0.1 0-0.1 0.1 0 0-0.1 0c0 0.1 0 0.1 0 0.1q-0.1 0 0 0-0.1 0.1-0.1 0.1 0 0 0 0 0 0 0 0 0 0-0.1 0.1c0 0 0 0 0 0 0 0 0 0 0 0q-0.1 0.1-0.1 0.1c0 0 0 0-0.1 0q0.1 0 0 0.1 0 0 0 0 0 0-0.1 0 0 0 0 0 0 0 0 0c0 0-0.1 0.1-0.1 0.1 0 0 0 0 0 0q0 0-0.1 0c0 0 0 0 0 0-0.1 0-0.1 0.1-0.1 0.1q0 0 0 0c0 0-0.1 0-0.1 0 0 0 0 0 0 0q-0.1 0-0.1 0 0 0 0 0 0 0 0 0h-0.1c-0.1 0 0 0-0.1 0q0 0-0.1 0 0 0 0-0.1l-5.6-3.2q0.2 0.1 0.3 0.1z"/>
					<path id="&lt;Path&gt;" class="s14" d="m305.5 448q-0.2-1.4-0.5-2.4 0-0.1-0.1-0.1c-0.2-0.7-0.5-1.3-0.8-1.8 0 0-0.1-0.1-0.1-0.2-0.4-0.4-0.8-0.8-1.2-1l5.6 3.2q0.6 0.4 1.1 1.1c0.1 0 0.1 0.1 0.2 0.2q0 0 0.1 0.1 0.2 0.3 0.4 0.7 0.1 0.3 0.2 0.6 0 0.1 0.1 0.3c0 0 0 0.1 0 0.1q0.1 0.1 0.1 0.2 0.1 0.3 0.2 0.6 0 0.4 0.1 0.7 0.1 0.3 0.1 0.7 0 0.1 0 0.3 0.1 0 0.1 0.1c0 0.1 0 0.2 0 0.4 0 0.2 0 0.5 0 0.8 0 0.3 0.1 0.6 0.1 0.9q0 0.5-0.1 1 0 0 0 0v2.3 0.7l-5.5-3.3v-0.6-2.3q0-1.8-0.1-3.2 0 0 0-0.1z"/>
					<path id="&lt;Path&gt;" class="s14" d="m329.8 419.3q0 0 0 0 0.1-0.6 0.2-1.4 0 0 0 0 0-0.8 0.1-1.7 0-0.1 0-0.2 0-0.8 0-1.7 0-0.1-0.1-0.2c0-0.6 0-1.2-0.1-1.9q0 0 0 0-0.1-0.9-0.3-1.8c0-0.1 0-0.1-0.1-0.2q-0.2-1-0.5-1.8c-0.2-0.8-0.5-1.4-0.8-2.1q-0.2-0.3-0.3-0.6c-0.2-0.3-0.5-0.7-0.7-1q-0.4-0.7-0.9-1.2c-0.2-0.2-0.3-0.4-0.5-0.5-0.4-0.5-0.9-0.9-1.3-1.1l5.6 3.2c0.4 0.2 0.9 0.6 1.3 1.1 0.2 0.1 0.3 0.3 0.4 0.5q0.5 0.5 1 1.2c0 0.1 0.1 0.2 0.2 0.3 0.1 0.2 0.3 0.5 0.4 0.8q0.2 0.3 0.3 0.5 0.1 0.2 0.2 0.3 0.3 0.6 0.5 1.2c0.1 0.2 0.1 0.4 0.2 0.6q0.1 0.3 0.2 0.6 0.1 0.5 0.2 1 0.1 0.1 0.1 0.2c0 0.1 0 0.2 0.1 0.3q0 0.3 0.1 0.6 0.1 0.6 0.1 1.2 0 0 0 0 0 0 0 0 0.2 0.6 0.2 1.1 0 0.4 0 0.7 0 0.1 0 0.3 0 0.1 0 0.2c0 0.3 0.1 0.6 0.1 1q0 0.2 0 0.5 0 0.1-0.1 0.2 0 0.1 0 0.2 0 0.4 0 0.8c0 0.2 0 0.4 0 0.6q0 0 0 0 0 0 0 0c0 0.2-0.1 0.4-0.1 0.5 0 0.2 0 0.3-0.1 0.5 0 0.1 0 0.2 0 0.3 0 0 0 0.1 0 0.1q0 0.1 0 0.1c0 0-0.1 0-0.1 0.1 0 0.1 0 0.1 0 0.2 0 0.1-0.1 0.1-0.1 0.2q0 0.1 0 0.1-0.1 0.1 0 0.2-0.1 0-0.1 0.1 0 0 0 0.1 0 0-0.1 0 0 0 0 0 0 0.1 0 0.1 0 0 0 0.1-0.1 0 0 0-0.1 0.2-0.2 0.2 0 0.1 0 0.1 0 0 0 0 0 0 0 0 0 0 0 0 0 0 0 0-0.1 0.1-0.1 0.1 0 0 0 0c0 0 0 0 0 0q0 0 0 0c0 0-0.1 0-0.1 0q0 0 0 0l-5.5-3.2q0.2-0.2 0.4-0.6 0.2-0.4 0.3-1.1z"/>
					<path id="&lt;Path&gt;" class="s12" d="m292.4 455.3q0.9 0.5 1.8 0.9c0.4 0.1 0.8 0.2 1.2 0.3q1.2 0.3 2.4 0.3 0.1 0 0.1 0 1.3 0.1 2.5-0.1 0 0 0.1 0c0.8-0.2 1.5-0.3 2.2-0.5 0-0.1 0-0.1 0-0.1q1-0.3 1.8-0.7c0.3-0.2 0.6-0.4 0.8-0.6q0 0 0 0 0.3-0.3 0.3-0.6l5.5 3.3q0 0 0 0 0 0 0 0 0 0 0 0 0 0 0 0 0 0 0 0 0 0.1 0 0.1 0 0 0 0 0 0 0 0c0 0 0 0 0 0q0 0 0 0 0 0 0 0.1 0 0 0 0 0 0 0 0-0.1 0 0 0 0 0 0 0.1-0.1 0-0.1 0 0 0 0 0.1c0 0-0.1 0-0.1 0q0 0 0 0 0 0 0 0.1 0 0 0 0c0 0-0.1 0-0.1 0q0 0 0 0c0 0.1 0 0.1 0 0.1-0.1 0-0.1 0-0.1 0 0 0.1 0 0.1 0 0.1q-0.1 0-0.1 0.1-0.1 0-0.1 0-0.1 0.1-0.2 0.1 0 0.1-0.1 0.1 0 0-0.1 0.1 0 0-0.1 0 0 0.1-0.1 0.1-0.1 0.1-0.3 0.1-0.1 0.1-0.2 0.2-0.2 0-0.4 0.1-0.2 0.1-0.4 0.2c-0.1 0-0.2 0-0.3 0.1 0 0 0 0-0.1 0q-0.1 0-0.2 0c-0.2 0.1-0.4 0.2-0.6 0.2-0.3 0.1-0.5 0.1-0.8 0.2-0.2 0-0.4 0.1-0.6 0.1q0 0-0.1 0-0.1 0-0.2 0-0.5 0.1-1 0.2-0.5 0-1.1 0 0 0-0.1 0-0.1 0-0.1 0-0.4 0-0.9-0.1c-0.4 0-0.7-0.1-1.1-0.1q-0.2-0.1-0.5-0.1-0.4-0.2-0.8-0.3-0.2-0.1-0.3-0.1-1-0.4-1.9-0.9z"/>
					<path id="&lt;Path&gt;" class="s13" d="m300.5 434q0.2 0 0.5-0.1 0.2-0.2 0.4-0.4 0 0 0 0 0.3-0.2 0.4-0.5 0 0 0 0c0.1-0.2 0.2-0.4 0.3-0.6q0 0 0 0 0.1-0.3 0.1-0.6 0-0.3-0.1-0.5-0.1-0.2-0.2-0.3l5.5 3.3c0.1 0 0.1 0.1 0.2 0.2q0 0 0 0 0 0 0.1 0 0 0.1 0 0.1 0 0 0 0.1 0 0 0 0 0 0 0 0.1 0 0 0 0 0.1 0.1 0 0.1 0 0 0 0.1 0 0 0 0 0 0 0 0.1 0 0 0 0 0 0 0 0 0 0.1 0 0.1 0 0 0 0 0 0.1 0 0.1 0 0 0 0 0 0.1 0 0.1 0 0 0 0 0 0.1 0 0.1 0 0 0 0.1c0 0-0.1 0-0.1 0q0 0 0 0 0 0 0 0 0 0.1 0 0.1 0 0 0 0.1 0 0-0.1 0 0 0 0 0.1 0 0 0 0c0 0.1 0 0.1 0 0.1 0 0-0.1 0.1-0.1 0.1 0 0 0 0.1 0 0.1q0 0 0 0-0.1 0 0 0-0.1 0.1-0.2 0.2 0 0.1 0 0.1c0 0-0.1 0.1-0.1 0.1q0 0 0 0.1c-0.1 0-0.1 0-0.1 0q0 0 0 0 0 0 0 0c0 0 0 0 0 0.1 0 0-0.1 0-0.1 0 0 0 0 0 0 0.1q-0.1 0-0.1 0c0 0 0 0 0 0q0 0.1-0.1 0.1 0 0 0 0c0 0-0.1 0-0.1 0 0 0 0 0.1 0 0.1 0 0 0 0 0 0q0 0 0 0c0 0-0.1 0-0.1 0 0 0 0 0-0.1 0.1 0 0 0 0 0 0q0 0 0 0c-0.1 0-0.1 0-0.1 0 0 0-0.1 0-0.1 0 0 0 0 0 0 0q0 0.1 0 0.1c-0.1 0-0.1 0-0.1 0 0 0-0.1 0-0.1 0q0 0 0 0c-0.1 0-0.1 0-0.1 0-0.1 0 0-0.1-0.1-0.1 0 0 0 0-0.1 0l-5.5-3.2c0.1 0 0.2 0.1 0.3 0z"/>
					<path id="&lt;Path&gt;" class="s13" d="m307.5 421.8q0 0 0 0 0.3 0 0.6-0.2 0.1-0.1 0.4-0.3 0.2-0.3 0.3-0.5 0 0 0 0 0.2-0.3 0.3-0.6 0 0 0 0 0.1-0.3 0.1-0.6 0-0.3-0.1-0.5 0 0 0 0 0-0.2-0.2-0.3l5.6 3.3c0 0 0.1 0.1 0.1 0.2q0.1 0 0.1 0 0 0 0 0 0 0.1 0 0.1 0 0 0 0.1 0.1 0 0.1 0 0 0 0 0.1 0 0 0 0 0 0.1 0 0.1 0 0 0 0.1 0 0 0 0 0 0 0 0 0 0.1 0 0.1 0 0 0 0 0 0 0 0.1 0 0 0 0 0 0 0 0.1 0 0 0 0 0 0 0 0.1c0 0-0.1 0-0.1 0q0 0.1 0 0.1 0 0 0 0 0 0.1 0 0.1 0 0 0 0 0 0 0 0 0 0-0.1 0.1 0 0 0 0c0 0.1 0 0.1 0 0.1q0 0 0 0.1 0 0 0 0-0.1 0.1-0.1 0.1c0 0 0 0 0 0.1-0.1 0 0 0-0.1 0.1q0 0 0 0 0 0.1-0.1 0.2 0 0-0.1 0.1c0 0 0 0 0 0.1-0.1 0-0.1 0-0.1 0q0 0.1 0 0.1 0 0 0 0-0.1 0-0.1 0c0 0.1 0 0.1 0 0.1q-0.1 0-0.1 0c0 0.1 0 0.1 0 0.1q0 0-0.1 0c0 0 0 0 0 0.1 0 0-0.1 0-0.1 0 0 0 0 0 0 0 0 0 0 0 0 0 0 0.1-0.1 0.1-0.1 0.1q0 0 0 0-0.1 0-0.1 0c0 0 0 0.1 0 0.1-0.1 0-0.1 0-0.1 0 0 0-0.1 0-0.1 0q0 0 0 0c0 0 0 0-0.1 0 0 0 0 0 0 0 0 0.1-0.1 0.1-0.1 0.1 0 0 0 0 0 0q0 0 0 0 0 0-0.1 0c0 0 0 0 0 0-0.1 0 0 0-0.1 0q0-0.1-0.1-0.1 0 0 0 0l-5.6-3.2q0.2 0 0.3 0z"/>
					<path id="&lt;Path&gt;" class="s11" d="m302.9 416.8q0.1 0.1 0.2 0.1 0.7 0.2 1.5 0.2c0 0 0.1 0 0.1 0q0.8-0.1 1.6-0.3 0 0 0 0 0.9-0.3 1.7-0.8c0.8-0.4 1.6-1 2.3-1.7q0 0 0-0.1 1.2-1 2.3-2.5 0 0 0 0c0.7-1 1.4-2.1 2.1-3.3q0.1-0.1 0.1-0.2 1.1-1.8 2-4l1.6-3.4q0-0.3-0.3-0.5l5.6 3.2q0.1 0.1 0.2 0.2c0 0 0 0.1 0 0.1q0 0 0.1 0 0 0 0 0 0 0.1 0 0.1 0 0 0 0 0 0 0 0 0 0 0 0 0 0.1 0 0.1 0 0 0 0 0 0 0 0l-1.6 3.4q0 0.1-0.1 0.2-0.2 0.5-0.5 1-0.2 0.6-0.4 1c-0.2 0.4-0.4 0.7-0.6 1.1-0.1 0.2-0.3 0.5-0.4 0.7q-0.1 0.1-0.1 0.2-0.1 0.2-0.2 0.4-0.6 1-1.2 1.9-0.3 0.5-0.7 0.9 0 0.1 0 0.1 0 0 0 0-0.2 0.3-0.4 0.5c-0.1 0.2-0.3 0.3-0.4 0.5q-0.2 0.2-0.3 0.4-0.2 0.2-0.4 0.4-0.2 0.2-0.4 0.4-0.1 0.1-0.3 0.3c-0.1 0-0.1 0.1-0.1 0.1q0 0 0 0-0.1 0.1-0.3 0.2-0.1 0.2-0.3 0.3-0.2 0.2-0.4 0.3c-0.1 0.1-0.2 0.2-0.3 0.3q-0.2 0.1-0.3 0.2-0.2 0.1-0.3 0.2c-0.1 0.1-0.2 0.1-0.3 0.2-0.1 0-0.1 0-0.1 0q-0.1 0.1-0.3 0.2c0 0-0.2 0.1-0.2 0.1-0.2 0.1-0.2 0.1-0.3 0.2-0.1 0-0.2 0.1-0.3 0.1-0.1 0-0.2 0.1-0.3 0.1q-0.1 0.1-0.3 0.1 0 0 0 0c0 0-0.1 0-0.1 0-0.1 0-0.1 0.1-0.3 0.1q-0.1 0-0.3 0.1-0.2 0-0.4 0c-0.1 0-0.3 0.1-0.4 0.1-0.1 0-0.1 0-0.2 0q0 0 0 0c-0.1 0-0.1 0-0.2 0q-0.2 0-0.5 0-0.3-0.1-0.6-0.1-0.1-0.1-0.2-0.1-0.2 0-0.2 0-0.3-0.1-0.4-0.1-0.6-0.2-1.2-0.6l-5.5-3.2q0.7 0.4 1.5 0.6z"/>
					<path id="&lt;Path&gt;" class="s15" d="m286.9 445.2l0.6-0.6 1.9-1.6q1.7-1.6 3.1-3.1c0-0.1 0-0.1 0-0.1q1.4-1.6 2.4-3.1c0-0.1 0-0.1 0.1-0.2 0.6-1 1.2-2 1.7-3 0 0 0 0 0 0q0.7-1.6 1.1-3.1 0 0 0 0 0.3-1.5 0.3-2.9 0 0 0 0c0-0.9-0.1-1.8-0.3-2.7q0 0 0 0-0.3-1.3-1.1-2.4c0 0 0-0.1 0-0.1-0.5-0.7-1.1-1.4-1.8-2.1l-1.6-1.3 5.5 3.2 1.6 1.3q1.1 1 1.8 2.1 0.1 0 0.1 0.1 0 0 0 0 0.2 0.4 0.5 0.9 0.2 0.3 0.3 0.7 0.1 0.3 0.2 0.6 0 0.1 0 0.2 0.1 0 0.1 0c0 0.2 0 0.3 0 0.4q0.1 0.2 0.2 0.5c0 0.1 0 0.3 0 0.4q0.1 0.2 0 0.5 0.1 0.2 0.1 0.4 0 0.2 0 0.4 0 0 0 0.1 0 0 0 0 0 0.2 0 0.3 0 0.2 0 0.4c0 0.1-0.1 0.2-0.1 0.3 0 0.2 0 0.3 0 0.4 0 0.2 0 0.3 0 0.4q-0.1 0.2-0.1 0.4-0.1 0.2-0.1 0.4-0.1 0.2-0.1 0.3 0 0 0 0.1 0 0 0 0 0 0.2-0.1 0.4 0 0.2-0.1 0.4-0.1 0.2-0.2 0.4 0 0.2-0.1 0.4c0 0.2-0.1 0.3-0.1 0.4-0.1 0.2-0.2 0.3-0.2 0.4 0 0.2-0.1 0.3-0.2 0.4q0 0.1 0 0.2c0 0-0.1 0-0.1 0 0 0.1 0 0.2-0.1 0.3q-0.1 0.2-0.2 0.4-0.1 0.3-0.3 0.6-0.2 0.5-0.5 0.9-0.3 0.5-0.6 0.9c0 0 0 0.1-0.1 0.1q0 0.1-0.1 0.2c-0.2 0.4-0.5 0.7-0.7 1.1q-0.3 0.4-0.6 0.7-0.3 0.4-0.6 0.7-0.1 0.2-0.3 0.4c0 0-0.1 0.1-0.1 0.1q-0.1 0.1-0.2 0.2-0.3 0.4-0.7 0.8-0.3 0.4-0.7 0.8-0.4 0.4-0.9 0.9c-0.1 0.1-0.3 0.3-0.5 0.4l-2 1.6-0.6 0.6q0 0 0 0 0 0 0 0 0 0 0 0 0 0 0 0 0 0 0 0 0 0 0 0-0.1 0-0.1 0v0.1q0 0 0 0 0 0 0 0-0.1 0-0.1 0 0-0.1 0-0.1 0 0 0 0-0.1 0-0.1 0l-5.5-3.2c0.1 0 0.2 0 0.3 0z"/>
					<path id="&lt;Path&gt;" class="s16" d="m281 442.8c0-0.5 0-0.9 0.1-1.4 0-0.1 0-0.3 0-0.5q0-0.1 0.1-0.3-0.1-0.2 0-0.5 0.1-0.7 0.1-1.4c0.1-0.4 0.1-0.8 0.2-1.2q0-0.1 0-0.1 0 0 0 0 0.1-0.7 0.3-1.4 0.1-0.7 0.3-1.5c0-0.1 0-0.2 0-0.3 0.1-0.1 0.1-0.2 0.1-0.3 0.1-0.3 0.1-0.5 0.2-0.8 0.1-0.5 0.3-0.9 0.4-1.4q0.1-0.5 0.2-0.9 0.1-0.1 0.1-0.3 0.1-0.1 0.1-0.3 0.2-0.7 0.4-1.3 0.3-0.7 0.5-1.4c0-0.1 0.1-0.1 0.1-0.2 0 0 0-0.1 0-0.1q0.2-0.5 0.4-1c0.2-0.5 0.3-0.9 0.5-1.3q0.2-0.4 0.4-0.9 0-0.1 0.1-0.1 0-0.2 0.1-0.3 0.2-0.7 0.6-1.3 0.3-0.7 0.7-1.4 0-0.1 0-0.2 0.1-0.1 0.2-0.2 0.2-0.6 0.6-1.2c0.2-0.5 0.5-0.9 0.7-1.4q0.2-0.3 0.4-0.6 0.1-0.2 0.2-0.3c0.2-0.5 0.5-0.8 0.7-1.3q0.6-0.8 1.1-1.6 0.1-0.2 0.2-0.3 0.8-1.2 1.7-2.4-0.1 0 0 0c0-0.1 0-0.1 0-0.1q0.6-0.7 1.1-1.4 0.5-0.7 1.1-1.3c0 0 0 0 0-0.1 0 0 0 0 0 0q0.5-0.6 1-1.1 0.5-0.6 1.1-1.2 0.1-0.1 0.2-0.2 0.1-0.2 0.2-0.3 0.3-0.3 0.7-0.6 0.5-0.6 1.1-1.2 0.2-0.2 0.4-0.4c0.1-0.1 0.2-0.2 0.3-0.3q0.2-0.2 0.5-0.4c0.4-0.3 0.8-0.7 1.2-1 0.2-0.2 0.4-0.4 0.6-0.6q0.1-0.1 0.3-0.2 0.1-0.1 0.3-0.2 0.6-0.5 1.3-1 0.4-0.3 0.9-0.7 0.1 0 0.1 0 0.1-0.1 0.1-0.1 0.6-0.4 1.2-0.8 0.6-0.4 1.2-0.7c0.1-0.1 0.2-0.1 0.3-0.2 0.3-0.2 0.6-0.3 0.8-0.5 0.4-0.2 0.8-0.4 1.2-0.6q0.3-0.1 0.7-0.3c0 0 0.1 0 0.2-0.1q0 0 0.2-0.1 0.5-0.2 1.1-0.4c0.3-0.2 0.7-0.3 1.1-0.5 0 0 0.1 0 0.1 0q0.1 0 0.2-0.1c0.2 0 0.5-0.1 0.7-0.2q0.6-0.2 1.2-0.3 0.2-0.1 0.4-0.1 0.2-0.1 0.3-0.1 0.2 0 0.4-0.1 0.6-0.1 1.2-0.2 0.3 0 0.6 0c0.1 0 0.2 0 0.3-0.1 0.1 0 0.2 0 0.3 0q0.6 0 1.2 0 0.3 0 0.6 0c0.1 0 0.2 0 0.4 0q0.2 0 0.5 0 0.7 0.1 1.5 0.3 0 0 0 0c0.1 0 0.2 0 0.2 0q0.9 0.2 1.7 0.5 0.1 0 0.1 0c0.7 0.3 1.4 0.6 2.1 1l5.5 3.2c-0.6-0.4-1.3-0.7-2-0.9q-0.9-0.3-1.8-0.5c-0.1-0.1-0.2-0.1-0.2-0.1q-1-0.2-2-0.3c-0.2 0-0.3 0-0.5 0q-1 0-2 0.1c-0.1 0-0.2 0-0.3 0q-1.1 0.1-2.2 0.3c-0.1 0.1-0.2 0.1-0.3 0.1-0.7 0.2-1.6 0.4-2.4 0.7q-0.1 0-0.1 0c-0.9 0.3-1.7 0.7-2.6 1.1q-0.1 0-0.2 0.1-1.3 0.6-2.7 1.3-1.4 0.8-2.7 1.8-0.1 0-0.1 0.1-1.3 0.9-2.5 1.9-0.2 0.1-0.3 0.2-1.2 0.9-2.3 2c-0.1 0.1-0.2 0.2-0.3 0.2q-1.1 1.1-2.2 2.2-0.1 0.2-0.2 0.3-1.2 1.2-2.3 2.5 0 0 0 0.1-1.1 1.3-2.2 2.7 0 0.1-0.1 0.1-0.9 1.3-1.8 2.7-0.6 0.8-1.1 1.7-0.5 0.7-0.9 1.5-0.2 0.3-0.4 0.7-0.7 1.2-1.4 2.5 0 0.1-0.1 0.3c-0.5 1-1 2-1.5 3.1q0 0.1 0 0.2c-0.5 1-0.9 2.1-1.3 3.1 0 0.1 0 0.1-0.1 0.2q-0.6 1.6-1 3.2-0.1 0.1-0.1 0.2-0.4 1.6-0.8 3.1c-0.1 0.1-0.1 0.2-0.1 0.3q-0.3 1.6-0.6 3.2 0 0.1 0 0.1-0.3 1.6-0.4 3.2 0 0.1 0 0.2-0.1 1.6-0.1 3.2 0 1.5 0.1 2.9 0 0.2 0 0.3 0.1 1.3 0.4 2.5 0 0.2 0.1 0.4 0.2 1.1 0.5 2.2 0.1 0.2 0.2 0.4 0.3 1 0.7 1.9 0.1 0.1 0.1 0.3 0.5 1 1.1 2c0.5 0.8 1.2 1.6 1.9 2.3q0.2 0.2 0.5 0.5c0.7 0.6 1.4 1.2 2.3 1.7l-5.6-3.2c-0.8-0.5-1.6-1.1-2.3-1.8q-0.2-0.2-0.5-0.5c-0.7-0.7-1.3-1.4-1.9-2.3q0 0 0 0c-0.4-0.6-0.7-1.2-1-1.8q0-0.1 0-0.1-0.1-0.2-0.1-0.3-0.3-0.6-0.6-1.2-0.1-0.3-0.2-0.7-0.1-0.2-0.1-0.4-0.1-0.2-0.1-0.3-0.2-0.7-0.4-1.4 0-0.3-0.1-0.6 0-0.1-0.1-0.3 0-0.2-0.1-0.5c0-0.4-0.1-0.8-0.2-1.3 0-0.2 0-0.5 0-0.7q0-0.1-0.1-0.3 0-0.1 0-0.3 0-0.6-0.1-1.3 0-0.6 0-1.3 0 0 0-0.1 0-0.6 0-1.2z"/>
					<path id="&lt;Compound Path&gt;" fill-rule="evenodd" class="s17" d="m313.5 400.5c15-8.6 27.1-1.8 27.2 15.5 0.1 17.1-12.1 38.1-27 46.8-15.1 8.7-27.1 1.6-27.1-15.5-0.1-17.4 11.8-38 26.9-46.8zm-3.5 58.1c0.7-0.4 1.1-0.8 1.1-1.1v-3c0.3-8.5-3.1-11.2-8.7-8-1.7 1-3.6 2.5-5.6 4.6l-2.6 2.6c-0.8 1.3 2.4 4.9 6.7 6.1 3.3 0.8 7.2-0.1 9.1-1.2zm3.6-33.7c0.6-0.4 1.2-1.4 1.2-2.1 0-0.9-0.6-0.9-1.2-0.6q-1.2 0.7-1.2 2c0 0.7 0.4 1.1 1.2 0.7zm0.1 16.2c0.6-0.3 1.1-1.3 1.1-2 0-0.9-0.6-1-1.1-0.7q-1.2 0.7-1.2 2c0 0.7 0.4 1.2 1.2 0.7zm-7.1-4c0.6-0.4 1.1-1.4 1.1-2 0-0.9-0.5-1.1-1.1-0.7q-1.2 0.7-1.2 2c0 0.7 0.4 1.1 1.2 0.7zm15.8-29.7l1.6-3.4c0-1.4-5.4-0.8-10.7 2.3-5.2 3-10.5 8.6-10.1 9.7l0.4 0.2 1.1 1.4c2.7 3 5.8 3.4 8.9 1.6 3.1-1.7 6.2-5.8 8.8-11.8zm-0.5 19.5c0-0.9-0.6-1-1.2-0.7-0.8 0.5-1.2 1.1-1.2 2 0 0.7 0.4 1.2 1.2 0.7 0.6-0.3 1.2-1.3 1.2-2zm-5.9 28q0.3 0.2 1.2-0.3c1.9-1.1 5.9-4.9 9.2-9.6 4.5-5.9 7.5-13.5 6.5-13.6l-0.6 0.1-1.8 0.3c-2 0.3-3.9 1-5.6 2-5.6 3.2-9 9.9-8.9 18.1zm12.6-50q-0.2 0.1-0.3 0.3l-0.4 0.9-1.2 2.5c-5.8 11.9-3.7 18.4 5.6 16.2l2.3-0.5c1.2-0.9 1.6-7.9 0-12.6-1.5-4.5-4.8-7.5-6-6.8zm-36.2 43.6l0.6-0.6 2-1.6c9-8.4 11.4-17.6 5.4-22.8l-1.6-1.3q0 0-0.1 0.1c-1.1 0.6-4.8 7.5-6.3 13.8-1.5 6.6-1.1 13.1 0 12.4z"/>
					<path id="&lt;Path&gt;" class="s16" d="m308.9 433.7q0-0.1 0-0.2c0-0.1 0-0.2 0-0.3q0-0.1 0-0.2 0.1-0.1 0.1-0.2 0-0.1 0-0.3c0 0 0-0.1 0.1-0.2q0-0.1 0-0.2 0-0.2 0.1-0.3 0 0 0-0.1 0 0 0 0 0-0.1 0-0.1 0.1-0.1 0.1-0.2 0.1-0.2 0.1-0.3 0.1-0.1 0.1-0.2 0-0.1 0.1-0.2 0-0.1 0.1-0.2 0-0.1 0.1-0.2 0-0.1 0.1-0.2 0-0.2 0.1-0.3c0.1-0.1 0.1-0.2 0.2-0.3q0 0 0 0 0 0 0-0.1 0.2-0.2 0.3-0.5c0.1-0.1 0.2-0.3 0.3-0.4 0.1-0.1 0.1-0.2 0.2-0.2 0.1-0.1 0.1-0.2 0.2-0.3 0.1 0 0.1-0.1 0.2-0.2 0 0 0.1-0.1 0.1-0.1 0.1-0.1 0.1-0.1 0.1-0.1q0 0 0 0 0.1-0.1 0.1-0.1 0.1-0.1 0.2-0.2 0.1-0.1 0.2-0.2 0.1-0.1 0.2-0.2 0.1-0.1 0.2-0.2 0.1-0.1 0.3-0.1 0-0.1 0.2-0.2c0 0 0.1-0.1 0.1-0.1q0.2-0.1 0.2-0.1c0.1-0.1 0.1-0.1 0.1-0.1q0.1 0 0.1 0c0.1-0.1 0.2-0.1 0.2-0.1q0.1-0.1 0.2-0.1c0 0 0.1-0.1 0.2-0.1q0 0 0.1 0c0-0.1 0.1-0.1 0.1-0.1q0 0 0 0 0 0 0.1 0 0.1 0 0.1 0c0.1-0.1 0.1-0.1 0.2-0.1 0.1 0 0.1 0 0.2 0q0.1 0 0.1 0 0 0 0 0 0.1 0 0.1 0 0.1 0 0.2 0 0.1 0 0.2 0 0.1 0 0.3 0 0 0 0 0c0.1 0 0.2 0.1 0.3 0.1q0.1 0.1 0.3 0.2l1.4 0.8q-0.3-0.2-0.6-0.3 0 0 0 0-0.4-0.1-0.7 0-0.1 0-0.1 0-0.3 0-0.8 0.1 0 0 0 0-0.4 0.2-0.8 0.4c-0.6 0.4-1.3 0.9-1.8 1.5q0 0 0 0c-0.5 0.5-1 1.2-1.4 1.9q0 0 0 0-0.6 1.1-1 2.2 0 0 0 0-0.3 1.1-0.3 2.2 0 1 0.3 1.7 0 0 0 0 0.3 0.7 0.9 1.1v-0.1 0.1l-1.3-0.9q-0.5-0.2-0.8-0.7-0.1-0.1-0.2-0.3 0 0 0 0c0 0 0 0 0 0q0-0.1-0.1-0.2c0-0.1 0-0.2-0.1-0.2 0-0.1 0-0.2 0-0.3q0-0.1 0-0.2-0.1-0.1-0.1-0.2 0-0.1 0-0.2 0-0.1 0-0.2 0-0.1 0-0.2 0 0 0 0 0-0.1 0-0.2z"/>
					<path id="&lt;Path&gt;" class="s11" d="m314.8 426.9c2.3-1.3 4.3-0.2 4.3 2.7 0 2.7-1.9 6.1-4.3 7.5-2.6 1.5-4.5 0.4-4.5-2.4 0-2.9 1.9-6.3 4.5-7.8z"/>
					<path id="&lt;Path&gt;" class="s17" d="m311.6 434.2q0-0.1 0.1-0.2c-0.1-0.1 0-0.1 0-0.2q0-0.1 0-0.1c0-0.1 0-0.2 0-0.2q0-0.1 0.1-0.2 0-0.1 0-0.2 0 0 0-0.1c0-0.1 0-0.1 0.1-0.2q0-0.1 0-0.2 0 0 0 0c0 0 0.1-0.1 0.1-0.1 0-0.1 0-0.1 0-0.2 0-0.1 0.1-0.1 0.1-0.2 0 0 0-0.1 0.1-0.1 0-0.1 0-0.1 0-0.2q0.1 0 0.1-0.1 0.1-0.1 0.1-0.2 0-0.1 0.1-0.2 0-0.1 0.1-0.3 0 0 0 0 0.1 0 0.1 0 0.1-0.2 0.2-0.4 0.1-0.1 0.2-0.3 0.1-0.1 0.1-0.2 0.1 0 0.2-0.1 0-0.1 0.1-0.2 0.1 0 0.1-0.1 0.1-0.1 0.1-0.1 0 0 0 0 0 0 0.1-0.1 0 0 0.1-0.1 0.1-0.1 0.2-0.2 0.1 0 0.1-0.1c0.1 0 0.1-0.1 0.2-0.1 0 0 0.1-0.1 0.1-0.1q0.1-0.1 0.2-0.1 0-0.1 0.1-0.1 0.1-0.1 0.2-0.1 0 0 0 0 0.1-0.1 0.1-0.1 0.1 0 0.1-0.1 0.1 0 0.2 0 0.1-0.1 0.1-0.1 0.1 0 0.1 0 0.1-0.1 0.2-0.1 0 0 0.1 0 0.1 0 0.2-0.1 0 0 0.1 0 0 0 0.1 0 0 0 0.1 0 0 0 0.1 0 0.1 0 0.2 0c0.1 0 0.1 0 0.2 0q0.1 0.1 0.2 0.1 0.2 0 0.3 0.1l1.4 0.8c-0.3-0.1-0.7-0.2-1.1-0.2q-0.6 0.1-1.3 0.5-0.7 0.4-1.3 1 0 0 0 0-0.6 0.6-1 1.4 0 0 0 0-0.5 0.8-0.8 1.6c-0.2 0.6-0.3 1.2-0.3 1.7 0 0.5 0.1 0.9 0.3 1.2q0 0 0 0 0.2 0.5 0.6 0.7l-1.3-0.8q-0.3-0.1-0.6-0.5-0.1-0.1-0.1-0.2 0 0 0 0 0 0 0 0 0-0.1-0.1-0.2c0 0 0-0.1 0-0.1 0-0.1-0.1-0.1-0.1-0.2q0 0 0-0.1 0-0.1 0-0.2 0 0 0-0.1-0.1-0.1 0-0.1-0.1-0.1 0-0.2-0.1 0 0 0-0.1-0.1-0.1-0.1z"/>
					<path id="&lt;Path&gt;" class="s14" d="m316.4 429.4c1.8-1 3.3-0.4 3.3 1.9 0 2-1.5 4.5-3.3 5.5-1.8 1-3.3 0.4-3.4-1.7 0-2.2 1.6-4.7 3.4-5.7z"/>
				</g>
				<path id="&lt;Path&gt;" class="s18" d="m346.3 392c-7.1-0.3-18.1 1.3-24.8 3.5-35.5 11.9-47.1 64.2-20.7 83.3-5.5 2.1-29-12.8-36-18-10.9-29.7 9.4-69.3 40.8-83.3 5.5-2.4 12.9-2.2 18.1 0.9z"/>
				<g id="&lt;Group&gt;">
					<path id="&lt;Path&gt;" class="s10" d="m312.2 476.3l-19.5-11.3v1.5l19.5 11.3z"/>
					<path id="&lt;Path&gt;" class="s19" d="m333.8 395.3l19.4 11.3-1.2 0.8-19.5-11.3z"/>
					<path id="&lt;Path&gt;" class="s10" d="m295 478.1l-19.5-11.3-0.7 1.6 19.5 11.3z"/>
					<path id="&lt;Path&gt;" class="s20" d="m345.9 390.3l-19.4-11.3-1.2 1.4 19.5 11.3z"/>
					<path id="&lt;Path&gt;" class="s21" d="m268.7 462.8l19.5 11.3q1.5 1.4 3.1 2.4l-19.4-11.3q-1.7-1-3.2-2.4z"/>
					<path id="&lt;Path&gt;" class="s22" d="m318.5 376.6c0.4 0.1 0.7 0.2 1 0.3 0.2 0.1 0.2 0.1 0.4 0.2 0.8 0.3 1.7 0.7 2.5 1.1l19.4 11.3c-0.8-0.4-1.6-0.8-2.5-1.1-0.4-0.2-0.9-0.4-1.3-0.5z"/>
					<path id="&lt;Path&gt;" class="s20" d="m283.6 467.8l-19.4-11.3-1.2 1.4 19.5 11.3z"/>
					<path id="&lt;Path&gt;" class="s10" d="m263 457.9l19.5 11.3q0.8 1.6 1.8 3.1 0.3 0.4 0.5 0.7c0.7 1 1.4 1.9 2.2 2.6l-19.4-11.3c-0.8-0.8-1.5-1.7-2.3-2.6q-0.2-0.3-0.4-0.7c-0.2-0.2-0.4-0.4-0.5-0.6q-0.8-1.2-1.4-2.5 0 0 0 0z"/>
					<path id="&lt;Path&gt;" class="s23" d="m330.8 385.5l-19.5-11.3-0.6 1.7 19.4 11.3z"/>
					<path id="&lt;Path&gt;" class="s24" d="m333 385.4q-0.1 0-0.4 0-0.9 0-1.8 0.1l-19.5-11.3q0.5 0 0.9-0.1c0.4 0 0.7 0 1 0 0.1 0 0.3 0 0.4 0q0 0 0.1 0 0.9 0 1.7 0.1c0.7 0 1.4 0.1 2 0.2 0 0.1 0.1 0.1 0.1 0.1q0.9 0.1 1.7 0.4l19.5 11.3q-0.9-0.3-1.8-0.4-1-0.2-2-0.3-0.9-0.1-1.9-0.1z"/>
					<path id="&lt;Path&gt;" class="s21" d="m281.2 458.6c0.2 1.7 0.5 3.2 0.9 4.7q0 0.2 0.1 0.4 0.6 2.2 1.4 4.1l-19.4-11.3q-0.4-0.9-0.7-1.7-0.3-0.9-0.6-1.9-0.2-0.3-0.2-0.5c0-0.2 0-0.3-0.1-0.4q-0.1-0.4-0.2-0.9-0.2-0.9-0.4-1.8-0.1-0.9-0.2-1.8 0-0.1 0-0.2z"/>
					<path id="&lt;Path&gt;" class="s25" d="m321 389.7l-19.5-11.3c0.3-0.1 0.7-0.2 1-0.4q0.8-0.3 1.5-0.5 0.7-0.3 1.4-0.5c0.3-0.1 0.5-0.1 0.7-0.2q0.1 0 0.2 0 0.3-0.1 0.6-0.2 0.7-0.2 1.4-0.3c0.5-0.1 1-0.2 1.5-0.3 0.3 0 0.6 0 0.9-0.1l19.4 11.3q-2.1 0.2-4.3 0.9-0.1 0-0.3 0-2.2 0.6-4.5 1.6z"/>
					<path id="&lt;Path&gt;" class="s26" d="m281.2 448.3l-19.5-11.4-1.3 0.8 19.5 11.3z"/>
					<path id="&lt;Path&gt;" class="s27" d="m260.1 442.1c0-0.4 0-0.9 0-1.3 0-0.1 0-0.2 0-0.3 0-0.2 0.1-0.3 0.1-0.5 0-0.3 0-0.6 0.1-0.8q0-0.8 0.1-1.5l19.5 11.3q-0.2 1.1-0.3 2.4 0 0.2 0 0.4-0.1 1.3-0.1 2.6c0 0.9 0 1.7 0.1 2.4 0.1 0.9 0.2 1.7 0.3 2.6l-19.5-11.3c-0.1-0.9-0.2-1.7-0.3-2.6q0 0 0-0.1 0-0.6 0-1.2c0-0.3-0.1-0.7-0.1-1q0 0 0-0.1 0-0.5 0.1-1z"/>
					<path id="&lt;Path&gt;" class="s19" d="m311.9 393.5l-19.4-11.3v1.4l19.4 11.4z"/>
					<path id="&lt;Path&gt;" class="s28" d="m311.9 393.5l-19.4-11.3q0.3-0.3 0.6-0.5c0.4-0.2 0.7-0.5 1.1-0.8q0.2-0.2 0.5-0.3 0.1-0.1 0.1-0.1c0.4-0.3 0.8-0.5 1.2-0.8q0.4-0.2 0.8-0.5c0.1 0 0.1-0.1 0.2-0.1q0.3-0.2 0.6-0.3 0.4-0.3 0.8-0.5 0.4-0.1 0.7-0.3c0.1 0 0.2-0.1 0.3-0.1 0.1-0.1 0.1-0.1 0.2-0.1q0.9-0.4 1.9-0.8l19.5 11.3c-0.8 0.3-1.5 0.6-2.1 0.9-0.1 0-0.2 0.1-0.3 0.1-0.7 0.3-1.4 0.7-2.1 1.1-0.8 0.4-1.6 0.9-2.3 1.5-0.2 0.1-0.4 0.2-0.5 0.3q-0.9 0.7-1.8 1.3z"/>
					<path id="&lt;Path&gt;" class="s29" d="m281.2 448.3l-19.5-11.4q0.1-0.8 0.2-1.6 0.1-1 0.2-1.9 0.2-0.9 0.4-1.9 0-0.2 0.1-0.5c0 0 0-0.1 0-0.2q0.1-0.5 0.3-1.1c0.1-0.6 0.2-1.2 0.4-1.8q0.2-0.8 0.4-1.7c0.1-0.5 0.3-0.9 0.4-1.4l19.5 11.3q-0.9 3-1.5 6c0 0.1 0 0.2-0.1 0.2-0.3 2-0.6 4-0.8 6z"/>
					<path id="&lt;Path&gt;" class="s30" d="m302.6 403.1l-19.4-11.3c0.2-0.3 0.6-0.6 0.8-0.9 0.6-0.5 1-1 1.5-1.5 0.6-0.5 1.1-0.9 1.6-1.4q0.3-0.2 0.5-0.4 0.1-0.1 0.2-0.2c0.3-0.3 0.6-0.6 0.9-0.8q0.8-0.7 1.7-1.3 0.7-0.7 1.6-1.3c0.1-0.1 0.3-0.2 0.5-0.4l19.4 11.4q-2.3 1.7-4.6 3.7-0.2 0.1-0.3 0.2c-1.5 1.3-3 2.7-4.4 4.2z"/>
					<path id="&lt;Path&gt;" class="s31" d="m288.1 424.5l-19.5-11.3q0.3-0.6 0.6-1.2 0.5-1 1-2 0.7-1.3 1.5-2.6 0.1-0.1 0.1-0.2c0 0 0.1-0.1 0.1-0.1q1.5-2.6 3.2-5.1 0.1-0.2 0.3-0.4l19.4 11.3q-1.9 2.7-3.5 5.6-0.1 0.1-0.2 0.2-1.6 2.9-3 5.8z"/>
					<path id="&lt;Path&gt;" class="s19" d="m288.1 424.5l-19.5-11.3-1.2-0.1 19.5 11.3z"/>
					<path id="&lt;Path&gt;" class="s18" d="m282.4 436.1l-19.5-11.4q0 0 0 0c0.2-0.5 0.4-1.1 0.6-1.6q0.2-0.9 0.6-1.8 0.3-1 0.7-2c0.1-0.1 0.1-0.2 0.1-0.3q0.1-0.1 0.1-0.2c0.3-0.7 0.5-1.3 0.8-2q0.8-1.8 1.6-3.6 0-0.1 0-0.1l19.5 11.3q-1.3 2.9-2.4 5.7c-0.1 0.1-0.1 0.2-0.1 0.3-0.8 1.9-1.5 3.8-2 5.7z"/>
					<path id="&lt;Path&gt;" class="s32" d="m294.1 411.9l-19.4-11.3q0.4-0.7 0.9-1.3 1.2-1.6 2.4-3.1 0.1-0.3 0.4-0.5 0.1-0.2 0.3-0.4 0.4-0.6 1-1.2 0.7-0.9 1.4-1.7 0.6-0.7 1.3-1.4 0-0.1 0.1-0.1l19.4 11.3q-1.9 2.1-3.8 4.4c-0.1 0.2-0.2 0.3-0.3 0.4q-1.9 2.4-3.7 4.9z"/>
					<path id="&lt;Compound Path&gt;" fill-rule="evenodd" class="s18" d="m279.9 449l1.3-0.7c0.4-4 1.1-8.1 2.4-12.2h-1.2c1.1-3.9 2.7-7.7 4.5-11.7l1.2 0.1q2.9-6 6.7-11.6l-0.7-1c2.6-3.5 5.1-6.8 7.8-9.7l0.7 0.9c2.9-3 6.1-5.8 9.3-8.1v-1.5c1.4-1.1 3-2.2 4.6-3.1 1.5-0.9 2.9-1.5 4.5-2.1v1.4q4.8-2 9.1-2.5l0.7-1.7c2.9-0.3 5.5 0 7.9 0.7l-0.7 1.7c2.6 0.7 4.8 2 6.8 3.8l1.1-1.4c1.8 1.9 3.4 4 4.6 6.4l-1.1 1.3c1.3 2.7 2.1 5.9 2.6 9.4l1.2-0.8c0.3 1.5 0.3 3.3 0.3 5.1 0 1.8 0 3.4-0.2 5.3l-1.3 0.8c-0.4 3.9-1.2 7.9-2.4 12l0.9 0.1c-1.1 3.8-2.7 7.9-4.4 11.6l-1.1-0.1c-2 4.1-4.2 8-6.8 11.8l0.6 0.8c-2.3 3.4-4.9 6.7-7.8 9.8l-0.6-0.9c-2.9 3.1-6 5.8-9.2 8.2v1.5c-1.6 1.1-2.9 1.9-4.5 2.8-1.6 0.9-3.2 1.8-4.5 2.4v-1.5c-3.3 1.4-6.5 2.3-9.4 2.6l-0.6 1.5c-2.8 0.2-5.3-0.1-7.9-0.7l0.7-1.6c-2.6-0.8-4.9-2.1-6.8-4l-1.2 1.5c-1.7-1.7-3.4-3.9-4.5-6.4l1.1-1.4c-1.2-2.6-2-5.7-2.4-9.2l-1.3 0.8c-0.2-1.7-0.4-3.2-0.4-5 0-1.8 0.2-3.7 0.4-5.4zm36.8 15.6c15-8.6 27.5-30.2 27.4-47.5-0.1-17.4-12.6-24.4-27.6-15.7-15.2 8.8-27.5 30-27.5 47.5 0.1 17.3 12.4 24.5 27.7 15.7z"/>
					<path id="&lt;Path&gt;" class="s19" d="m294.1 411.9l0.7 1-19.4-11.3-0.7-1z"/>
				</g>
			</g>
			<path id="&lt;Path&gt;" class="s7" d="m439.1 87.6c-35.2 1.8-62.9 1.3-86.2 8.8-52 16.7-151.4 68-175.6 93.5l-0.3 0.3c52.1 43.2 69.8 53.7 132.4 83.6-17.8 46.8-28.8 72.6-36.5 122.2-87.9-22.8-136.1-46.1-185.5-108.8-11 25.3-14.2 54.2-7.9 72.4 9.7 28.1 135.1 107.4 167.2 111.2 5.6 0.6-1.2-16.1 7.5-29.7 35.7-55.8 111.8-203.2 331.9-243.4l24.3-55.4z"/>
			<path id="&lt;Path&gt;" class="s7" d="m434.8 89.3c51.2-13.8 88.9-24.7 139.7-3.6 35.3 14.8 79.1 35.4 94.6 59.8 6 9.4 8.4 23.1 10.4 41.9 3.9 35 0.7 50.8-26.5 76.2 12.8-54.4-23.2-61-50.7-38.9-20.1 16.1-35.2 49.3-26.6 81.8l-221.6 126.1c15.9-62.9-30.3-65-52.3-46.9-18.7 15.4-35.1 48-32.9 77.6-32 23.1-60.6-20.1-85.4-41.6l18-48.1c21.1 8.3 44.5 15.5 71.4 22.4 7.7-49.6 18.7-75.4 36.5-122.2-15.2-7.3-27.8-13.4-38.8-19.2l110.8-85.5 125.2-15.2z"/>
			<path id="&lt;Path&gt;" class="s33" d="m591.2 92.9c31.3 14 64.8 31.9 77.9 52.6 6 9.4 8.4 23.1 10.4 41.9 3.9 35 0.7 50.8-26.5 76.2 12.8-54.4-23.2-61-50.7-38.9-20.1 16.1-35.2 49.3-26.6 81.8l-221.6 126.1c15.9-62.9-30.3-65-52.3-46.9-18.7 15.4-35.1 48-32.9 77.6-6.9 5-13.7 6.9-20.3 6.6-0.4 0.6-1 1-1.9 0.9-32.1-3.8-165-78.1-174.7-106.1-3.2-9.4-4.2-21.9-3-35.2 0.7-8.2 9.7-21.7 12-30.1 3.8-13.6 9-26.8 18.7-37.3-13.8 30.9 98.7 87.6 119.4 91.2 14.6 2.4 31.1-2.2 57-21.9 35.8-37.6 88.5-88.4 151.7-118.3 23.3-11 52.2-22.4 74.2-24.5 18.1-1.8 56.2 2.9 74.4 4.6 22.7-4 91.2-34.2 84.3-49.2-6.9-15.1-36.8-34.6-69.5-51.1z"/>
			<path id="&lt;Path&gt;" class="s34" d="m434 89.2c-34.5 0-51.6 1.5-78.4 9.8 51.4 17.8 94.7 42 141.7 78.5 31.8-0.8 60.5 0.6 92.4 9.3-32.2-59.6-121.8-91.7-155.7-97.6z"/>
			<path id="&lt;Path&gt;" class="s35" d="m434 89.2h-10.3c33 5.7 124.5 39.5 159 95.8q3.5 0.8 7 1.8c-32.2-59.6-121.8-91.7-155.7-97.6z"/>
			<path id="&lt;Path&gt;" class="s7" d="m665.5 185.4c-29.7 4.7-42.1 12.5-71.3 28.8l-277.1 154.2c-31.5 17.6-28.3 12-43.7 9.7-5.8-0.8 2.7-7.9 26.4-20.2 112.9-59 178.6-95 290.4-156.3 30.6-16.8 57-27.5 75.3-16.2z"/>
			<path id="&lt;Path&gt;" class="s36" d="m552 216.6c5.9 4 9 8.8 10.4 14.9 1.5 6.3 1.3 14 0.5 23.4-0.3 3.4-0.6 7.1-0.9 10.8-0.9 12-1.9 24.2-3.5 36l-179.8 100.5c-7.9-18.8-21-30.8-35.2-43.8q-3.9-3.5-7.9-7.2c-13.5-12.6-10.4-6.7-11.2-21.8-0.1-2.6-0.2-5.5-0.4-8.6l-2.6 0.2c0.2 3.2 0.4 6 0.5 8.5 0.8 15.9-2.3 10.2 12 23.6q3.9 3.7 7.8 7.2c14.4 13.1 27.6 25.1 35.2 44.2l0.6 1.3 1.2-0.7 181.6-101.5 0.5-0.3 0.1-0.6c1.7-12.1 2.7-24.5 3.7-36.8 0.2-3.6 0.5-7.1 0.8-10.8 0.8-9.7 1.1-17.5-0.5-24.1-1.5-6.8-4.9-12.1-11.4-16.6z"/>
			<path id="&lt;Path&gt;" class="s36" d="m456 276.6c6.6 7.9 7 10.7 8 20.4l0.1 0.9 2.4 53.6 2.6-0.1-2.4-53.7v-0.1l-0.1-0.9c-1.2-10.3-1.5-13.2-8.6-21.7z"/>
			<g id="&lt;Group&gt;">
				<path id="&lt;Path&gt;" class="s35" d="m317 323.5c19.4-34 60.6-81.7 114.9-105.9 65.2-29 87.9-29.9 146-16.7-16.7 20.1-184.3 110.7-232.4 137.2-20.2 8.1-48.6 20.6-28.5-14.6z"/>
				<path id="&lt;Path&gt;" class="s37" d="m328.3 318.7c17.6-31 55.2-74.4 104.7-96.4 49.9-22.3 69.8-28.3 106.3-22.5 0.8 0.1 8.4 16.3 8.2 16.4-42.5 29.4-157.3 92.2-194.6 112.8-18.4 7.4-42.9 21.8-24.6-10.3z"/>
				<path id="&lt;Path&gt;" class="s35" d="m442.3 215.9c8.3 17.4 16.3 35.3 22.3 53.6l-18.3 8.1c-4.1-20.8-8.7-36.2-17.9-55.2z"/>
				<path id="&lt;Path&gt;" class="s35" d="m366.3 267.9c-4.3 11.5-3.4 46.1 0.3 56.6l-22.6 8.8c5.5-11.7 13.4-49.1 5.9-50.7z"/>
			</g>
			<path id="&lt;Path&gt;" class="s38" d="m657.7 141.9c12.6 5.9 15.8 21 12.7 36.6-3.4 17.1-11.5 9.4-17.6 9.6-7.6 0.3-16 0.7-19-3.7-2.5-3.6 9.9-10 17.7-20.9 4.4-6.1 5.2-17 6.2-21.6z"/>
			<g id="&lt;Group&gt;">
				<path id="&lt;Path&gt;" class="s35" d="m489.7 174.9c1.7-0.7 2.4-2.5 1.8-4.2-0.7-1.6-2.5-2.4-4.1-1.7-37.3 14.9-65.9 28.5-93.1 43.9-27.3 15.4-53.1 32.6-85.1 54.7-1.5 1-1.8 3-0.8 4.4 1 1.5 2.9 1.8 4.4 0.8 31.9-22 57.6-39.1 84.6-54.3 26.9-15.3 55.2-28.7 92.3-43.6z"/>
				<path id="&lt;Path&gt;" class="s35" d="m364.4 104.3c1.6-0.7 2.4-2.6 1.8-4.2-0.7-1.6-2.5-2.4-4.2-1.8-37.3 15-65.8 28.6-93.1 44-27.2 15.4-53.1 32.6-85.1 54.7-1.4 1-1.8 3-0.8 4.4 1 1.5 3 1.8 4.5 0.8 31.8-22 57.6-39.1 84.6-54.3 26.9-15.3 55.2-28.7 92.3-43.6z"/>
			</g>
			<path id="&lt;Path&gt;" class="s7" d="m81.4 297.1c1.7 13.6-0.1 22.1 9.1 32.8 23.1 26.5 87.9 61.5 119.8 67.8 13.2 2.6 22.5 2.2 43.7-7.1-18.6 18.4-35.5 24.4-52.3 20.2-41.8-10.4-91.2-40.7-120.9-71.3-10.1-10.5-8.2-25.9 0.6-42.4z"/>
			<path id="&lt;Path&gt;" class="s38" d="m285.5 371.3c10.7-7 17.5-10 17.1-14.8-0.4-6.3-25.9-5.4-35.6-4.3-19.5 2.4-43.5 18.3-43.4 30.3 0.2 14.4 28.6 13.9 37 12.3 4.8-0.9 10.4-14.1 24.9-23.5z"/>
			<g id="&lt;Group&gt;">
				<path id="&lt;Path&gt;" class="s33" d="m552.1 195l0.2 0.5c4.9 1.5 6.3 2.3 9.2 4.1 8 5 14.8 12.5 17.8 17.3 3.1 5 1 11.7-1.5 15-1.8 2.3-3.8 2.1-6.7 2.4l-17.9-16.6z"/>
				<path id="&lt;Path&gt;" class="s35" d="m552.2 195.2c7 7.8 16.3 14.4 21.2 23.3 2.3 4.4 0.9 9.7-1.6 13-2.5 3.4-16.2-11.5-18.7-13.8z"/>
				<path id="&lt;Path&gt;" class="s37" d="m555 201.3c5.9 5.7 12.5 11.4 16.1 18 1.8 3.3 0.4 7.6-1.3 10.1-2.9-1-10.8-9.1-14.2-12.4z"/>
			</g>
			<path id="&lt;Path&gt;" class="s39" d="m555.8 80c-26.6-2.9-67.3 1.6-68.8-3.6 22.8-6.1 40.2-6.2 68.8 3.6z"/>
			<path id="&lt;Path&gt;" class="s34" d="m170.1 206.3c-16.1 11.6-36.4 28.5-42.8 38.5-11.4 15.2-7.1 23.6 0.6 33.2 14.9 18.7 74.4 53.3 96.6 58.2 9.9 2.2 19.4 1.6 27.5-4.5 18-13.6 26.8-21.3 36.5-34.4 11.8-16.1 3.8-25.3-7.3-31.4l-81.9-52.9c-15-9.9-21.9-12-29.2-6.7z"/>
			<path id="&lt;Path&gt;" class="s35" d="m170.1 206.3c-16.1 11.6-36.4 28.5-42.8 38.5-11.4 15.2-7.1 23.6 0.6 33.2 14.9 18.7 74.4 53.3 96.6 58.2 9.9 2.2 19.4 1.6 27.5-4.5 16.5-12.5 25.3-20 34-31.2-7.6 8.9-15.9 15.9-30.1 26.5-8 6-17.3 6.7-27.1 4.5-22-4.9-80.7-39.1-95.4-57.5-7.6-9.5-11.9-17.8-0.6-32.7 6.1-9.5 25-25.5 40.6-36.9q-1.6 0.7-3.3 1.9z"/>
			<path id="&lt;Path&gt;" class="s7" d="m99.2 300.1c26.1 21.9 64.6 45 100.1 61.8l-9.7 21c-35.5-16.6-70.7-39.3-99.3-63.5z"/>
			<path id="&lt;Path&gt;" class="s40" d="m651.4 139.7c-8.3-15.8-42-31.6-50-36-17.3-9.4-35.9-18.2-50.5-19.3-16.5-1.2-39.9 2-67.8-4-14.4 1.7-28.3 6.1-37.2 8.5 61.7 15.2 116.2 44.3 145.2 94.2 16.5-5 35.3-11.3 49.5-20.9 9.4-6.4 15.3-14 10.8-22.5z"/>
		</g>
		<path id="&lt;Path&gt;" class="s41" d="m619.8 131.8l-0.2-22 2.1 0.3c26.7 4 49.5 27.3 55.6 55.3 6 27.5 4.8 61.2 2 90.2-1.1 11.9-2.3 15.7-0.7 25.3 1.5 9.3 4.9 16.9 13.9 23.4l-0.1 0.1c4.5 3.6 8.7 5.9 12.2 7.2 3.7 1.3 6.5 1.4 7.8 0.4 3.3-2.6 2.7-36.5 2.5-51.5-0.1-2.9-0.1-5.1-0.1-6-0.1-4.5-0.1-7.5 0.6-9 1.3-2.5 3.3-2.3 6.8 0.3v0.1l11 8.7-2 2.5-11-8.7c-1.3-1-1.8-1.5-1.9-1.4-0.4 0.9-0.4 3.4-0.3 7.5 0 1.6 0.1 3.5 0.1 5.9 0.3 15.5 0.9 50.6-3.7 54.2-2.2 1.7-6.1 1.8-10.9 0-4-1.4-8.7-4.1-13.8-8.1-9.3-7-12.8-15.2-14.5-25.1-1.7-10-0.4-14 0.8-26.1 2.7-28.7 3.9-62.1-2-89.2-5.6-25.9-27.1-47.8-50.7-52.3l-0.1 17.7z"/>
		<path id="&lt;Path&gt;" class="s42" d="m617.7 119.3h7.3v24.2c-1.4 1.7-6.3 1.5-7.3 0z"/>
		<g id="&lt;Group&gt;">
			<g id="&lt;Group&gt;">
				<path id="&lt;Path&gt;" class="s43" d="m573.6 80.1c-1.2 10.2 13.9 11.6 13.5 4 8.8-9.1 17.4-18.2 26.1-27.5l-8.4-16.1c-13.4 6.6-21.2 21.8-31.2 39.6z"/>
				<path id="&lt;Path&gt;" class="s43" d="m573.6 80.1c-1 8.8-1 17.1-1.2 26 3.4 4.1 9.7 3.5 13.3 2.6 1.2-10.4 2-14.1 1.4-24.6 1.4-6-7.6-9.4-13.5-4z"/>
			</g>
			<path id="&lt;Path&gt;" class="s44" d="m642.7 40.5c-9.6-9.5-29.6-6.7-35.9-4.4-10.8 4-13.4 15.2-9.8 25.3 5.1 14.4 21 27 29.3 35.3 14.2 16.8 43.6 1 40.7-7.3-3.2-29-24.1-48.7-24.3-48.9z"/>
			<path id="&lt;Path&gt;" class="s6" d="m633.3 35.3c-2.7-0.7-5.5-1.2-8.2-1.3-3.6 3-6.1 7.5-7 12.1-1.4 7.2 2.4 14.1 5.7 20.4 1.9 3.7 4.4 7.1 5.4 8.8 1.1 1.8-3 3-6.1 3.6-3.3 0.7-5.7 0.7-8-1.2-9.4-8.2-17.2-21.6-17.1-34.6-3.1 5.2-3.2 12-1 18.3 5.1 14.4 22.7 29.6 31 37.9 8 6.3 11.2 10 17.1 11.5 14.6 3.5 29.7-2.2 27.6-8.1-1-14.3-7.1-22.1-8.2-26.2l-2.9 1.3c-4 3.9-11.7 6.7-19.2 1.1-6.4-4.9-14-14.8-17.2-22.5-2.3-5.5-2.7-11.2 1.4-16.7 1.9-2.5 4.1-3.9 6.7-4.4z"/>
			<path id="&lt;Path&gt;" class="s45" d="m605.6 30.5c3.6 4.7 6.7 5.5 10.6 9.6 2.5 4.4-2.2 13.6-8.2 12.7-3.3-2.5-7.2-4.3-10.3-6.4z"/>
			<g id="&lt;Group&gt;">
				<path id="&lt;Path&gt;" class="s46" d="m581 38.3c2.2 4.6 0.4 3.7 6.4 10.1 1.7 1.9 8.8 5.3 9.6 5.5 1.2 0.2 3.3-0.4 4.4-1.1 2-1.2 4.8-8.3 5.3-10.3 1.3-4.6 2.2-6.2-0.1-9.5l-1.6-4.4-6.6-12.1c-8.4 0.9-15.6 2.1-18.6 4.9-3 2.8-2.9 7.8 1.2 16.9z"/>
				<path id="&lt;Path&gt;" class="s47" d="m595.1 12.3c11.9-1.7 13.1 15.6 13.1 21.1-0.9-0.1-1.6 0.6-2.1-0.3-0.9-1.9-2.7-3.3-4-3-1.5 0.4-1.9 2.4-0.3 6.4-1.9-1-4.4-2.1-7.1-4.4-0.1 0.1-14.1 8.4-20.5 1.2 1.7-2.3 0.7-12.5 4.6-16.2 4.8-4.4 12-6.4 16.3-4.8z"/>
			</g>
			<g id="&lt;Group&gt;">
				<path id="&lt;Path&gt;" class="s3" d="m575.8 36.5l-2.7 5.3c-1.2 2.3-0.8 4.3 5.8 4 5.5-0.3 7.4-0.1 11-4.5 4-5 9.8-13.9 13.7-19.2z"/>
				<path id="&lt;Path&gt;" class="s48" d="m605.6 18.1c-13.2-21.1-43-1.1-30.1 18.6 6.5 2.8 18.4-5.5 25.5-11.9 1.1-1 5.7-4.8 4.6-6.7z"/>
			</g>
		</g>
		<path id="&lt;Path&gt;" class="s49" d="m627.2 48.4c2.1 13 14.5 32.8 20.3 43.2l10.1-1.5c-0.2-0.6 1.2-2.6 1-3.3-4-13.3-9.2-33.2-15.5-44.2-2.6-4.5-7.1-7.2-10.7-5.8-5.1 2-5.9 6.9-5.2 11.6z"/>
		<g id="&lt;Group&gt;">
			<path id="&lt;Path&gt;" class="s46" d="m631.3 118.9c-0.5 0.9-1.1 1.7-3.3 3.3-0.5 0.4-1.4-0.2-2.4-0.3h-0.5l-0.1 4.9q0.4 0 0.4 0c-0.9 2.8-6.6 1.5-8.5 0.4-1.4 1.8-0.8 8.4 0.2 8.9 5.2 3.1 7.5 3.7 10.5 2.8 3.3-1 4.9-2.8 6.3-5 2.6-4.1 2.1-7 5.9-12.2z"/>
			<path id="&lt;Path&gt;" class="s49" d="m644.4 86.4c-6.3 10-11.2 24.1-16.7 34.8 0.6 2.1 8.4 5.3 10.5 5 6-10.3 13.1-20.5 18.8-31 3-5.6 2-8.8-0.6-10.8-2.8-2.2-8.7-3.2-12 2z"/>
		</g>
		<path id="&lt;Path&gt;" class="s33" d="m446.2 89.3c11.2-21.3 19.7-51.4 39.9-62.6 20.2-11.2 35.8-3.8 59.6 7.4 15.6 7.4 83.3 49.7 92 60.8-12.8 2.8-26.6 17.4-29.8 29.4l-16 59.6c-41.1-59.6-89.9-78.1-145.7-94.6z"/>
		<g id="&lt;Group&gt;">
			<path id="&lt;Path&gt;" class="s43" d="m765 205.6c-1.1 9.6 13.1 10.9 12.7 3.8 8.3-8.6 16.4-17.2 24.5-25.9l-7.8-15.2c-12.7 6.3-20 20.6-29.4 37.3z"/>
			<g id="&lt;Group&gt;">
				<g id="&lt;Group&gt;">
					<path id="&lt;Path&gt;" class="s1" d="m814.5 347.6c-1.5 5-2.7 6.4-5 8.6-1.6 1.7-10.7 7.5-11.3 9.2-0.5 1.2-0.6 3.3 1.4 4.6 2.1 1.3 6.2 1.3 9 0.9 5.9-0.9 10.4-4.4 15.1-7.8 0.5 0.4 2.6-0.3 4.6-1.4 1.6-1 2.4-1.8 2.6-3.3 0.1-1-0.1-3.3-0.2-4.4-0.4-3-1.7-5.4-3-8.5l-5.9-1.3z"/>
					<path id="&lt;Path&gt;" class="s2" d="m797.9 366.3c-0.1 1.2 0.2 2.7 1.7 3.7 2.1 1.3 6.2 1.3 9 0.9 5.9-0.9 10.4-4.4 15.1-7.8 0.5 0.4 2.6-0.3 4.6-1.4 1.6-1 2.4-1.8 2.6-3.3 0.1-0.5 0-1.4 0-2.3-0.8 2.3-5.5 4.5-7.7 4.6-4.7 3.5-9.3 6.7-15.2 7.6-2.8 0.4-6.8 0.5-8.9-0.9q-0.8-0.5-1.2-1.1z"/>
				</g>
				<g id="&lt;Group&gt;">
					<path id="&lt;Path&gt;" class="s3" d="m829 356.1c-1.5 5.1-2.7 6.4-5 8.7-1.6 1.7-10.7 7.4-11.3 9.1-0.5 1.3-0.5 3.4 1.4 4.6 2.2 1.4 6.2 1.3 9 0.9 5.9-0.9 10.5-4.3 15.1-7.8 0.5 0.5 2.6-0.2 4.6-1.4 1.6-0.9 2.4-1.7 2.6-3.2 0.1-1.1-0.1-3.4-0.2-4.5-0.4-3-1.7-5.4-3-8.5l-5.9-1.3z"/>
					<path id="&lt;Path&gt;" class="s4" d="m812.4 374.8c-0.1 1.3 0.2 2.7 1.7 3.7 2.2 1.4 6.2 1.3 9 0.9 5.9-0.9 10.5-4.3 15.1-7.8 0.5 0.5 2.6-0.2 4.6-1.4 1.6-0.9 2.4-1.7 2.6-3.2 0.1-0.6 0-1.5 0-2.4-0.8 2.3-5.5 4.5-7.7 4.6-4.7 3.5-9.3 6.7-15.2 7.6-2.8 0.4-6.8 0.5-8.9-0.9q-0.8-0.4-1.2-1.1z"/>
				</g>
				<path id="&lt;Path&gt;" class="s5" d="m828.8 228.8c1.5 6.8 3.2 12.8 3.8 19.7 1 13-4.9 34.4-5.7 48.5l0.5 10.3c1.1 10.6 0.5 21.8 1.4 38.2q0.2 0.7 0.1 1.4c2.1 1.7 0.5 5-4 7.6-4.8 2.7-10.9 3.7-13.6 2q-1.2-0.6-1.3-1.7h-0.1c-0.3-0.4-2.2-60.4-3.1-67.8-0.8-21-0.6-40-1.3-62.4z"/>
				<path id="&lt;Path&gt;" class="s6" d="m841.4 214.1c-0.1 5.8 0.7 10.4 1.6 14.3 0.9 3.4 1.9 6 2.6 10.4 1.2 7.1 2.5 12.4 0.8 21.6-2.2 11.8-3.8 25.1-4.5 37l1.8 15.5c1 10.6-0.4 27.8 0.5 44.2 0.5 1.8-1.3 4.3-4.9 6.4-4.7 2.7-10.8 3.6-13.6 2-0.8-0.5-1.2-1.1-1.3-1.9l-4-70.4c-0.8-21-1.4-37.8-2.2-60.1z"/>
				<path id="&lt;Path&gt;" class="s44" d="m827.8 169.9c-8.4-6.2-21.5-7.6-26.5-7.1-10.8 1.1-15.8 10.7-14.9 20.7 1.2 14.3 12.6 29.7 18.2 39.2 8.9 18.6 36.6 11.6 35.9 3.4 2.1-13.9-0.2-46.9-12.7-56.2z"/>
				<path id="&lt;Path&gt;" class="s6" d="m825.6 168.4c-2.3-1.3-4.7-2.3-7.1-3.1-4 1.9-7.4 5.4-9.3 9.3-3 6.2-1.2 13.4 0.3 19.9 0.9 3.9 2.3 7.5 2.9 9.4 0.5 1.9-3.5 2-6.5 1.8-3.2-0.1-5.4-0.7-6.9-3-6.7-9.7-10.5-23.7-7.4-35.6-4 4-5.8 10.1-5.2 16.4 1.2 14.3 13.6 32.4 19.1 41.9 5.8 7.7 7.8 11.8 12.9 14.5 12.4 6.7 26.7 0.8 26.2-5-1.1-4.9-3.2-17.2-3.2-21.1h-0.2c-4.6 2.7-12.2 3.4-17.7-3.5-4.7-6-9.2-16.8-10.3-24.6-0.8-5.5 0.2-10.9 5.2-14.9 2.3-1.8 4.8-2.5 7.2-2.4z"/>
				<path id="&lt;Path&gt;" class="s45" d="m801.5 157.4c2.2 5.2 4.8 6.6 7.4 11.3 1.2 4.6-5.3 11.9-10.5 9.6-2.4-3-5.6-5.6-7.9-8.2z"/>
				<g id="&lt;Group&gt;">
					<path id="&lt;Path&gt;" class="s46" d="m777.3 158.7c0.9 4.7-0.5 3.5 3.4 10.7 1.1 2.1 6.7 6.9 7.5 7.3 0.9 0.4 3.1 0.4 4.2 0.1 2.1-0.7 6.3-6.5 7.3-8.2 2.3-3.9 3.5-5 2.1-8.7l-0.4-4.4-3-12.5c-7.9-1.2-14.8-1.8-18.2 0-3.4 1.9-4.5 6.4-2.9 15.7z"/>
					<path id="&lt;Path&gt;" class="s47" d="m796.3 138.4c11.2 1.3 8.2 17.3 6.9 22.3-0.8-0.3-1.6 0.2-1.8-0.7-0.4-2-1.7-3.7-2.9-3.7-1.5-0.1-2.3 1.7-1.9 5.7-1.5-1.3-3.5-2.9-5.4-5.7-0.1 0.1-14.8 4.3-18.9-3.8 2.1-1.7 3.6-11.3 8.1-13.6 5.4-2.8 12.4-3 15.9-0.5z"/>
				</g>
				<g id="&lt;Group&gt;">
					<path id="&lt;Path&gt;" class="s3" d="m773 155.8l-3.8 4.1c-1.6 1.9-1.7 3.8 4.3 5.1 5.1 1.1 6.9 1.7 11.2-1.5 4.8-3.5 12.2-10.2 17-14.2z"/>
					<path id="&lt;Path&gt;" class="s48" d="m804.5 146.2c-7-22.4-38.9-11.3-31.8 9.7 5.2 4.1 18-0.6 26-4.7 1.2-0.7 6.4-3.1 5.8-5z"/>
				</g>
			</g>
			<g id="&lt;Group&gt;">
				<path id="&lt;Path&gt;" class="s33" d="m767.8 309.4l5.9 103.5 68.5-39.2-0.1-101z"/>
				<path id="&lt;Path&gt;" class="s36" d="m695.4 266.2l0.1 101 78.2 45.7-0.1-101z"/>
				<path id="&lt;Path&gt;" class="s7" d="m695.4 266.2l78.2 45.7 68.5-39.2-78.1-45.7z"/>
			</g>
			<path id="&lt;Path&gt;" class="s49" d="m817 181c-2 12.3 4.2 33.5 6.3 44.5l9.5 1.7c0-0.6 1.9-2 1.9-2.6 0.3-13.1 1.5-32.5-0.9-44.1-1-4.8-4.2-8.5-7.8-8.3-5.1 0.2-8.3 4.4-9 8.8z"/>
			<g id="&lt;Group&gt;">
				<g id="&lt;Group&gt;">
					<path id="&lt;Path&gt;" class="s50" d="m811.9 260.8v3.3q-17.2 10-34.5 20v-3.2q17.3-10.1 34.5-20.1z"/>
					<path id="&lt;Path&gt;" class="s51" d="m768.2 235.6l43.7 25.2q-17.2 10-34.5 20.1l-43.7-25.3q17.3-10 34.5-20z"/>
					<path id="&lt;Path&gt;" class="s52" d="m777.4 280.9v3.2l-43.7-25.2v-3.3z"/>
				</g>
				<path id="&lt;Path&gt;" class="s53" d="m753.1 243.9l42.9 25-14.3 8.2-42.8-24.9z"/>
				<g id="&lt;Group&gt;">
					<path id="&lt;Path&gt;" class="s41" d="m790.5 267.4c-0.1 0.1-0.2 0.1-0.3 0l-0.9-0.5q-0.1-0.1 0-0.1l0.9-0.6c0.1 0 0.3 0 0.3 0l0.9 0.6q0.2 0 0 0.1z"/>
					<path id="&lt;Path&gt;" class="s41" d="m786.4 265c-0.1 0.1-0.2 0.1-0.3 0l-0.9-0.5q-0.1-0.1 0-0.2l0.9-0.5c0.1 0 0.2 0 0.3 0l0.9 0.5q0.1 0.1 0 0.2z"/>
					<path id="&lt;Path&gt;" class="s41" d="m787.7 265.8c0 0.1-0.2 0.1-0.2 0l-0.9-0.5q-0.2-0.1 0-0.2l0.9-0.5c0 0 0.2 0 0.3 0l0.9 0.5q0.1 0.1-0.1 0.2z"/>
					<path id="&lt;Path&gt;" class="s41" d="m789.1 266.6c-0.1 0.1-0.2 0.1-0.3 0l-0.9-0.5c0 0 0-0.1 0-0.2l0.9-0.5c0.1 0 0.3 0 0.3 0l0.9 0.5q0.2 0.1 0 0.2z"/>
					<path id="&lt;Path&gt;" class="s41" d="m786.9 265.9l1.4 0.8c0.1 0.1 0.1 0.2 0 0.3l-1.4 0.8c-0.2 0.1-0.4 0.1-0.5 0l-1.4-0.8c-0.1-0.1-0.1-0.2 0-0.3l1.4-0.8c0.1-0.1 0.3-0.1 0.5 0z"/>
					<path id="&lt;Path&gt;" class="s41" d="m791.9 268.2c-0.1 0.1-0.3 0.1-0.3 0l-0.9-0.5q-0.2-0.1 0-0.2l0.9-0.5c0.1 0 0.2 0 0.3 0l0.9 0.5q0.1 0.1 0 0.2z"/>
					<path id="&lt;Path&gt;" class="s41" d="m792 268.3l0.9-0.5c0.1-0.1 0.2-0.1 0.3 0l0.9 0.5q0.1 0.1 0 0.2l-0.9 0.5c-0.1 0-0.2 0-0.3 0l-0.9-0.5q-0.1-0.1 0-0.2z"/>
					<path id="&lt;Path&gt;" class="s41" d="m789 267.1l1.4 0.8c0.1 0.1 0.1 0.2 0 0.3l-1.4 0.8c-0.2 0.1-0.4 0.1-0.5 0l-1.4-0.8c-0.1-0.1-0.1-0.2 0-0.3l1.4-0.8c0.1-0.1 0.3 0 0.5 0z"/>
					<path id="&lt;Path&gt;" class="s41" d="m786 269.8c-0.2 0-0.4 0-0.5 0l-1.4-0.9c-0.1 0-0.1-0.2 0-0.2l1.4-0.9c0.1 0 0.4 0 0.5 0l1.4 0.9c0.1 0 0.1 0.2 0 0.2z"/>
					<path id="&lt;Path&gt;" class="s41" d="m789.2 269.1l1.4-0.8c0.1-0.1 0.3-0.1 0.4 0l1.4 0.8c0.2 0.1 0.2 0.2 0 0.3l-1.4 0.8c-0.1 0.1-0.3 0.1-0.4 0l-1.5-0.8c-0.1-0.1-0.1-0.2 0.1-0.3z"/>
					<path id="&lt;Path&gt;" class="s41" d="m786.3 269.9l1.4-0.8c0.1-0.1 0.3-0.1 0.5 0l2.1 1.3c0.2 0 0.2 0.2 0 0.2l-1.4 0.9c-0.1 0-0.3 0-0.5 0l-2.1-1.3c-0.2-0.1-0.2-0.2 0-0.3z"/>
					<path id="&lt;Path&gt;" class="s41" d="m784.7 264.6l1.4 0.8c0.1 0.1 0.1 0.2 0 0.3l-1.4 0.8c-0.2 0.1-0.4 0.1-0.5 0l-1.4-0.8c-0.1-0.1-0.1-0.2 0-0.3l1.4-0.8c0.1 0 0.3 0 0.5 0z"/>
					<path id="&lt;Path&gt;" class="s41" d="m783.8 266.6l1.4 0.8c0.1 0.1 0.1 0.2 0 0.3l-1.4 0.8c-0.2 0-0.4 0-0.5 0l-1.4-0.8c-0.1-0.1-0.1-0.2 0-0.3l1.4-0.8c0.1-0.1 0.4-0.1 0.5 0z"/>
					<path id="&lt;Path&gt;" class="s41" d="m771.8 264.4l-1.4-0.8c-0.1-0.1-0.1-0.2 0-0.3l1.4-0.8c0.2-0.1 0.4-0.1 0.5 0l1.4 0.8c0.1 0.1 0.1 0.2 0 0.3l-1.4 0.8c-0.1 0.1-0.4 0.1-0.5 0z"/>
					<path id="&lt;Path&gt;" class="s41" d="m783.2 270.7c-0.2 0.1-0.4 0.1-0.5 0l-1.4-0.8c-0.1-0.1-0.1-0.2 0-0.3l1.4-0.8c0.1-0.1 0.3-0.1 0.5 0l1.4 0.8c0.1 0.1 0.1 0.2 0 0.3z"/>
					<path id="&lt;Path&gt;" class="s41" d="m779.5 272.3c0.2-0.1 0.4-0.1 0.5 0l1.4 0.8c0.1 0.1 0.1 0.2 0 0.3l-1.4 0.8c-0.1 0.1-0.3 0.1-0.5 0l-1.4-0.8c-0.1-0.1-0.1-0.2 0-0.3z"/>
					<path id="&lt;Path&gt;" class="s41" d="m777.4 271.1c0.2-0.1 0.4-0.1 0.5 0l1.4 0.8c0.1 0.1 0.1 0.2 0 0.3l-1.4 0.8c-0.1 0.1-0.3 0.1-0.5 0l-1.4-0.8c-0.1-0.1-0.1-0.2 0-0.3z"/>
					<path id="&lt;Path&gt;" class="s41" d="m783.4 270.9l1.5-0.9c0.1 0 0.3-0.1 0.4 0l2.8 1.7c0.1 0 0.1 0.1 0 0.2l-1.4 0.8c-0.1 0.1-0.3 0.1-0.4 0.1l-2.9-1.7c-0.1-0.1-0.1-0.2 0-0.2z"/>
					<path id="&lt;Path&gt;" class="s41" d="m780 271.5l1.4-0.8c0.1 0 0.3 0 0.5 0l3.9 2.3c0.1 0.1 0.1 0.2 0 0.3l-1.5 0.8c-0.1 0.1-0.3 0.1-0.4 0l-3.9-2.3c-0.2-0.1-0.2-0.2 0-0.3z"/>
					<path id="&lt;Path&gt;" class="s41" d="m783.6 263.4c-0.1 0.1-0.2 0.1-0.3 0l-0.9-0.5c-0.1 0-0.1-0.1 0-0.2l0.9-0.5c0.1 0 0.2 0 0.3 0l0.9 0.5c0.1 0.1 0.1 0.2 0 0.2z"/>
					<path id="&lt;Path&gt;" class="s41" d="m785 264.2c-0.1 0.1-0.2 0.1-0.3 0l-0.9-0.5q-0.1-0.1 0-0.2l0.9-0.5c0.1 0 0.2 0 0.3 0l0.9 0.5c0.1 0.1 0.1 0.2 0 0.2z"/>
					<path id="&lt;Path&gt;" class="s41" d="m782.2 262.6c-0.1 0.1-0.2 0.1-0.3 0l-0.9-0.5c0 0 0-0.1 0-0.2l0.9-0.5c0.1 0 0.3 0 0.3 0l0.9 0.5q0.2 0.1 0 0.2z"/>
					<path id="&lt;Path&gt;" class="s41" d="m779.5 261c-0.1 0.1-0.2 0.1-0.3 0l-0.9-0.5q-0.1-0.1 0-0.2l0.9-0.5c0.1 0 0.2 0 0.3 0l0.9 0.5q0.1 0.1 0 0.2z"/>
					<path id="&lt;Path&gt;" class="s41" d="m780.8 261.8c0 0.1-0.2 0.1-0.2 0l-0.9-0.5q-0.2-0.1 0-0.2l0.9-0.5c0 0 0.2 0 0.3 0l0.9 0.5q0.1 0.1-0.1 0.2z"/>
					<path id="&lt;Path&gt;" class="s41" d="m769.9 255.5c-0.1 0-0.2 0-0.3 0l-0.9-0.6q-0.1-0.1 0-0.1l0.9-0.6c0.1 0 0.2 0 0.3 0l0.9 0.6c0.1 0 0.1 0.1 0 0.1z"/>
					<path id="&lt;Path&gt;" class="s41" d="m771.3 256.3c-0.1 0-0.2 0-0.3 0l-0.9-0.6q-0.1-0.1 0-0.1l0.9-0.6c0.1 0 0.2 0 0.3 0l0.9 0.6q0.1 0 0 0.1z"/>
					<path id="&lt;Path&gt;" class="s41" d="m772.7 257.1c-0.1 0-0.2 0-0.3 0l-0.9-0.6q-0.1 0 0-0.1l0.9-0.5c0.1-0.1 0.2-0.1 0.3 0l0.9 0.5c0.1 0 0.1 0.1 0 0.1z"/>
					<path id="&lt;Path&gt;" class="s41" d="m769.5 255.8l1.4 0.8c0.1 0.1 0.1 0.2 0 0.3l-1.4 0.8c-0.1 0.1-0.4 0.1-0.5 0l-1.4-0.8c-0.1-0.1-0.1-0.2 0-0.3l1.4-0.8c0.2-0.1 0.4-0.1 0.5 0z"/>
					<path id="&lt;Path&gt;" class="s41" d="m774 257.8c-0.1 0.1-0.2 0.1-0.3 0.1l-0.9-0.6c-0.1 0-0.1-0.1 0-0.1l0.9-0.6c0.1 0 0.2 0 0.3 0l0.9 0.6q0.1 0 0 0.1z"/>
					<path id="&lt;Path&gt;" class="s41" d="m766.4 256.5l1.5 0.8c0.1 0.1 0.1 0.2-0.1 0.3l-1.4 0.8c-0.1 0.1-0.3 0.1-0.4 0l-1.5-0.8c-0.1-0.1-0.1-0.2 0-0.3l1.5-0.8c0.1-0.1 0.3-0.1 0.4 0z"/>
					<path id="&lt;Path&gt;" class="s41" d="m775.3 258.6c-0.1 0.1-0.2 0.1-0.3 0l-0.9-0.5c-0.1-0.1-0.1-0.1 0-0.2l0.9-0.5c0.1-0.1 0.3-0.1 0.3 0l0.9 0.5c0.1 0.1 0.1 0.1 0 0.2z"/>
					<path id="&lt;Path&gt;" class="s41" d="m771.7 257.1l1.4 0.8c0.1 0.1 0.1 0.2 0 0.3l-1.4 0.8c-0.2 0-0.4 0.1-0.5 0l-1.4-0.8c-0.2-0.1-0.1-0.2 0-0.3l1.4-0.8c0.1-0.1 0.3-0.1 0.5 0z"/>
					<path id="&lt;Path&gt;" class="s41" d="m763.2 259.3l-1.5-0.8c-0.1-0.1-0.1-0.2 0-0.3l1.5-0.8c0.1 0 0.3 0 0.4 0l1.4 0.9c0.2 0 0.2 0.1 0 0.2l-1.4 0.8c-0.1 0.1-0.3 0.1-0.4 0z"/>
					<path id="&lt;Path&gt;" class="s41" d="m768.6 257.7l1.4 0.9c0.1 0 0.1 0.2 0 0.2l-1.4 0.9c-0.1 0-0.3 0-0.5-0.1l-1.4-0.8c-0.1 0-0.1-0.2 0-0.2l1.4-0.9c0.2 0 0.4 0 0.5 0z"/>
					<path id="&lt;Path&gt;" class="s41" d="m759.7 260l-1.4-0.8c-0.2-0.1-0.2-0.2 0-0.3l1.4-0.8c0.1-0.1 0.3-0.1 0.4 0l1.5 0.8c0.1 0.1 0.1 0.2 0 0.3l-1.5 0.8c-0.1 0.1-0.3 0.1-0.4 0z"/>
					<path id="&lt;Path&gt;" class="s41" d="m773.8 258.3l1.4 0.8c0.2 0.1 0.2 0.2 0 0.3l-1.4 0.8c-0.1 0.1-0.3 0.1-0.4 0l-1.5-0.8c-0.1-0.1-0.1-0.2 0-0.3l1.5-0.8c0.1-0.1 0.3 0 0.4 0z"/>
					<path id="&lt;Path&gt;" class="s41" d="m765.3 260.6l-1.4-0.8c-0.1-0.1-0.1-0.2 0-0.3l1.4-0.8c0.2-0.1 0.4-0.1 0.5 0l1.4 0.8c0.1 0.1 0.1 0.2 0 0.3l-1.4 0.8c-0.1 0.1-0.4 0.1-0.5 0z"/>
					<path id="&lt;Path&gt;" class="s41" d="m761.8 261.3l-1.4-0.8c-0.1-0.1-0.1-0.2 0-0.3l1.5-0.8c0.1-0.1 0.3-0.1 0.4 0l1.4 0.8c0.2 0.1 0.2 0.2 0 0.3l-1.4 0.8c-0.1 0.1-0.3 0.1-0.5 0z"/>
					<path id="&lt;Path&gt;" class="s41" d="m776 259.6l1.4 0.8c0.1 0.1 0.1 0.2 0 0.3l-1.4 0.8c-0.1 0.1-0.4 0.1-0.5 0l-1.4-0.8c-0.1-0.1-0.1-0.2 0-0.3l1.4-0.8c0.2-0.1 0.4-0.1 0.5 0z"/>
					<path id="&lt;Path&gt;" class="s41" d="m772.9 260.3l1.5 0.8c0.1 0.1 0.1 0.2-0.1 0.3l-1.4 0.8c-0.1 0-0.3 0-0.4 0l-1.4-0.9c-0.2 0-0.2-0.1 0-0.2l1.4-0.8c0.1-0.1 0.3-0.1 0.4 0z"/>
					<path id="&lt;Path&gt;" class="s41" d="m764 262.5l-1.4-0.8c-0.1 0-0.1-0.2 0-0.2l1.4-0.9c0.2 0 0.4 0 0.5 0l1.4 0.9c0.1 0 0.1 0.2 0 0.2l-1.4 0.8c-0.2 0.1-0.4 0.1-0.5 0z"/>
					<path id="&lt;Path&gt;" class="s41" d="m778.2 260.8l1.4 0.9c0.1 0 0.1 0.2 0 0.2l-1.4 0.9c-0.2 0-0.4 0-0.5 0l-1.4-0.9c-0.2 0-0.1-0.2 0-0.2l1.4-0.9c0.1 0 0.3 0 0.5 0z"/>
					<path id="&lt;Path&gt;" class="s41" d="m775.1 261.5l1.4 0.8c0.1 0.1 0.1 0.2 0 0.3l-1.4 0.8c-0.1 0.1-0.3 0.1-0.5 0l-1.4-0.8c-0.1-0.1-0.1-0.2 0-0.3l1.4-0.8c0.2 0 0.4-0.1 0.5 0z"/>
					<path id="&lt;Path&gt;" class="s41" d="m761.7 262c0.2-0.1 0.4-0.1 0.5 0l1.4 0.8c0.1 0.1 0.1 0.2 0 0.2l-1.4 0.9c-0.1 0-0.3 0-0.5 0l-1.4-0.9c-0.1 0-0.1-0.1 0-0.2z"/>
					<path id="&lt;Path&gt;" class="s41" d="m780.3 262.1l1.4 0.8c0.2 0.1 0.2 0.2 0 0.3l-1.4 0.8c-0.1 0.1-0.3 0.1-0.4 0l-1.5-0.8c-0.1-0.1-0.1-0.2 0.1-0.3l1.4-0.8c0.1-0.1 0.3-0.1 0.4 0z"/>
					<path id="&lt;Path&gt;" class="s41" d="m777.3 262.8l1.4 0.8c0.1 0.1 0.1 0.2 0 0.3l-1.4 0.8c-0.2 0.1-0.4 0.1-0.5 0l-1.4-0.8c-0.1-0.1-0.1-0.2 0-0.3l1.4-0.8c0.1-0.1 0.4-0.1 0.5 0z"/>
					<path id="&lt;Path&gt;" class="s41" d="m768.3 265.1l-1.4-0.9c-0.1 0-0.1-0.1 0-0.2l1.5-0.8c0.1-0.1 0.3-0.1 0.4 0l1.4 0.8c0.2 0.1 0.2 0.2 0 0.2l-1.4 0.9c-0.1 0-0.3 0-0.5 0z"/>
					<path id="&lt;Path&gt;" class="s41" d="m782.5 263.4l1.4 0.8c0.1 0.1 0.1 0.2 0 0.3l-1.4 0.8c-0.1 0-0.3 0-0.5 0l-1.4-0.8c-0.1-0.1-0.1-0.2 0-0.3l1.4-0.8c0.2-0.1 0.4-0.1 0.5 0z"/>
					<path id="&lt;Path&gt;" class="s41" d="m774 265.6l-1.4-0.8c-0.2-0.1-0.1-0.2 0-0.2l1.4-0.9c0.1 0 0.3 0 0.5 0l1.4 0.9c0.1 0 0.1 0.1 0 0.2l-1.4 0.8c-0.2 0.1-0.4 0.1-0.5 0z"/>
					<path id="&lt;Path&gt;" class="s41" d="m779.4 264l1.5 0.9c0.1 0 0.1 0.2 0 0.2l-1.5 0.9c-0.1 0-0.3 0-0.4 0l-1.4-0.9c-0.2 0-0.2-0.2 0-0.2l1.4-0.9c0.1 0 0.3 0 0.4 0z"/>
					<path id="&lt;Path&gt;" class="s41" d="m770.5 266.3l-1.4-0.8c-0.1-0.1-0.1-0.2 0-0.3l1.4-0.8c0.2-0.1 0.4-0.1 0.5 0l1.4 0.8c0.1 0.1 0.1 0.2 0 0.3l-1.4 0.8c-0.1 0.1-0.4 0.1-0.5 0z"/>
					<path id="&lt;Path&gt;" class="s41" d="m776.2 266.9l-1.5-0.8c-0.1-0.1-0.1-0.2 0-0.3l1.5-0.8c0.1-0.1 0.3-0.1 0.4 0l1.4 0.8c0.2 0.1 0.2 0.2 0 0.3l-1.4 0.8c-0.1 0.1-0.3 0.1-0.4 0z"/>
					<path id="&lt;Path&gt;" class="s41" d="m772.7 267.6l-1.4-0.8c-0.2-0.1-0.2-0.2 0-0.3l1.4-0.8c0.1-0.1 0.3-0.1 0.5 0l1.4 0.8c0.1 0.1 0.1 0.2 0 0.3l-1.5 0.8c-0.1 0.1-0.3 0.1-0.4 0z"/>
					<path id="&lt;Path&gt;" class="s41" d="m778.3 268.2l-1.4-0.9c-0.1 0-0.1-0.2 0-0.2l1.4-0.9c0.2 0 0.4 0 0.5 0l1.4 0.9c0.1 0 0.1 0.2 0 0.2l-1.4 0.9c-0.1 0-0.3 0-0.5 0z"/>
					<path id="&lt;Path&gt;" class="s41" d="m774.9 268.9l-1.5-0.9c-0.1 0-0.1-0.2 0-0.2l1.5-0.9c0.1 0 0.3 0 0.4 0l1.4 0.9c0.2 0 0.2 0.2 0 0.2l-1.4 0.8c-0.1 0.1-0.3 0.1-0.4 0.1z"/>
					<path id="&lt;Path&gt;" class="s41" d="m781 269.4c-0.2 0.1-0.4 0.1-0.5 0l-1.4-0.8c-0.1-0.1-0.1-0.2 0-0.3l1.4-0.8c0.1-0.1 0.3-0.1 0.5 0l1.4 0.8c0.1 0.1 0.1 0.2 0 0.3z"/>
					<path id="&lt;Path&gt;" class="s41" d="m777 270.1l-1.4-0.8c-0.1-0.1-0.1-0.2 0-0.3l1.4-0.8c0.2-0.1 0.4-0.1 0.5 0l1.4 0.8c0.1 0.1 0.1 0.2 0 0.3l-1.4 0.8c-0.1 0.1-0.4 0.1-0.5 0z"/>
					<path id="&lt;Path&gt;" class="s41" d="m764 263.3c0.1-0.1 0.3-0.1 0.5 0l10.4 6c0.1 0.1 0.1 0.2 0 0.3l-1.4 0.8c-0.1 0.1-0.4 0.1-0.5 0l-10.4-6c-0.1-0.1-0.2-0.2 0-0.3z"/>
					<path id="&lt;Path&gt;" class="s41" d="m779.7 271.4c-0.1 0.1-0.4 0.1-0.5 0l-1.4-0.8c-0.1-0.1-0.1-0.2 0-0.3l1.4-0.8c0.2-0.1 0.4-0.1 0.5 0l1.4 0.8c0.1 0.1 0.1 0.2 0 0.3z"/>
					<path id="&lt;Path&gt;" class="s41" d="m775.2 269.8c0.2-0.1 0.4-0.1 0.5 0l1.4 0.8c0.1 0.1 0.1 0.2 0 0.3l-1.4 0.8c-0.1 0.1-0.3 0.1-0.5 0l-1.4-0.8c-0.1-0.1-0.1-0.2 0-0.3z"/>
					<path id="&lt;Path&gt;" class="s41" d="m781.6 265.3l1.4 0.8c0.2 0.1 0.2 0.2 0 0.3l-1.4 0.8c-0.1 0.1-0.3 0.1-0.5 0l-1.4-0.8c-0.1-0.1-0.1-0.2 0-0.3l1.4-0.8c0.2-0.1 0.4-0.1 0.5 0z"/>
					<path id="&lt;Path&gt;" class="s41" d="m769.7 263.1l-1.5-0.8c-0.1-0.1-0.1-0.2 0-0.3l1.5-0.8c0.1-0.1 0.3-0.1 0.4 0l1.4 0.8c0.2 0.1 0.2 0.2 0 0.3l-1.4 0.8c-0.1 0.1-0.3 0.1-0.4 0z"/>
					<path id="&lt;Path&gt;" class="s41" d="m766.2 263.8l-1.4-0.8c-0.2-0.1-0.2-0.2 0-0.3l1.4-0.8c0.1-0.1 0.3-0.1 0.5 0l1.4 0.8c0.1 0.1 0.1 0.2 0 0.3l-1.5 0.8c-0.1 0.1-0.3 0.1-0.4 0z"/>
					<path id="&lt;Path&gt;" class="s41" d="m767.5 261.9l-1.4-0.9c-0.2 0-0.1-0.2 0-0.2l1.4-0.8c0.1-0.1 0.3-0.1 0.5 0l1.4 0.8c0.1 0 0.1 0.2 0 0.2l-1.5 0.9c-0.1 0-0.3 0-0.4 0z"/>
					<path id="&lt;Path&gt;" class="s41" d="m770.8 259l1.4 0.8c0.1 0.1 0.1 0.2 0 0.3l-1.4 0.8c-0.2 0.1-0.4 0.1-0.5 0l-1.4-0.8c-0.1-0.1-0.1-0.2 0-0.3l1.4-0.8c0.1-0.1 0.3-0.1 0.5 0z"/>
					<path id="&lt;Path&gt;" class="s41" d="m758.5 251.9l3 1.7c0.1 0.1 0.1 0.2 0 0.3l-1.5 0.8c-0.1 0.1-0.3 0.1-0.4 0l-3-1.7c-0.1-0.1-0.1-0.2 0.1-0.3l1.4-0.8c0.1-0.1 0.3-0.1 0.4 0z"/>
					<path id="&lt;Path&gt;" class="s41" d="m762.1 254l1.4 0.8c0.1 0.1 0.1 0.2 0 0.3l-1.4 0.8c-0.1 0-0.3 0-0.5 0l-1.4-0.9c-0.1 0-0.1-0.1 0-0.2l1.4-0.8c0.2-0.1 0.4-0.1 0.5 0z"/>
					<path id="&lt;Path&gt;" class="s41" d="m753.5 253.8l-1.4-0.8c-0.2-0.1-0.2-0.2 0-0.3l1.4-0.8c0.1-0.1 0.3-0.1 0.5 0l1.4 0.8c0.1 0.1 0.1 0.2 0 0.3l-1.5 0.8c-0.1 0.1-0.3 0.1-0.4 0z"/>
					<path id="&lt;Path&gt;" class="s41" d="m752.4 257.6l0.2-0.1 1.6 1v0.1l-0.7 0.4h-0.2l-1.6-0.9v-0.2z"/>
					<path id="&lt;Path&gt;" class="s41" d="m753.7 257l1.6 0.9v0.1l-0.7 0.4h-0.2l-1.6-0.9v-0.2l0.7-0.3z"/>
					<path id="&lt;Path&gt;" class="s41" d="m754.4 258.7h0.2l1.6 0.9v0.2l-0.7 0.3h-0.2l-1.6-0.9v-0.1z"/>
					<path id="&lt;Path&gt;" class="s41" d="m758.7 256.8l-4.3-2.5c-0.1-0.1-0.2-0.2 0-0.3l1.4-0.8c0.1-0.1 0.3 0 0.5 0l4.3 2.6c0.2 0 0.2 0.2 0.1 0.2l-1.5 0.9c-0.1 0-0.3 0-0.5-0.1z"/>
					<path id="&lt;Path&gt;" class="s41" d="m761 258.1l-1.4-0.8c-0.2-0.1-0.2-0.2 0-0.3l1.4-0.8c0.1-0.1 0.3-0.1 0.5 0l1.4 0.8c0.1 0.1 0.1 0.2 0 0.3l-1.5 0.8c-0.1 0.1-0.3 0.1-0.4 0z"/>
					<path id="&lt;Path&gt;" class="s41" d="m752.1 255.4l1.4-0.9c0.2 0 0.4 0 0.5 0q2.7 1.6 5.4 3.2c0.1 0.1 0.1 0.2 0 0.2l-1.4 0.9c-0.2 0-0.4 0-0.5 0q-2.7-1.6-5.4-3.2c-0.1 0-0.1-0.2 0-0.2z"/>
					<path id="&lt;Path&gt;" class="s41" d="m767.3 254.5l1.4 0.9c0.2 0 0.2 0.2 0 0.2l-1.4 0.9c-0.1 0-0.3 0-0.4 0l-1.5-0.9c-0.1 0-0.1-0.2 0-0.2l1.5-0.9c0.1 0 0.3 0 0.4 0z"/>
					<path id="&lt;Path&gt;" class="s41" d="m764.4 252.2c-0.1 0.1-0.2 0.1-0.3 0l-0.9-0.5q-0.1-0.1 0-0.1l0.9-0.6c0.1 0 0.2 0 0.3 0l0.9 0.6q0.1 0 0 0.1z"/>
					<path id="&lt;Path&gt;" class="s41" d="m765.8 253c-0.1 0.1-0.3 0.1-0.3 0.1l-0.9-0.6c-0.1 0-0.1-0.1 0-0.1l0.9-0.6c0 0 0.2 0 0.3 0l0.9 0.6q0.1 0 0 0.1z"/>
					<path id="&lt;Path&gt;" class="s41" d="m760.7 250.7l3.7 2.1c0.1 0.1 0.1 0.2 0 0.3l-1.4 0.8c-0.1 0.1-0.4 0.1-0.5 0l-3.7-2.1c-0.1-0.1-0.1-0.2 0-0.3l1.4-0.8c0.1-0.1 0.3-0.1 0.5 0z"/>
					<path id="&lt;Path&gt;" class="s41" d="m765.2 253.3l1.4 0.8c0.1 0.1 0.1 0.2 0 0.3l-1.5 0.8c-0.1 0.1-0.3 0.1-0.4 0l-1.4-0.8c-0.2-0.1-0.2-0.2 0-0.3l1.4-0.8c0.1-0.1 0.3-0.1 0.5 0z"/>
					<path id="&lt;Path&gt;" class="s41" d="m764.3 255.2l1.4 0.8c0.1 0.1 0.1 0.2 0 0.3l-1.4 0.8c-0.2 0.1-0.4 0.1-0.5 0l-1.4-0.8c-0.1-0.1-0.2-0.2 0-0.3l1.4-0.8c0.1-0.1 0.3-0.1 0.5 0z"/>
					<path id="&lt;Path&gt;" class="s41" d="m746.8 253.2c0.1 0 0.3 0 0.4 0.1l1.4 0.8c0.2 0 0.1 0.2 0 0.2l-1.4 0.9c-0.1 0-0.3 0-0.5 0l-1.4-0.9c-0.1 0-0.1-0.2 0-0.2z"/>
					<path id="&lt;Path&gt;" class="s41" d="m753.3 245.8c-0.1 0-0.3 0-0.3 0l-0.9-0.5c-0.1-0.1-0.1-0.2 0-0.2l0.9-0.5c0.1-0.1 0.2-0.1 0.3 0l0.9 0.5c0.1 0 0.1 0.1 0 0.2z"/>
					<path id="&lt;Path&gt;" class="s41" d="m754.6 246.6c0 0-0.2 0-0.3 0l-0.9-0.5c0-0.1 0-0.2 0-0.2l0.9-0.5c0.1-0.1 0.3-0.1 0.3 0l0.9 0.5q0.2 0.1 0 0.2z"/>
					<path id="&lt;Path&gt;" class="s41" d="m753.2 246.6l-1.4 0.9c-0.2 0-0.4 0-0.5 0l-1.4-0.9c-0.1 0-0.1-0.1 0-0.2l1.4-0.8c0.1-0.1 0.3-0.1 0.5 0l1.4 0.8c0.1 0.1 0.1 0.2 0 0.2z"/>
					<path id="&lt;Path&gt;" class="s41" d="m753.5 246.8c0.1-0.1 0.3-0.1 0.5 0l1.4 0.8c0.1 0.1 0.1 0.2 0 0.3l-1.4 0.8c-0.2 0.1-0.4 0.1-0.5 0l-1.4-0.8c-0.1-0.1-0.1-0.2 0-0.3z"/>
					<path id="&lt;Path&gt;" class="s41" d="m751.4 248c0.1 0 0.4-0.1 0.5 0l1.4 0.8c0.1 0.1 0.1 0.2 0 0.3l-1.4 0.8c-0.2 0.1-0.4 0.1-0.5 0l-1.4-0.8c-0.1-0.1-0.1-0.2 0-0.3z"/>
					<path id="&lt;Path&gt;" class="s41" d="m751.1 247.8q-1.9 1.1-3.7 2.2c-0.1 0.1-0.3 0.1-0.5 0l-1.4-0.8c-0.1-0.1-0.1-0.2 0-0.3q1.9-1.1 3.7-2.1c0.2-0.1 0.4-0.1 0.5 0l1.4 0.8c0.1 0 0.1 0.2 0 0.2z"/>
					<path id="&lt;Path&gt;" class="s41" d="m749.1 251.3l-1.4-0.9c-0.1 0-0.1-0.2 0-0.2l1.4-0.9c0.2 0 0.4 0 0.5 0l1.4 0.9c0.1 0 0.1 0.2 0 0.2l-1.4 0.9c-0.1 0-0.4 0-0.5 0z"/>
					<path id="&lt;Path&gt;" class="s41" d="m746.8 252.6l-1.4-0.8c-0.1-0.1-0.1-0.2 0-0.3l1.5-0.8c0.1-0.1 0.3-0.1 0.4 0l1.4 0.8c0.2 0.1 0.2 0.2 0 0.3l-1.4 0.8c-0.1 0-0.3 0-0.5 0z"/>
					<path id="&lt;Path&gt;" class="s41" d="m740.9 251.5q1.9-1.1 3.7-2.1c0.2-0.1 0.4-0.1 0.5 0l1.4 0.8c0.1 0.1 0.1 0.2 0 0.3q-1.8 1-3.7 2.1c-0.1 0.1-0.3 0.1-0.5 0l-1.4-0.8c-0.1-0.1-0.1-0.2 0-0.3z"/>
					<path id="&lt;Path&gt;" class="s41" d="m744.6 252c0.1-0.1 0.3-0.1 0.4 0l1.4 0.8c0.2 0.1 0.2 0.2 0 0.3l-1.4 0.8c-0.1 0.1-0.3 0.1-0.4 0l-1.5-0.8c-0.1-0.1-0.1-0.2 0-0.3z"/>
					<path id="&lt;Path&gt;" class="s41" d="m751.3 252.5l-1.4-0.8c-0.1-0.1-0.1-0.2 0-0.3l1.4-0.8c0.1-0.1 0.3-0.1 0.5 0l1.4 0.8c0.1 0.1 0.1 0.2 0 0.3l-1.4 0.8c-0.2 0.1-0.4 0.1-0.5 0z"/>
					<path id="&lt;Path&gt;" class="s41" d="m753.6 251.2l-1.4-0.8c-0.1-0.1-0.2-0.2 0-0.3l1.4-0.8c0.1-0.1 0.3-0.1 0.5 0l1.4 0.8c0.1 0.1 0.1 0.2 0 0.3l-1.5 0.8c-0.1 0.1-0.3 0.1-0.4 0z"/>
					<path id="&lt;Path&gt;" class="s41" d="m756.2 250.6l1.5 0.8c0.1 0.1 0.1 0.2 0 0.3l-1.5 0.8c-0.1 0-0.3 0-0.4 0l-1.4-0.9c-0.2 0-0.2-0.1 0-0.2l1.4-0.8c0.1-0.1 0.3-0.1 0.4 0z"/>
					<path id="&lt;Path&gt;" class="s41" d="m756.2 248.1l1.4 0.8c0.1 0.1 0.1 0.2 0 0.3l-1.4 0.8c-0.2 0.1-0.4 0.1-0.5 0l-1.4-0.8c-0.1-0.1-0.1-0.2 0-0.3l1.4-0.8c0.1-0.1 0.3-0.1 0.5 0z"/>
					<path id="&lt;Path&gt;" class="s41" d="m761.6 250.6c-0.1 0.1-0.2 0.1-0.3 0l-0.9-0.5c-0.1 0-0.1-0.1 0-0.1l0.9-0.6c0.1 0 0.2 0 0.3 0l0.9 0.6c0.1 0 0.1 0.1 0 0.1z"/>
					<path id="&lt;Path&gt;" class="s41" d="m756 247.4c-0.1 0-0.2 0-0.3 0l-0.9-0.5c-0.1-0.1-0.1-0.2 0-0.2l0.9-0.5c0.1-0.1 0.3-0.1 0.3 0l0.9 0.5c0.1 0 0.1 0.1 0 0.2z"/>
					<path id="&lt;Path&gt;" class="s41" d="m757.4 248.2c-0.1 0-0.2 0-0.3 0l-0.9-0.5q-0.1-0.1 0-0.2l0.9-0.5c0.1-0.1 0.2-0.1 0.3 0l0.9 0.5c0.1 0 0.1 0.1 0 0.2z"/>
					<path id="&lt;Path&gt;" class="s41" d="m758.9 249c-0.1 0.1-0.3 0.1-0.3 0l-0.9-0.5q-0.2-0.1 0-0.2l0.9-0.5c0 0 0.2 0 0.3 0l0.9 0.5q0.1 0.1 0 0.2z"/>
					<path id="&lt;Path&gt;" class="s41" d="m760.2 249.8c0 0.1-0.2 0.1-0.3 0l-0.9-0.5q-0.1-0.1 0-0.2l0.9-0.5c0.1 0 0.3 0 0.3 0l0.9 0.5q0.2 0.1 0 0.2z"/>
					<path id="&lt;Path&gt;" class="s41" d="m758.4 249.3l1.4 0.9c0.1 0 0.1 0.2 0 0.2l-1.4 0.8c-0.2 0.1-0.4 0.1-0.5 0.1l-1.4-0.9c-0.1 0-0.1-0.2 0-0.2l1.4-0.9c0.1 0 0.3 0 0.5 0z"/>
					<path id="&lt;Path&gt;" class="s41" d="m750.4 256.4h0.2l1.6 0.9v0.1l-0.7 0.4h-0.2l-1.6-0.9v-0.1z"/>
					<path id="&lt;Path&gt;" class="s41" d="m748.9 254.5c0.2-0.1 0.4-0.1 0.5 0l1.4 0.8c0.1 0.1 0.1 0.2 0 0.3l-1.4 0.8c-0.1 0.1-0.4 0.1-0.5 0l-1.4-0.8c-0.1-0.1-0.1-0.2 0-0.3z"/>
					<path id="&lt;Path&gt;" class="s41" d="m751.2 255.1l-1.4-0.8c-0.1-0.1-0.1-0.2 0-0.3l1.4-0.8c0.2-0.1 0.4-0.1 0.5 0l1.4 0.8c0.1 0.1 0.1 0.2 0 0.3l-1.4 0.8c-0.2 0.1-0.4 0.1-0.5 0z"/>
					<path id="&lt;Path&gt;" class="s41" d="m749 253.8l-1.4-0.8c-0.1-0.1-0.1-0.2 0-0.3l1.4-0.8c0.2 0 0.4 0 0.5 0l1.4 0.9c0.1 0 0.1 0.1 0 0.2l-1.4 0.8c-0.1 0.1-0.3 0.1-0.5 0z"/>
					<path id="&lt;Path&gt;" class="s41" d="m781.6 273.5c0.1-0.1 0.3-0.1 0.5 0l1.4 0.8c0.1 0.1 0.1 0.2 0 0.3l-1.4 0.8c-0.2 0.1-0.4 0.1-0.5 0l-1.4-0.8c-0.2-0.1-0.1-0.2 0-0.3z"/>
					<path id="&lt;Path&gt;" class="s41" d="m757.4 259.4c0.1 0 0.3 0 0.5 0l1.4 0.9c0.1 0 0.1 0.2 0 0.2l-1.5 0.8c-0.1 0.1-0.3 0.1-0.4 0l-1.4-0.8c-0.2 0-0.2-0.2 0-0.2z"/>
					<path id="&lt;Path&gt;" class="s41" d="m759.6 260.7c0.1-0.1 0.3-0.1 0.4 0l1.4 0.8c0.2 0.1 0.2 0.2 0 0.3l-1.4 0.8c-0.1 0.1-0.3 0.1-0.4 0l-1.5-0.8c-0.1-0.1-0.1-0.2 0-0.3z"/>
					<path id="&lt;Path&gt;" class="s41" d="m776.7 259.4c-0.1 0.1-0.2 0.1-0.3 0l-0.9-0.5c-0.1 0-0.1-0.1 0-0.2l0.9-0.5c0.1 0 0.2 0 0.3 0l0.9 0.5c0.1 0.1 0.1 0.1 0 0.2z"/>
					<path id="&lt;Path&gt;" class="s41" d="m778.1 260.2c-0.1 0.1-0.2 0.1-0.3 0l-0.9-0.5q-0.1-0.1 0-0.2l0.9-0.5c0.1 0 0.2 0 0.3 0l0.9 0.5c0.1 0.1 0.1 0.1 0 0.2z"/>
					<path id="&lt;Path&gt;" class="s41" d="m768.5 254.7c-0.1 0-0.2 0-0.3 0l-0.9-0.6c-0.1 0-0.1-0.1 0-0.1l0.9-0.6c0.1 0 0.2 0 0.3 0l0.9 0.6c0.1 0 0.1 0.1 0 0.1z"/>
					<path id="&lt;Path&gt;" class="s41" d="m767.1 253.9c-0.1 0-0.2 0-0.3 0l-0.9-0.6c0 0 0-0.1 0-0.1l0.9-0.6c0.1 0 0.3 0 0.3 0l0.9 0.6q0.2 0 0 0.1z"/>
					<path id="&lt;Path&gt;" class="s41" d="m763 251.4c-0.1 0.1-0.2 0.1-0.3 0.1l-0.9-0.6q-0.1-0.1 0-0.1l0.9-0.6c0.1 0 0.2 0 0.3 0l0.9 0.6c0.1 0 0.1 0.1 0 0.1z"/>
				</g>
				<path id="&lt;Path&gt;" class="s54" d="m778 244.1l17.3 10.1-9.9 5.7-17.3-10.1z"/>
			</g>
			<path id="&lt;Path&gt;" class="s46" d="m766.5 236.6c-3.2 4.1-5.6 5.9-6.6 9.1-0.3 0.9-1.8 14.9-1.7 15.1 0.5 2.5 5 1.8 6.4 0.6 2.2-1.9 2.9-6.4 3.7-8.7 6.9-6.3 5.5-5 7.2-14.3 0 0-9.5-1.4-9-1.8z"/>
			<path id="&lt;Path&gt;" class="s43" d="m765 205.6c-1 8.3-0.6 22.2-0.8 30.6 3.2 3.7 8.2 3.4 11.6 2.5 1-9.7 2.5-19.5 1.9-29.3 1.4-5.7-7.1-8.9-12.7-3.8z"/>
			<g id="&lt;Group&gt;">
				<path id="&lt;Path&gt;" class="s55" d="m730.6 222.1c0-1.2 0.8-1.6 1.8-1.1l43.4 25c1 0.6 1.8 2 1.8 3.2l-0.1 34c0 1.1-0.8 1.6-1.8 1l-43.4-25c-1-0.6-1.8-2-1.8-3.1z"/>
				<path id="&lt;Path&gt;" class="s50" d="m777.5 283.2l0.1-34 2.4-1.4-0.1 34q0 0.2-0.1 0.4-0.1 0.5-0.5 0.8l-2.3 1.4c0.3-0.2 0.5-0.6 0.5-1.2z"/>
				<path id="&lt;Path&gt;" class="s50" d="m731.1 220.9l2.4-1.4q0 0 0 0 0.1 0 0.1 0 0.1 0 0.1-0.1 0.1 0 0.1 0 0 0 0 0 0 0 0 0 0.1 0 0.1 0 0.1 0 0.2 0 0 0 0 0 0 0 0 0 0.1 0 0.1 0 0.1 0 0.2 0.1 0 0 0 0 0.1 0 0.1 0 0 0 0.1 0 0.1 0.1 0.2 0.1l43.4 25.1q0.2 0.1 0.5 0.4 0 0 0.1 0 0 0.1 0 0.1 0.1 0 0.1 0.1 0 0 0.1 0 0 0.1 0.1 0.2 0 0.1 0.1 0.1 0 0 0 0 0 0.1 0 0.1 0.1 0.1 0.1 0.1 0.1 0.1 0.1 0.2 0 0 0 0 0 0 0 0 0.1 0.1 0.1 0.2 0.1 0 0.1 0.1 0 0.1 0.1 0.2 0 0 0 0 0 0 0 0 0 0.1 0 0.1 0.1 0.1 0.1 0.2 0 0.1 0 0.1 0 0 0 0 0 0.1 0.1 0.1 0 0.1 0 0.2 0 0.1 0 0.1 0 0.1 0 0.1 0 0 0 0.1 0.1 0.1 0.1 0.3l-2.4 1.4q0-0.2 0-0.4-0.1-0.1-0.1-0.1 0-0.2-0.1-0.4 0 0 0 0 0-0.2-0.1-0.4 0-0.1 0-0.1-0.1-0.2-0.2-0.4 0 0 0 0-0.2-0.2-0.3-0.4 0 0 0 0-0.2-0.2-0.3-0.3 0-0.1-0.1-0.1 0-0.1-0.1-0.1-0.2-0.3-0.5-0.5l-43.4-25q-0.1-0.1-0.3-0.1 0 0-0.1 0-0.1-0.1-0.3-0.1 0 0 0 0-0.1 0-0.3 0 0 0 0 0-0.1 0-0.3 0.1h0.1q0 0-0.1 0z"/>
			</g>
			<g id="&lt;Group&gt;">
				<path id="&lt;Path&gt;" class="s46" d="m799.7 243.2c-0.8 0.6-1.6 1.1-4.1 1.8-2.2 0.6-5.3 0.5-6.1 1l-6.6 4.3c-2 1.5-2.1 2.9-1.4 3.2 0.8 0.5 2.7-0.3 4.9-1.4-2.7 4.3-3.4 5.6-4.4 9.7-0.7 3.2 4.8 2.8 5.8 2.3 4.4-2.1 5.7-6.9 10-9.2 4.7-2.5 5.7-4.2 9.1-8.3z"/>
				<path id="&lt;Path&gt;" class="s49" d="m822.4 219.4c-8.9 6.5-18.2 17.1-26.7 24.5-0.2 2.1 5.5 7.6 7.4 8.1 8.9-6.9 18.7-13.4 27.2-20.5 4.7-3.9 4.9-7 3.3-9.7-1.7-2.9-6.5-5.8-11.2-2.4z"/>
			</g>
		</g>
		<g id="&lt;Group&gt;">
			<g id="&lt;Group&gt;">
				<g id="&lt;Group&gt;">
					<path id="&lt;Path&gt;" class="s46" d="m844.7 288c1-1.7 2.2-6.3 3.8-7.7 2.5-2.3 5.9-4.5 8.9-8l4.6 2.3c2.1 9.8-2.9 10.7-6.8 18.5-3 2-12.5-1.7-10.5-5.1z"/>
					<path id="&lt;Path&gt;" class="s45" d="m858.4 276.9c0 0-1.5 3.5-2 3.9-1.1 0.8-13.1 4.9-11.5 8.8 1.1 2.7 7.2 3.9 8.7 3.6 1.2-0.2 1.9-1.8 3.6-4.8 2.4-4.3 4.5-7.8 1.2-11.5z"/>
					<path id="&lt;Path&gt;" class="s46" d="m856.2 273.7c4.8-8.4 9.8-22 14.3-30.5 1.9-3.5 3.7-4.4 6.2-7.8 8.1 2.4 9.5 6.7 7 11.9-3.7 7.5-16.2 23.9-21.5 30z"/>
					<path id="&lt;Path&gt;" class="s46" d="m848 281c-1.3 3-3.8 3.5-5.3 5.5-0.4 2.2 2.6 1.6 4.6 0.3l3.2-2.1c5.8-0.7 7.4-2.4 9.8-7.9l-3.7-3.1c-2.5 2.1-6.7 2.4-8.6 7.3z"/>
					<g id="&lt;Group&gt;">
						<path id="&lt;Path&gt;" class="s56" d="m853.2 286.2q1.2 0.5 2.4 1.5c2.7 2.3 5.2 6.9 7 13.9-0.4-0.2-2.8-1.1-2.9-1.5-1.6-5.4-3.6-8.8-5.7-10.6-1.8-1.6-3.7-1.7-5.5-1.1 1.5-0.9 3-1.6 4.7-2.2z"/>
						<g id="&lt;Group&gt;">
							<path id="&lt;Path&gt;" class="s57" d="m858.1 299.3c1.2-0.4 6.8 3.4 6.8 4.1-2.6 7.4-24.7 39.3-29.2 37.1-2.5-1.2-6.8-4.6-7.8-5.5-4.3-3.8-1.7-16.2 2.1-25.2z"/>
							<path id="&lt;Path&gt;" class="s58" d="m839.7 316c2.9 8.3 2.6 27.8-4 24.5-2.5-1.2-6.8-4.6-7.8-5.5-4.3-3.8-1.7-16.2 2.1-25.2z"/>
							<path id="&lt;Path&gt;" class="s56" d="m865 303.4c2.3 6.6 5.8 15.5 3.8 20.1-3.4 8.1-20.6 12.6-27.9 16.4-11.1 5.7-9.1-14.2-4-25.9z"/>
							<path id="&lt;Path&gt;" class="s57" d="m858.1 299.3c1.2-0.4 6.8 3.4 6.8 4.1-0.7 6.9-4.2 12.5-9.6 14.9-3.5 1.6-10.1 0.3-15.6-2.3l-9.7-6.2z"/>
							<path id="&lt;Path&gt;" class="s58" d="m864.9 303.4c-0.7 6.9-4.2 12.5-9.6 14.9-3.5 1.6-10.1 0.3-15.6-2.3l-2.7-1.7c1.9-0.8 27.8-12.5 27.9-10.9z"/>
						</g>
						<path id="&lt;Path&gt;" class="s56" d="m832.3 310.9c2.3-9.3 6.1-17.1 10.4-21.4 3-3.1 6.8-4.8 10.5-3.3-1.7 0.6-3.2 1.3-4.7 2.2-1.5 0.5-2.8 1.5-4.1 2.8-4.1 4.1-7.8 11.9-10 21-0.2 0-2.1-1.2-2.1-1.3z"/>
					</g>
					<g id="&lt;Group&gt;">
						<path id="&lt;Path&gt;" class="s46" d="m851.5 292.8c0.8 0.4 1.4 1 1.7 1.1 0.3 0 0.7 0.1 1.2-0.2 0.5-0.2 0.8-0.7 1.1-1.2 0.2-0.4 0.3-0.6 0.4-0.8 0.4-0.8 0.5-1.9 0.6-2.8-1.7 0.1-1.5 0.6-2.5 3z"/>
						<g id="&lt;Group&gt;">
							<path id="&lt;Path&gt;" class="s46" d="m846.2 291.5c0.8 1.1 2 1.8 3.4 1.1 1.1-0.5 1.4-1 2.2-1.7 0.8-0.6 1.3-2.9 1.3-4.5-1.8 0.1-2 0.6-2.8 3.2z"/>
							<path id="&lt;Path&gt;" class="s46" d="m848.9 292.6c1 0.5 1.3 0.8 1.7 0.9 0.3 0 1.7-0.3 2.2-0.6 0.6-0.3 1-0.9 1.3-1.5 0.2-0.4 0.4-0.7 0.5-0.9 0.4-1 0.6-2.3 0.8-3.3-1.9-0.1-2.1 0.7-3.2 3.5z"/>
							<path id="&lt;Path&gt;" class="s46" d="m846.2 291.6c0.2 0.1 0.4 0.2 0.7 0.1 1.1-0.2 1.7-0.9 2.2-1.1 1.1-0.7 1.7-3 2.1-4.2-1.5-0.4-2.3 0.7-3.5 2.5-1.7 0.8-2.8 1.3-2.9 1.7 0 0.2 0.7 0.7 1.4 1z"/>
						</g>
					</g>
				</g>
				<path id="&lt;Path&gt;" class="s59" d="m896 166.5c5.7 5.1 9.7 18 10.1 28 0.5 11.1 8 20.7 15.3 18.4-1.8 12-15.4 15.3-21.1 0.1-5.7-15.5-3.9-39.7-4.3-46.5z"/>
				<path id="&lt;Path&gt;" class="s59" d="m877 159.2c-5.9 1-9.9 2.8-11.2 5.9-2.9 6.8 0.3 16.1 2 25.5 1.9 10 2.4 20.1 0.4 27.3l14.1-16 6.4-26.8z"/>
				<g id="&lt;Group&gt;">
					<path id="&lt;Path&gt;" class="s45" d="m878.4 369.7c2.2 4.9 8.4 21.8 8.9 26.2 0.2 2.1 0.6 4.4 0.3 8 0 0 5.3-0.3 5.8-0.5 0.6-0.2 6.7-5.8 6.7-5.8 0 0-2.7-13.4-3-14.1-4-7.6 0.6-8.9-6.8-12.5-3.2-1.6-4.5-5.4-6-8.5z"/>
					<path id="&lt;Path&gt;" class="s60" d="m887.7 400.2c0.2 3.6-0.9 5 0 6.6 1.3 2.1 5.8 0 7.2-0.9 2.1-1.2 5.2-5.1 5.8-8.1-1.7-4.9-2.3-9.6-3.4-14.7l5.6 11.1 1-0.6c-1.8-4.2-3.5-9.2-4.5-13-0.4-1.5-0.4-3.1-0.7-3.9-1.4-3.5-5-4.4-8.1-5.9 1.9 6.7 7.7 21.2 3.2 27.1-1.5 2-4.7 2.7-6.1 2.3z"/>
				</g>
				<path id="&lt;Path&gt;" class="s45" d="m853 324.6l25.8 45.8c3.2 2.1 9.6 8.9 6.2-6.4-3.4-12-3.4-23.7-10.3-34.2-2.5-3.7-3.4-3.1-5.8-6.3-6-7.7-16.5-5.4-15.9 1.1z"/>
				<g id="&lt;Group&gt;">
					<path id="&lt;Path&gt;" class="s46" d="m878.7 386.9c-0.3 5.4-2.2 23.2-3.7 27.5-0.7 1.9-1.5 4.1-3.3 7.2 0 0 4.8 2.1 5.4 2.2 0.6 0.1 8.6-2.2 8.6-2.2 0 0 3.5-13.2 3.5-14-0.1-8.6 4.6-7.7-0.4-14.2-2.2-2.9-1.7-6.9-1.6-10.3z"/>
					<path id="&lt;Path&gt;" class="s61" d="m873.4 418.3c-1.4 3.3-3.1 4.1-2.9 5.9 0.2 2.5 5.1 2.6 6.8 2.5 2.4-0.1 6.9-2.3 8.8-4.7 0.7-5.2 2.2-9.6 3.5-14.7l0.1 12.5 1.1-0.1c0.3-4.5 1.1-9.8 1.8-13.7 0.3-1.5 1-3 1.1-3.8 0.4-3.7-2.4-6.2-4.5-8.8-1.4 6.8-2.6 22.3-9.3 25.6-2.3 1.1-5.4 0.4-6.5-0.7z"/>
				</g>
				<path id="&lt;Path&gt;" class="s46" d="m875.3 335.6l3.5 52.8c1.5 2.6 5 7 6.7 5.7 0.7-1.2 1-6.3 1.6-7.8 2.6-14.4 7-26.8 6.7-37.3-0.4-10.2-0.8-9.4-1.6-13.7-1.9-9.6-16.7-18.3-16.9 0.3z"/>
				<path id="&lt;Path&gt;" class="s60" d="m894.9 203.4c9.9 5.8 17.5 14.6 14.3 16.5-3.2 1.8-13.9-1.3-23.8-7-10-5.8-15.4-12-12.2-13.8 3.2-1.9 11.7-1.4 21.7 4.3z"/>
				<path id="&lt;Path&gt;" class="s62" d="m853.2 322.6c-1.8 5.8 10.5 11.5 16.5 3.6l29.5-50.9-28.5-21.2c-3.4 10.1-4.6 12.2-7.3 22.9-3.8 14.7-7.7 33.1-10.2 45.6z"/>
				<path id="&lt;Path&gt;" class="s60" d="m896.7 343.2c-0.9-11.4-0.6-21.1 2-31.1 4.8-18 15.3-32.4-3.2-48.5l-10.7 1-15.4-8.9c-2.3 11.6-5.5 13-8.2 23.7-3.8 14.6-5.8 31.1-8.4 43.6-1.4 2.9 4.8 9.3 15.2 15.2 11.6 6.8 24.1 10.4 27.9 8.2 1.1-0.6 1.3-1.8 0.8-3.2z"/>
				<path id="&lt;Path&gt;" class="s45" d="m893 186.5c-0.5 2.9-3.1 9.5 0 16.8l-10.3 7.8-4.9-4.6c1.3-6.2 1.6-10 0.4-15.5z"/>
				<path id="&lt;Path&gt;" class="s60" d="m892.9 201.2c2.4 5.2 5.1 8 9.7 10.6 8.3 5 2.4 20.3-1.6 30.4-1.9 4.7-4.7 12.6-1.6 20.2 3.8 9.3 8.3 19.9 6.2 26.9l-0.1-0.1q-0.3 0.5-0.9 0.8c-3.4 2-14.9-1.3-25.5-7.5-9.8-5.6-14.3-14.5-12.5-17.1 4.3-9.9 2.1-25.5-1.5-35.6-4-4-4.8-7-3.7-11.8 0.8-3.5 8.3-14.8 11.1-18.3 1.2-1.5 3.6 0.5 5.9 1.4-0.9 4.3 9.4 8 14.5 0.1z"/>
				<path id="&lt;Path&gt;" class="s46" d="m897.1 215.1c-3.7 8-7.3 25.2-7.8 36.4-0.3 7.4 6.9 10.5 9.9 4.2 4.8-10.3 12.4-26.9 10.6-36.3-1.6-8.4-10.2-9.7-12.7-4.3z"/>
				<path id="&lt;Path&gt;" class="s61" d="m896.6 215.1c-2.3 5.4-4.7 14.9-6.1 23.9 1.1 4 11.7 11.4 13.4 8.8 3.9-10 7.6-22.1 6.1-29.3-1.8-8.3-11-8.9-13.4-3.4z"/>
				<path id="&lt;Path&gt;" class="s46" d="m867.4 165.6c-3.6 9.6 0.2 14.7 1 21.6 0.4 3.6 2.1 6.3 3.3 8.2 1.9 2.7 3.6 3.8 5.5 3.9 3.5 0.3 16-8.9 16-13.7l-0.1-18.5z"/>
				<path id="&lt;Path&gt;" class="s59" d="m899.1 228.8c-7.6-15.3-0.4-23.9 0.4-25.3 2.8-4.6 5.9-11.1 4.2-21.3-1.6-9.6-7.9-22.7-14.6-24.9-9.9-3.2-25.3 1.3-22.9 10.2 3.4 12.3 24.3 9.1 19.8 33-4.7 24.6 13.1 28.3 13.1 28.3z"/>
			</g>
			<g id="&lt;Group&gt;">
				<path id="&lt;Path&gt;" class="s46" d="m864.4 250.2l-7.3-0.7c-5.9 3.3-7.7 0.3-13 0.7-1.6 0.2-5.7 1.8-7.4 2-1.5 0.1-2.9-0.4-4.7-2.8 1.5-2.3 6.9-7.8 16.3-9.8 5.9 1.9 10.4 3.3 15.9 6.2z"/>
				<path id="&lt;Path&gt;" class="s46" d="m858.3 243.1c9.6 1.5 22.8 0.9 32.3 2.3 3.9 0.6 5 3 9.1 4.2 0.1 3.1-1.8 6.2-2.7 7.6-1.6 2.5-3.4 2-7.1 1.7-8.2-0.9-25-6.5-32.5-9.4z"/>
			</g>
		</g>
		<path id="&lt;Path&gt;" class="s41" d="m714.8 255.1q0-0.3 0-0.6c-0.1-4.5-0.1-7.5 0.6-9 1.3-2.5 3.3-2.3 6.8 0.3v0.1l8.4 6.6-0.1 4-10.3-8.1c-1.3-1-1.8-1.5-1.9-1.4-0.4 0.8-0.4 2.9-0.3 6.2z"/>
	</g>
</svg>