<?xml version="1.0" encoding="utf-8"?>
<!-- Generator: Adobe Illustrator 25.3.1, SVG Export Plug-In . SVG Version: 6.00 Build 0)  -->
<svg version="1.1" id="Layer_1" xmlns="http://www.w3.org/2000/svg" xmlns:xlink="http://www.w3.org/1999/xlink" x="0px" y="0px"
	 viewBox="0 0 2048 2048" style="enable-background:new 0 0 2048 2048;" xml:space="preserve">
<style type="text/css">
	.st0{fill:#E7F1FD;}
	.st1{fill:#CCCCCC;}
	.st2{fill:#C42A2A;}
	.st3{fill:#202D3A;}
	.st4{fill:#231F20;}
	.st5{fill:#F48133;}
	.st6{fill:#D5743E;}
	.st7{fill:#F62420;}
	.st8{fill:#EE8A51;}
	.st9{fill:#FFA775;}
	.st10{fill:#212121;}
	.st11{fill:#313F5A;}
	.st12{fill:#4E5063;}
	.st13{fill:#F8E8B0;}
	.st14{fill:#D5D5D5;}
	.st15{fill:#65687C;}
	.st16{fill:#F8F8F8;}
	.st17{fill:#CB6131;}
	.st18{fill:#3A3A3A;}
	.st19{fill:#434757;}
	.st20{fill:#5A5F70;}
	.st21{fill:#F6F6F6;}
	.st22{fill:#F8DBBB;}
	.st23{fill:#25313F;}
	.st24{fill:#354E6C;}
	.st25{fill:#EEBC99;}
	.st26{fill:#FFFFFF;}
</style>
<g>
	<path class="st0" d="M1683.19,1496.46c-99.6,11.45-199.87,15.79-300.07,16.96c-93.96,1.09-198.89,11.44-291.83-2.74
		c-178.59-27.25-368.83-31.32-550.74-31.32c-67.76-2.42-148.53-27.47-208.99-57.75c-101.36-50.75-183.18-154.46-177.97-267.7
		c3.31-71.97,41.12-139.52,93.55-188.92c48.74-45.93,113.02-82.31,134.53-145.73c13.53-39.89,7.2-83.4,9.46-125.46
		c7.68-143.36,123.78-268.84,262.65-305.26s291.89,8.75,402.26,100.56c45.18,37.58,84.79,82.9,136.32,111.14
		c71.29,39.07,157.1,40.85,237.88,31.7c80.78-9.15,160.8-28.25,242.1-27.44c81.29,0.81,167.27,25.03,219.7,87.16
		c49.6,58.77,60.97,142.8,45.98,218.23c-15,75.43-53.33,144.04-94.44,209.04c-21.37,33.79-44.4,69.3-45.62,109.26
		c-1.95,64.09,52.87,125.52,33.08,186.5C1812.59,1471.43,1742.48,1489.65,1683.19,1496.46z"/>
	<g>
		<ellipse class="st1" cx="1024" cy="1478.35" rx="852.98" ry="48.93"/>
		<g>
			<g>
				<path class="st2" d="M1110.84,549.01v934.46h-132.1v-924.7c0-10.5,4.26-20.01,11.14-26.9c6.9-6.89,16.4-11.14,26.91-11.14h55.99
					c17.7,0,32.57,12.08,36.83,28.45C1110.02,549.12,1110.42,549.07,1110.84,549.01z"/>
				<path class="st3" d="M1016.77,627.13v856.34h56.05V627.13c0-15.48-12.55-28.03-28.03-28.03h0
					C1029.31,599.11,1016.77,611.65,1016.77,627.13z"/>
				<path class="st4" d="M1110.84,558.76h-132.1c0-10.5,4.26-20.01,11.14-26.9c6.9-6.89,16.4-11.14,26.91-11.14h55.99
					c17.7,0,32.57,12.08,36.83,28.45c0.59,2.26,0.99,4.61,1.12,7.03C1110.81,557.04,1110.84,557.9,1110.84,558.76z"/>
			</g>
			<g>
				<g>
					<path class="st5" d="M1830.33,772.91l4.86,53.56l-0.43,0.76c-52.01,2.68-111.41,5.48-175.78,8.35
						c-1.96-5.91-4.3-11.68-7.1-17.3c-12.68-25.43-34.52-46.19-60.57-57.59c-26.07-11.39-56.13-13.31-83.42-5.34
						c-37.04,10.81-61.16,35.72-77.71,70.58c-2.98,6.27-5.43,12.85-7.39,19.63c-63.88,2.58-129.46,5.15-195.12,7.67l42.83-160.71
						c180.42-6.93,351.35-12,461.64-7.64c-10.8,19.11,25.67,54.1,83.07,55.85h0.01C1823.16,759.56,1830.33,772.91,1830.33,772.91z"
						/>
				</g>
				<g>
					<path class="st6" d="M1834.77,827.22l-42.18,75.75l-123.7,1.25c-0.52-23.29-2.61-46.83-9.89-68.65
						C1723.36,832.7,1782.76,829.9,1834.77,827.22z"/>
				</g>
				<g>
					<path class="st7" d="M1815.23,740.74h-0.01c-57.41-1.76-93.87-36.74-83.07-55.85c7.91-13.99,44.74-9.58,63.95-6.18
						C1799.41,699.84,1807.66,722.78,1815.23,740.74z"/>
				</g>
				<g>
					<path class="st8" d="M1794.62,664.15c0.16,4.69,0.69,9.56,1.47,14.55c-19.21-3.39-56.03-7.8-63.95,6.18
						c-110.29-4.36-281.22,0.71-461.64,7.64l-21.41-30.81c4.58-0.12,9.12-0.25,13.63-0.36c95.91-2.47,179.31-4.16,250.54-5.33
						c89.6-1.46,159.95-2.06,211.74-2.27C1765.82,661.17,1794.62,664.15,1794.62,664.15z"/>
				</g>
				<g>
					<path class="st9" d="M1725,653.76c-2.83,0.01-5.72,0.03-8.67,0.04c-3.78,0.03-7.66,0.04-11.62,0.06
						c-2.2,0.01-4.43,0.03-6.7,0.04c-1.06,0-2.12,0.01-3.2,0.01c-2.14,0.01-4.28,0.03-6.47,0.04c-0.94,0.01-1.88,0.01-2.83,0.03
						c-0.68,0.01-1.36,0.01-2.06,0.01c-2.16,0.01-4.36,0.04-6.57,0.05c-1.6,0.01-3.23,0.03-4.86,0.04
						c-1.33,0.01-2.67,0.03-4.02,0.03c-1,0.01-2.01,0.03-3.02,0.03c-2.84,0.03-5.71,0.05-8.63,0.08c-0.19,0-0.39,0.01-0.58,0
						c-1.59,0.03-3.18,0.04-4.8,0.05c-1.54,0.01-3.1,0.03-4.66,0.04c-2.67,0.03-5.34,0.05-8.07,0.08c-2.72,0.04-5.47,0.06-8.25,0.09
						c-1.54,0.01-3.1,0.04-4.66,0.05c-2.02,0.01-4.07,0.04-6.13,0.06c-2.06,0.03-4.13,0.05-6.22,0.08
						c-4.62,0.05-9.34,0.1-14.11,0.16c-2.22,0.03-4.46,0.05-6.72,0.08c-0.59,0.01-1.2,0.01-1.79,0.03
						c-1.72,0.03-3.44,0.04-5.18,0.06c-0.28,0-0.57,0.01-0.86,0.01c-1.23,0.01-2.46,0.04-3.71,0.05c-1.24,0.01-2.49,0.04-3.74,0.05
						c-2.5,0.04-5.02,0.06-7.56,0.1c-0.67,0.01-1.34,0.03-2.01,0.03c-1.44,0.03-2.88,0.05-4.33,0.06c-1.73,0.03-3.46,0.05-5.21,0.08
						c-4.36,0.06-8.77,0.13-13.23,0.19c-2.17,0.04-4.37,0.06-6.57,0.1c-4.03,0.06-8.1,0.13-12.22,0.19c-2.15,0.04-4.3,0.06-6.47,0.1
						c-0.44,0.01-0.9,0.01-1.35,0.03c-1.54,0.03-3.1,0.05-4.65,0.08c0,0,32.3-23.99,32.3-28.88s-29.35-22.52-134.06-50.88
						c-3.2-0.87-6.37-1.71-9.53-2.53c-2.58-0.66-5.14-1.3-7.69-1.93c-1.42-0.35-2.83-0.69-4.25-1.04c-2.82-0.68-5.62-1.34-8.41-1.97
						c-1.4-0.33-2.79-0.63-4.18-0.95c-1.24-0.28-2.48-0.56-3.7-0.81c-2.46-0.54-4.92-1.06-7.35-1.55c-1.29-0.27-2.59-0.53-3.88-0.78
						c-3.58-0.72-7.14-1.4-10.68-2.05c-4.11-0.76-8.2-1.47-12.26-2.11c-1.18-0.2-2.35-0.39-3.53-0.57
						c-1.38-0.23-2.75-0.44-4.12-0.63c-1.11-0.16-2.21-0.34-3.32-0.49c-0.34-0.06-0.68-0.11-1.01-0.15
						c-10.93-1.58-21.76-2.86-32.56-3.84c-4.46-0.43-8.92-0.78-13.39-1.1c-18.43-1.31-36.87-1.86-55.68-1.74
						c-1.23,0.01-2.46,0.03-3.7,0.04c-1.45,0-2.91,0.03-4.36,0.05c-1.44,0.03-2.88,0.06-4.33,0.09c-1.2,0.01-2.41,0.04-3.61,0.08
						c-1.66,0.04-3.34,0.09-5,0.14h-0.14c-2.93,0.1-5.88,0.2-8.83,0.32c-0.16-0.01-0.33,0-0.48,0.01
						c-6.99,0.27-14.05,0.62-21.19,1.05c-1.93,0.11-3.87,0.23-5.8,0.37c-17.6,1.11-35.78,2.65-54.8,4.5
						c-0.95,0.09-1.91,0.19-2.87,0.29c-0.68,0.09-1.38,0.16-2.07,0.25c-0.69,0.08-1.4,0.18-2.1,0.27
						c-4.11,0.53-8.26,1.19-12.46,1.96c-1.11,0.2-2.22,0.42-3.34,0.63c-1.35,0.27-2.7,0.54-4.07,0.83
						c-4.08,0.86-8.19,1.82-12.33,2.88c-1.1,0.28-2.19,0.56-3.29,0.85l-1.67,0.45c-0.56,0.14-1.11,0.29-1.68,0.45
						c-0.83,0.23-1.66,0.45-2.49,0.69c-1.25,0.35-2.51,0.72-3.78,1.09c-1.25,0.38-2.51,0.76-3.78,1.14
						c-2.79,0.85-5.58,1.73-8.39,2.65c-1.4,0.45-2.8,0.92-4.21,1.4c-0.15,0.05-0.3,0.1-0.45,0.15c-1.25,0.43-2.5,0.86-3.75,1.3
						c-3.51,1.21-7.01,2.49-10.53,3.8c-0.71,0.27-1.41,0.52-2.11,0.8c-11.86,4.49-23.68,9.44-35.24,14.67
						c-1.23,0.54-2.45,1.1-3.66,1.67c-2.25,1.01-4.47,2.05-6.68,3.1c-1.35,0.63-2.69,1.26-4.03,1.91
						c-12.24,5.82-24.11,11.88-35.35,17.88c-0.93,0.49-1.87,1-2.79,1.49c-2.79,1.5-5.53,2.99-8.24,4.49
						c-0.06-0.01-0.1-0.01-0.15-0.03c-1.91-0.33-3.85-0.48-5.79-0.43c-0.01,0-0.03,0-0.03,0c-0.93,0.03-1.86,0.1-2.77,0.23
						c-0.47,0.06-0.92,0.14-1.38,0.23c-0.91,0.18-1.81,0.42-2.68,0.71c-0.44,0.15-0.87,0.32-1.3,0.49
						c-0.21,0.09-0.43,0.18-0.63,0.28c-0.63,0.28-1.25,0.61-1.84,0.97c-1.54,0.95-2.92,2.11-4.21,3.39
						c-0.33,0.32-0.64,0.64-0.95,0.97c-0.95,0.99-1.84,2.02-2.72,3.05h-0.01c-0.05,0.05-0.09,0.11-0.14,0.16
						c-2.05,2.36-4.12,4.8-5.86,7.4c-31.5,18.7-52.06,33.04-52.06,33.04c-0.51,0.04-1.01,0.06-1.5,0.1
						c-0.42,0.03-0.82,0.05-1.23,0.08c-18.83,1.2-36.86,2.49-54.15,3.85c-3.3,0.25-6.57,0.52-9.8,0.78
						c-13.23,1.07-26,2.2-38.35,3.36c-2.79,0.27-5.56,0.53-8.31,0.8c-5.52,0.53-10.94,1.07-16.27,1.63
						c-1.24,0.13-2.45,0.25-3.66,0.38c-4.08,0.42-8.1,0.85-12.05,1.28c-2.26,0.25-4.5,0.49-6.71,0.75
						c-0.52,0.06-1.05,0.11-1.57,0.18c-4.64,0.52-9.21,1.05-13.7,1.58c-0.73,0.09-1.45,0.18-2.17,0.27c-1.76,0.2-3.49,0.4-5.21,0.62
						c-0.96,0.11-1.92,0.24-2.87,0.35c-1.3,0.15-2.59,0.32-3.87,0.48c-0.19,0.03-0.37,0.05-0.56,0.06
						c-1.93,0.25-3.85,0.49-5.76,0.73c-1.26,0.16-2.53,0.32-3.78,0.49c-11.4,1.47-22.31,2.98-32.75,4.52
						c-1.77,0.25-3.51,0.52-5.24,0.78c-1.11,0.16-2.21,0.33-3.3,0.49c-1.6,0.24-3.18,0.49-4.76,0.73
						c-6.65,1.04-13.09,2.08-19.33,3.13c-2.62,0.44-5.19,0.88-7.75,1.33c-1.52,0.27-3.01,0.52-4.5,0.78
						c-0.76,0.14-1.5,0.27-2.24,0.4c-0.51,0.09-0.99,0.18-1.48,0.27c-0.99,0.18-1.96,0.35-2.93,0.53c-1.09,0.2-2.16,0.39-3.22,0.59
						c-1.59,0.29-3.17,0.58-4.74,0.88c-10.03,1.91-19.5,3.83-28.42,5.75c-1.18,0.25-2.35,0.51-3.5,0.77
						c-4.98,1.09-9.77,2.19-14.39,3.29c-1.55,0.37-3.07,0.73-4.57,1.1c-0.11,0.03-0.23,0.05-0.34,0.09
						c-0.76,0.18-1.5,0.37-2.24,0.54c-3.29,0.81-6.47,1.62-9.58,2.43c-1.01,0.25-2.01,0.52-2.99,0.78
						c-0.09,0.03-0.18,0.05-0.27,0.08c-0.68,0.18-1.36,0.35-2.05,0.54c-1.47,0.39-2.91,0.78-4.32,1.18
						c-0.71,0.19-1.42,0.39-2.11,0.58c-1.74,0.49-3.45,0.97-5.12,1.45c-4.41,1.28-8.6,2.54-12.61,3.8c-2.46,0.76-4.84,1.53-7.15,2.3
						c-0.8,0.27-1.59,0.53-2.36,0.78c-2.25,0.76-4.42,1.52-6.53,2.26c-0.71,0.25-1.42,0.51-2.11,0.76c-2.7,0.97-5.28,1.93-7.76,2.89
						c42.83-25.55,136.04-50.43,164.95-55.1c37.35-6.01,169.89-19.28,255.42-33.74c48.72-28.64,81.69-48.78,110.7-63.5
						c26-13.18,48.83-22.02,77.02-28.71c15.78-3.74,33.23-6.81,53.85-9.59c0.4-0.05,0.81-0.1,1.23-0.16
						c17.03-2.27,36.24-4.36,58.42-6.47c8.79-0.83,17.54-1.52,26.23-2.02c1.6-0.11,3.21-0.2,4.81-0.28
						c43.05-2.31,84.59-0.85,124.2,3.53c1.04,0.1,2.06,0.21,3.08,0.34c87.17,9.93,164.85,33.75,228.41,61.72
						C1610.41,629.76,1676.27,644.93,1725,653.76z"/>
				</g>
				<g>
					<path class="st10" d="M1668.88,904.22l-252.41,2.54c-1.04-20.71,0.69-41.81,6.32-61.2c82.81-3.35,162.74-6.72,236.19-9.99
						C1666.27,857.39,1668.36,880.93,1668.88,904.22z"/>
				</g>
				<g>
					<path class="st10" d="M1651.88,818.28c2.8,5.62,5.14,11.39,7.1,17.3c-73.46,3.27-153.38,6.64-236.19,9.99
						c1.96-6.79,4.41-13.37,7.39-19.63c16.56-34.86,40.67-59.77,77.71-70.58c27.29-7.97,57.35-6.05,83.42,5.34
						C1617.37,772.08,1639.2,792.84,1651.88,818.28z"/>
				</g>
				<g>
					<path class="st11" d="M1545.56,627.15c0,4.89-32.3,28.88-32.3,28.88c-71.23,1.17-154.63,2.86-250.54,5.33l32.32-106.5
						c37.41,3.44,75.19,10.22,116.46,21.41C1516.21,604.64,1545.56,622.26,1545.56,627.15z"/>
				</g>
				<g>
					<path class="st6" d="M1416.47,906.76l-203.62,2.05l14.81-55.58c65.66-2.51,131.25-5.08,195.12-7.67
						C1417.16,864.95,1415.43,886.06,1416.47,906.76z"/>
				</g>
				<g>
					<path class="st12" d="M1295.04,554.86l-32.32,106.5c-4.51,0.11-9.05,0.23-13.63,0.36l32.55-107.96
						C1286.11,554.08,1290.57,554.44,1295.04,554.86z"/>
				</g>
				<g>
					<g>
						<path class="st11" d="M1281.64,553.76l-32.55,107.96c-76.79,2.01-161.41,4.51-254.03,7.6c-15.72,0.52-31.03,1.1-45.95,1.72
							c1-1.96,1.43-4.22,1.81-6.4c1.35-7.8,2.4-15.66,3.17-23.55c0.19-1.91,0.33-3.94-0.54-5.65c-1.04-2.07-3.31-3.17-5.41-4.14
							c-5.11-2.31-10.29-4.58-15.8-5.55c53.2-29.27,123.1-61.45,181.36-67.09C1175.66,552.64,1228.67,549.99,1281.64,553.76z"/>
					</g>
				</g>
				<g>
					<path class="st8" d="M1249.09,661.72l21.41,30.81c-137.33,5.29-280.15,11.65-405.91,15.76c-13.71,0.45-26.96,1.06-39.71,1.81
						c2.78-21.68,24.98-33.88,24.98-33.88c16.71-1.06,34.03-2.05,51.98-2.97c0.47,0.43,0.96,0.95,1.53,1.55
						c4.05,4.41,10.25,6.31,16.23,6.4c5.99,0.1,11.86-1.43,17.64-2.94c4.08-1.07,8.49-2.35,11.01-5.76
						c0.34-0.47,0.63-0.96,0.88-1.47c14.92-0.62,30.23-1.2,45.95-1.72C1087.69,666.23,1172.3,663.73,1249.09,661.72z"/>
				</g>
				<g>
					<path class="st5" d="M1270.5,692.53l-42.83,160.71c-176.12,6.76-352.71,13.14-497.85,18.25c-1.88-12.57-4.81-24.99-8.77-37.08
						c-3.02-9.21-6.65-18.25-11.54-26.6c-14.11-24.03-38.31-41.08-64.57-50.45c-19.07-6.8-39.76-9.76-59.87-7.83l-0.05-0.59
						c0,0,83.94-29.65,239.85-38.82c12.75-0.76,26-1.36,39.71-1.81C990.35,704.18,1133.17,697.82,1270.5,692.53z"/>
				</g>
				<g>
					<path class="st6" d="M1227.67,853.23l-14.81,55.58l-480.66,4.85c0.52-14.1-0.29-28.24-2.38-42.18
						C874.96,866.37,1051.55,859.99,1227.67,853.23z"/>
				</g>
				<g>
					<path class="st11" d="M901.9,643.17c-2.05,3.02-3.64,6.25-4.25,9.82c-0.74,4.42-1.15,5.99-4.45,8.79
						c-2.12,1.8-5.85,1.95-6.05,5.81c-0.22,4.45,2.09,3.34,5.43,3.31c4.81-0.04,6.24-0.49,9.25,2.34
						c-17.94,0.92-35.27,1.91-51.98,2.97C849.86,676.22,870.41,661.87,901.9,643.17z"/>
				</g>
				<g>
					<path class="st8" d="M849.86,676.22c0,0-22.2,12.2-24.98,33.88c-155.91,9.16-239.85,38.82-239.85,38.82l0.05,0.59
						c-11.65,1.1-23.11,3.86-33.92,8.44c-27.89,11.84-50.07,35.3-63.03,62.68c-8.85,18.67-13.59,39.05-14.96,59.7
						c-34.3,1.15-58.9,1.98-71.45,2.39c-1.76-7.94-4.07-17.31-7.16-28.13c-12.05-42.17,26.5-61.45,26.5-61.45
						s57.15-25.5,95.87-51.62c0,0-65.94-12.54-91.04,20.29c1.09-7.08,9.3-14.56,21.79-22.01
						C504.63,717.78,619.41,690.82,849.86,676.22z"/>
				</g>
				<g>
					<path class="st10" d="M729.82,871.48c2.09,13.95,2.9,28.08,2.38,42.18l-258.22,2.6c-0.23-2.32-0.45-4.66-0.63-6.99
						c-0.74-9.6-0.82-19.3-0.18-28.94C533.23,878.29,623.02,875.23,729.82,871.48z"/>
				</g>
				<g>
					<path class="st10" d="M721.06,834.39c3.96,12.09,6.88,24.51,8.77,37.08c-106.8,3.75-196.59,6.82-256.65,8.85
						c1.37-20.65,6.11-41.03,14.96-59.7c12.96-27.38,35.13-50.84,63.03-62.68c10.81-4.58,22.27-7.34,33.92-8.44
						c20.1-1.92,40.79,1.03,59.87,7.83c26.26,9.37,50.45,26.42,64.57,50.45C714.41,816.15,718.03,825.19,721.06,834.39z"/>
				</g>
				<g>
					<path class="st13" d="M425.89,761.82c25.1-32.84,91.04-20.29,91.04-20.29c-38.72,26.12-95.87,51.62-95.87,51.62
						S421.07,793.15,425.89,761.82z"/>
				</g>
				<g>
					<path class="st6" d="M473.98,916.26l-67.02,0.67c0,0-0.19-11.16-5.23-34.21c12.54-0.41,37.15-1.24,71.45-2.39
						c-0.65,9.63-0.56,19.33,0.18,28.94C473.53,911.6,473.75,913.94,473.98,916.26z"/>
				</g>
				<g>
					<g>
						<circle class="st14" cx="598.95" cy="869.54" r="61.51"/>
					</g>
					<g>
						<circle class="st15" cx="598.95" cy="869.54" r="43.72"/>
					</g>
					<g>
						<circle class="st16" cx="598.95" cy="869.54" r="13.92"/>
					</g>
				</g>
				<g>
					<g>
						<circle class="st12" cx="1545.57" cy="869.54" r="84.32"/>
					</g>
					<g>
						<circle class="st10" cx="1545.57" cy="869.54" r="106.87"/>
					</g>
					<g>
						<circle class="st15" cx="1545.57" cy="869.54" r="43.72"/>
					</g>
					<g>
						<g>
							<path class="st16" d="M1598.52,809.87c-14.39,26.28-37.21,43.12-37.21,43.12l-10.59-5.27c-1.84-19.15,4.95-42.64,9.85-56.53
								c1.72-4.9,3.21-8.61,4-10.51c3.96,0.85,7.9,1.97,11.8,3.37l-3.32,10.6l0.01,0l-14.94,47.71l31.41-39.4l6.94-8.71
								c2.44,1.65,4.78,3.4,7.02,5.25C1602,803.11,1600.32,806.56,1598.52,809.87z"/>
						</g>
						<g>
							<path class="st16" d="M1466.45,824.84c1.67,1.42,4.73,3.96,8.78,7.05c11.74,8.94,31.8,22.47,50.43,26.6l8.29-8.44
								c0,0-8.98-26.97-29.59-48.8c-2.58-2.73-5.34-5.38-8.29-7.89c-2.44,1.58-4.81,3.28-7.1,5.1l6.14,9.29l27.76,42.05l-40.6-28.83
								l-9.05-6.43L1466.45,824.84z"/>
						</g>
						<g>
							<path class="st16" d="M1528.18,885.65c-9.48,16.09-27.94,30.7-40.1,39.2c-3.98,2.78-7.28,4.9-9.38,6.21
								c-2.81-3.06-5.39-6.3-7.73-9.69l8.9-6.61l39.19-29.12l-47.66,13.16l-10.74,2.97l-2.77-8.56c3.3-2,6.68-3.77,10.09-5.34
								c26.87-12.49,54.74-12.69,54.74-12.69L1528.18,885.65z"/>
						</g>
						<g>
							<path class="st16" d="M1582.6,952.47c-3.78,1.69-7.67,3.11-11.65,4.27l-3.54-10.51l-15.46-45.89l-2.19,48.85l-0.5,11.13
								c-3.04,0.13-6.11,0.11-9.17-0.07c-0.86-3.77-1.47-7.54-1.9-11.26c-3.37-29.16,4.93-55.35,4.93-55.35l11.66-1.97
								c12.3,13.9,20.46,35.8,24.79,50C1580.98,946.24,1581.98,950.02,1582.6,952.47z"/>
						</g>
						<g>
							<path class="st16" d="M1629.88,903.41c-3.87-0.33-7.66-0.89-11.35-1.63l0,0.01c-28.98-5.74-51.55-21.87-51.55-21.87
								l1.74-11.71c17.34-7.53,41.25-8.43,56.04-8.12c4.96,0.11,8.89,0.34,11.21,0.52c0.41,4.09,0.54,8.2,0.4,12.33l-11.1,0.12
								l-49.17,0.53l46.33,17.38l10.41,3.91L1629.88,903.41z"/>
						</g>
					</g>
					<g>
						<circle class="st16" cx="1545.57" cy="869.54" r="13.92"/>
					</g>
					<g>
						<path class="st16" d="M1635.96,860.61c-0.82-8.15-2.74-16.15-5.67-23.77c-5.51-14.3-14.61-27.24-26.81-37.32
							c-2.24-1.86-4.57-3.61-7.01-5.26c-3.3-2.22-6.78-4.26-10.44-6.08c-3.18-1.58-6.41-2.96-9.67-4.13
							c-3.89-1.4-7.83-2.53-11.8-3.37c-23.84-5.09-48.52-0.24-68.49,12.69c-2.44,1.58-4.81,3.29-7.1,5.1
							c-5.82,4.61-11.13,9.99-15.74,16.08c-2.46,3.23-4.73,6.67-6.77,10.28c-0.77,1.39-1.53,2.81-2.24,4.25
							c-2.45,4.91-4.41,9.94-5.89,15.04c-4.76,16.34-4.71,33.29-0.45,49.07c0.8,2.91,1.72,5.76,2.78,8.57
							c0.58,1.53,1.2,3.05,1.87,4.54c2.31,5.26,5.14,10.31,8.44,15.07c2.35,3.39,4.93,6.62,7.73,9.68
							c7.32,7.97,16.17,14.75,26.42,19.84c11.26,5.61,23.15,8.66,34.97,9.35c3.06,0.18,6.13,0.2,9.17,0.08
							c7.37-0.32,14.66-1.53,21.68-3.58c3.98-1.16,7.87-2.58,11.65-4.27c18.61-8.29,34.57-22.84,44.32-42.47
							c0.88-1.78,1.71-3.58,2.46-5.38c0.16-0.4,0.33-0.8,0.49-1.2c1.14-2.83,2.12-5.67,2.96-8.53c2.11-7.25,3.26-14.62,3.53-21.95
							C1636.51,868.81,1636.37,864.69,1635.96,860.61z M1622.4,890.97c-1.01,3.65-2.3,7.25-3.88,10.8v0.01
							c-0.43,1-0.9,1.97-1.39,2.96c-0.05,0.1-0.1,0.21-0.15,0.32c-8.3,16.7-21.71,29.21-37.41,36.59c-3.92,1.86-8,3.37-12.17,4.57
							c-5.74,1.63-11.65,2.63-17.65,2.96c-3.83,0.21-7.69,0.14-11.56-0.2c-9.54-0.88-19.07-3.5-28.15-8.01
							c-8.43-4.19-15.79-9.69-21.97-16.12c-3.02-3.16-5.76-6.53-8.21-10.1c-1.88-2.75-3.6-5.61-5.1-8.57
							c-1.25-2.41-2.38-4.88-3.36-7.39c-1.4-3.56-2.54-7.21-3.42-10.93c-3.4-14.32-2.88-29.64,2.15-44.22
							c1.11-3.26,2.45-6.47,4.02-9.63c0.37-0.71,0.73-1.42,1.1-2.12c2.08-3.88,4.43-7.52,7.04-10.92c3.8-4.95,8.11-9.38,12.84-13.22
							c2.93-2.39,6.03-4.56,9.25-6.51c16.65-9.99,36.69-13.8,56.21-10.07c4.19,0.81,8.36,1.96,12.48,3.47
							c2.72,0.99,5.4,2.15,8.04,3.46c2.94,1.47,5.76,3.08,8.44,4.85c3.18,2.11,6.19,4.41,8.98,6.9c8.69,7.71,15.45,17.13,20,27.49
							c3.18,7.21,5.29,14.88,6.24,22.73c0.52,4.28,0.68,8.62,0.51,12.98C1625,879.04,1624.06,885.06,1622.4,890.97z"/>
					</g>
				</g>
				<path class="st17" d="M838.33,709.75l12.8-33.03l-2.56-0.99l-12.88,33.22l1.28,0.5l-1.37-0.1L823.51,868l1.37,0.1l-1.37,0.04
					c0.01,0.37,1.04,37.33,0.01,45.34l2.73,0.35c1.04-8.14,0.07-43.54,0.01-45.69L838.33,709.75z"/>
				<polygon class="st17" points="1270.5,692.53 1271.63,691.74 1250.22,660.94 1247.96,662.5 1269.01,692.79 1226.34,852.88 
					1211.53,908.46 1214.19,909.16 1229,853.59 1271.83,692.88 				"/>
				<path class="st17" d="M1245.83,702.66c1.59-0.04,3.26-0.1,4.63-0.9c1.37-0.8,2.3-2.62,1.55-4.03c-0.25-0.47-0.64-0.83-1.04-1.18
					c-7.16-6.22-17.25-8.16-26.69-7.3c-9.77,0.89-19.1,4.41-28.2,7.88c-5.56,2.13-19.7,4.99-10.41,10.59
					c6.55,3.95,20.12-1.44,26.97-2.37C1223.64,703.87,1234.73,702.96,1245.83,702.66z"/>
				<g>
					<path class="st6" d="M1609.96,667.41h-37.92c-7.03,0-12.74,5.71-12.74,12.74v37.92c0,7.03,5.71,12.74,12.74,12.74h37.92
						c7.03,0,12.74-5.71,12.74-12.74v-37.92C1622.7,673.12,1616.98,667.41,1609.96,667.41z M1621.32,718.06
						c0,6.27-5.09,11.36-11.36,11.36h-37.92c-6.27,0-11.36-5.09-11.36-11.36v-37.92c0-6.27,5.09-11.36,11.36-11.36h37.92
						c6.27,0,11.36,5.09,11.36,11.36V718.06z"/>
				</g>
				<g>
					<path class="st6" d="M1195.49,660.42c-27.76,0.77-56.01,1.59-84.65,2.46c-12.6,0.38-25.27,0.77-38.02,1.18
						c-17.35,0.53-34.82,1.1-52.4,1.67c-0.92,0.05-2.16,0.11-3.66,0.19c-7.35,0.34-21.23,0.95-38.02,1.69
						c-6.04,0.27-12.46,0.54-19.08,0.83c-3.17,0.14-6.41,0.29-9.68,0.43c-17.18,0.76-35.33,1.55-51.47,2.27
						c1.07,0.3,2.06,0.91,3.32,2.1c0.47,0.43,0.96,0.95,1.53,1.55c0.25,0.28,0.52,0.54,0.78,0.8c0.27,0.27,0.54,0.51,0.83,0.75
						c0,0,0,0,0.01,0.01c13.22-0.58,27.46-1.21,41.23-1.82c0.25-0.18,0.49-0.38,0.72-0.61c0.13-0.1,0.24-0.21,0.35-0.33
						c0.34-0.34,0.66-0.71,0.95-1.1c0.34-0.47,0.63-0.96,0.87-1.47c1.86-0.08,3.73-0.15,5.61-0.23c1.88-0.08,3.77-0.15,5.66-0.23
						c3.08-0.13,6.19-0.24,9.32-0.35c0.06-0.01,0.13-0.01,0.19-0.01c2.54-0.09,5.09-0.19,7.66-0.28c0.39-0.01,0.8-0.03,1.19-0.04
						c1.12-0.04,2.25-0.09,3.39-0.13c2.35-0.09,4.7-0.18,7.06-0.25c1.95-0.06,3.9-0.14,5.88-0.2c7.28-0.24,14.52-0.48,21.69-0.72
						c1.38-0.05,2.77-0.09,4.14-0.14c8.55-0.28,17.02-0.54,25.42-0.82c2.79-0.09,5.58-0.18,8.38-0.27c2.79-0.09,5.56-0.18,8.33-0.27
						s5.53-0.18,8.29-0.27c0.51-0.01,1-0.04,1.5-0.05c7.76-0.24,15.45-0.47,23.07-0.71c2.5-0.08,5-0.15,7.49-0.23
						s4.98-0.15,7.45-0.23c5.76-0.18,11.49-0.34,17.17-0.52c7.93-0.24,15.81-0.47,23.6-0.69c3.71-0.11,7.43-0.21,11.12-0.32
						c1.47-0.05,2.93-0.09,4.38-0.13c5.14-0.15,10.25-0.29,15.31-0.44c4.38-0.13,8.73-0.24,13.06-0.37c0.7-0.01,1.38-0.04,2.07-0.05
						c4.08-0.11,8.14-0.23,12.18-0.34c1.74-0.04,3.49-0.09,5.23-0.14c6.42-0.18,12.79-0.34,19.1-0.52h0.06v-2.75
						C1221.38,659.7,1208.5,660.06,1195.49,660.42z M1195.49,660.42c-27.76,0.77-56.01,1.59-84.65,2.46
						c-12.6,0.38-25.27,0.77-38.02,1.18c-17.35,0.53-34.82,1.1-52.4,1.67c-0.92,0.05-2.16,0.11-3.66,0.19
						c-7.35,0.34-21.23,0.95-38.02,1.69c-6.04,0.27-12.46,0.54-19.08,0.83c-3.17,0.14-6.41,0.29-9.68,0.43
						c-17.18,0.76-35.33,1.55-51.47,2.27c1.07,0.3,2.06,0.91,3.32,2.1c0.47,0.43,0.96,0.95,1.53,1.55c0.25,0.28,0.52,0.54,0.78,0.8
						c0.27,0.27,0.54,0.51,0.83,0.75c0,0,0,0,0.01,0.01c13.22-0.58,27.46-1.21,41.23-1.82c0.25-0.18,0.49-0.38,0.72-0.61
						c0.13-0.1,0.24-0.21,0.35-0.33c0.34-0.34,0.66-0.71,0.95-1.1c0.34-0.47,0.63-0.96,0.87-1.47c1.86-0.08,3.73-0.15,5.61-0.23
						c1.88-0.08,3.77-0.15,5.66-0.23c3.08-0.13,6.19-0.24,9.32-0.35c0.06-0.01,0.13-0.01,0.19-0.01c2.54-0.1,5.09-0.19,7.66-0.28
						c0.39-0.01,0.8-0.03,1.19-0.04c1.12-0.04,2.25-0.09,3.39-0.13c2.34-0.09,4.7-0.18,7.06-0.25c1.95-0.06,3.9-0.14,5.88-0.2
						c7.28-0.24,14.52-0.48,21.69-0.72c1.38-0.05,2.77-0.09,4.14-0.14c8.55-0.28,17.02-0.54,25.42-0.82
						c2.79-0.09,5.58-0.18,8.38-0.27c2.79-0.09,5.56-0.18,8.33-0.27s5.53-0.18,8.29-0.27c0.51-0.01,1-0.04,1.5-0.05
						c7.76-0.24,15.45-0.47,23.07-0.71c2.5-0.08,5-0.15,7.49-0.23s4.98-0.15,7.45-0.23c5.76-0.18,11.49-0.34,17.17-0.52
						c7.93-0.24,15.81-0.47,23.6-0.69c3.71-0.11,7.43-0.21,11.12-0.32c1.47-0.05,2.93-0.09,4.38-0.13
						c5.14-0.15,10.25-0.29,15.31-0.44c4.38-0.13,8.73-0.24,13.06-0.37c0.7-0.01,1.38-0.04,2.07-0.05
						c4.08-0.11,8.14-0.23,12.18-0.34c1.74-0.04,3.49-0.09,5.23-0.14c6.42-0.18,12.79-0.34,19.1-0.52h0.06v-2.75
						C1221.38,659.7,1208.5,660.06,1195.49,660.42z M1412.22,573.62c-29.05-7.87-56.98-13.72-84.63-17.69
						c-0.04,0-0.08-0.01-0.11-0.01c-10.75-1.54-21.47-2.81-32.18-3.79c-4.12-0.39-8.53-0.76-13.46-1.1
						c-26.61-1.91-54.04-2.29-85.31-1.07c-0.34,0.01-0.69,0.03-1.04,0.04c-24.5,0.99-51.37,2.94-82.05,5.93
						c-0.86,0.09-1.73,0.18-2.6,0.27c-0.04,0.01-0.06,0.01-0.1,0.01c-5.62,0.62-11.36,1.49-17.16,2.56
						c-37.96,7.03-78.99,23.13-114.84,40.12c-14.4,6.82-27.97,13.78-40.17,20.35c-3.92,1.83-8,3.88-12.15,6.06
						c-6.08,3.2-12.31,6.7-18.5,10.31h-0.01c-30.31,17.7-59.25,38.09-59.64,38.37c-0.8,0.56-1.21,1.48-1.15,2.41
						c0.01,0.25,0.05,0.49,0.14,0.75c0.06,0.19,0.15,0.35,0.27,0.52c0.05,0.1,0.11,0.2,0.19,0.29c0.52,0.63,1.3,1.02,2.14,1.02
						c0.06,0,0.11,0,0.18-0.01c0.08,0,0.15-0.01,0.24-0.01h0.01c6.43-0.4,28.55-1.42,54.71-2.59c13.22-0.58,27.46-1.21,41.23-1.82
						c4.64-0.2,9.21-0.4,13.68-0.59c6.54-0.29,12.87-0.57,18.84-0.82c16.73-0.75,30.59-1.36,38.02-1.71
						c1.62-0.08,2.92-0.14,3.89-0.19c17.5-0.57,34.9-1.12,52.17-1.67c12.74-0.4,25.42-0.8,38.02-1.18
						c28.64-0.87,56.9-1.69,84.65-2.48c13-0.35,25.89-0.71,38.65-1.05c5.03-0.13,10.03-0.27,15.02-0.39h0.16l0.62-0.01
						c0.34-0.01,0.68-0.03,1.02-0.03c0.54-0.03,1.09-0.04,1.63-0.05c3.41-0.1,6.81-0.19,10.18-0.27c9.16-0.24,18.31-0.47,27.42-0.69
						c12.52-0.32,24.98-0.62,37.39-0.91c63.79-1.5,126.03-2.74,185.71-3.73c0.58-0.01,1.14-0.2,1.59-0.54
						c0.04-0.01,1.18-0.87,3.02-2.27c3.1-2.36,8.19-6.28,13.24-10.41c17.16-14.04,17.16-16.77,17.16-18.4
						C1548.31,616.88,1496.17,596.36,1412.22,573.62z M898.51,671.15c-0.01-0.01-0.01,0-0.01,0c-15.92,0.72-29.89,1.36-39.08,1.81
						c8.76-5.98,23.8-16.01,40.31-26.07c11.94-7.27,24.64-14.56,36.26-20.3c1.62-0.81,3.22-1.58,4.79-2.31
						c0.1-0.04,0.19-0.08,0.28-0.13c11.49-6.19,24.21-12.74,37.69-19.18c41.23-19.71,89.67-38.46,132.1-43.25
						c1.05-0.11,2.1-0.23,3.13-0.33c30.48-2.96,57.19-4.9,81.52-5.89c0.05,0,0.1,0,0.15-0.01c31.28-1.25,58.68-0.9,85.19,0.97
						c0.2,0.01,0.42,0.03,0.62,0.04c4.66,0.34,8.84,0.67,12.77,1.05c0.19,0.01,0.38,0.04,0.57,0.05c3.79,0.35,7.58,0.73,11.37,1.16
						c7.13,0.77,14.26,1.68,21.43,2.73c8.1,1.16,16.22,2.5,24.4,4.01c19.24,3.54,38.75,8,58.79,13.43
						c112.97,30.6,129.9,46.05,131.87,48.33c-2.14,3.73-16.91,16.03-30.32,26.04c-59.38,0.99-121.28,2.22-184.74,3.73
						c-12.41,0.28-24.87,0.58-37.39,0.9c-8.84,0.21-17.73,0.44-26.63,0.67c-0.3,0.01-0.62,0.01-0.92,0.03
						c-4.21,0.1-8.45,0.21-12.72,0.34h-0.13l-0.78,0.01c-4.94,0.13-9.89,0.27-14.87,0.39c-12.76,0.34-25.65,0.69-38.65,1.06
						c-27.76,0.77-56.01,1.59-84.65,2.46c-12.6,0.38-25.27,0.77-38.02,1.18c-17.35,0.53-34.82,1.1-52.4,1.67
						c-0.92,0.05-2.16,0.11-3.66,0.19c-7.35,0.34-21.23,0.95-38.02,1.69c-6.04,0.27-12.46,0.54-19.08,0.83
						c-3.17,0.14-6.41,0.29-9.68,0.43C932.8,669.63,914.66,670.43,898.51,671.15z M1195.49,660.42
						c-27.76,0.77-56.01,1.59-84.65,2.46c-12.6,0.38-25.27,0.77-38.02,1.18c-17.35,0.53-34.82,1.1-52.4,1.67
						c-0.92,0.05-2.16,0.11-3.66,0.19c-7.35,0.34-21.23,0.95-38.02,1.69c-6.04,0.27-12.46,0.54-19.08,0.83
						c-3.17,0.14-6.41,0.29-9.68,0.43c-17.18,0.76-35.33,1.55-51.47,2.27c1.07,0.3,2.06,0.91,3.32,2.1
						c0.47,0.43,0.96,0.95,1.53,1.55c0.25,0.28,0.52,0.54,0.78,0.8c0.27,0.27,0.54,0.51,0.83,0.75c0,0,0,0,0.01,0.01
						c13.22-0.58,27.46-1.21,41.23-1.82c0.25-0.18,0.49-0.38,0.72-0.61c0.13-0.1,0.24-0.21,0.35-0.33c0.34-0.34,0.66-0.71,0.95-1.1
						c0.34-0.47,0.63-0.96,0.87-1.47c1.86-0.08,3.73-0.15,5.61-0.23c1.88-0.08,3.77-0.15,5.66-0.23c3.08-0.13,6.19-0.24,9.32-0.35
						c0.06-0.01,0.13-0.01,0.19-0.01c2.54-0.09,5.09-0.19,7.66-0.28c0.39-0.01,0.8-0.03,1.19-0.04c1.12-0.04,2.25-0.09,3.39-0.13
						c2.35-0.09,4.7-0.18,7.06-0.25c1.95-0.06,3.9-0.14,5.88-0.2c7.28-0.24,14.52-0.48,21.69-0.72c1.38-0.05,2.77-0.09,4.14-0.14
						c8.55-0.28,17.02-0.54,25.42-0.82c2.79-0.09,5.58-0.18,8.38-0.27c2.79-0.09,5.56-0.18,8.33-0.27s5.53-0.18,8.29-0.27
						c0.51-0.01,1-0.04,1.5-0.05c7.76-0.24,15.45-0.47,23.07-0.71c2.5-0.08,5-0.15,7.49-0.23s4.98-0.15,7.45-0.23
						c5.76-0.18,11.49-0.34,17.17-0.52c7.93-0.24,15.81-0.47,23.6-0.69c3.71-0.11,7.43-0.21,11.12-0.32
						c1.47-0.05,2.93-0.09,4.38-0.13c5.14-0.15,10.25-0.29,15.31-0.44c4.38-0.13,8.73-0.24,13.06-0.37c0.7-0.01,1.38-0.04,2.07-0.05
						c4.08-0.11,8.14-0.23,12.18-0.34c1.74-0.04,3.49-0.09,5.23-0.14c6.42-0.18,12.79-0.34,19.1-0.52h0.06v-2.75
						C1221.38,659.7,1208.5,660.06,1195.49,660.42z M1195.49,660.42c-27.76,0.77-56.01,1.59-84.65,2.46
						c-12.6,0.38-25.27,0.77-38.02,1.18c-17.35,0.53-34.82,1.1-52.4,1.67c-0.92,0.05-2.16,0.11-3.66,0.19
						c-7.35,0.34-21.23,0.95-38.02,1.69c-6.04,0.27-12.46,0.54-19.08,0.83c-3.17,0.14-6.41,0.29-9.68,0.43
						c-17.18,0.76-35.33,1.55-51.47,2.27c1.07,0.3,2.06,0.91,3.32,2.1c0.47,0.43,0.96,0.95,1.53,1.55c0.25,0.28,0.52,0.54,0.78,0.8
						c0.27,0.27,0.54,0.51,0.83,0.75c0,0,0,0,0.01,0.01c13.22-0.58,27.46-1.21,41.23-1.82c0.25-0.18,0.49-0.38,0.72-0.61
						c0.13-0.1,0.24-0.21,0.35-0.33c0.34-0.34,0.66-0.71,0.95-1.1c0.34-0.47,0.63-0.96,0.87-1.47c1.86-0.08,3.73-0.15,5.61-0.23
						c1.88-0.08,3.77-0.15,5.66-0.23c3.08-0.13,6.19-0.24,9.32-0.35c0.06-0.01,0.13-0.01,0.19-0.01c2.54-0.09,5.09-0.19,7.66-0.28
						c0.39-0.01,0.8-0.03,1.19-0.04c1.12-0.04,2.25-0.09,3.39-0.13c2.35-0.09,4.7-0.18,7.06-0.25c1.95-0.06,3.9-0.14,5.88-0.2
						c7.28-0.24,14.52-0.48,21.69-0.72c1.38-0.05,2.77-0.09,4.14-0.14c8.55-0.28,17.02-0.54,25.42-0.82
						c2.79-0.09,5.58-0.18,8.38-0.27c2.79-0.09,5.56-0.18,8.33-0.27s5.53-0.18,8.29-0.27c0.51-0.01,1-0.04,1.5-0.05
						c7.76-0.24,15.45-0.47,23.07-0.71c2.5-0.08,5-0.15,7.49-0.23s4.98-0.15,7.45-0.23c5.76-0.18,11.49-0.34,17.17-0.52
						c7.93-0.24,15.81-0.47,23.6-0.69c3.71-0.11,7.43-0.21,11.12-0.32c1.47-0.05,2.93-0.09,4.38-0.13
						c5.14-0.15,10.25-0.29,15.31-0.44c4.38-0.13,8.73-0.24,13.06-0.37c0.7-0.01,1.38-0.04,2.07-0.05
						c4.08-0.11,8.14-0.23,12.18-0.34c1.74-0.04,3.49-0.09,5.23-0.14c6.42-0.18,12.79-0.34,19.1-0.52h0.06v-2.75
						C1221.38,659.7,1208.5,660.06,1195.49,660.42z"/>
				</g>
				<path class="st5" d="M953.57,635.44c-1.04-2.07-3.31-3.17-5.41-4.14c-5.11-2.31-10.29-4.58-15.8-5.55
					c-0.05-0.01-0.1-0.01-0.15-0.03c-5.58-0.95-11.58-0.45-16.41,2.49c-3.15,1.92-5.62,4.77-8.02,7.56
					c-2.05,2.36-4.12,4.81-5.87,7.41c-2.05,3.02-3.64,6.25-4.25,9.82c-0.74,4.42-1.15,5.99-4.45,8.79c-2.12,1.8-5.85,1.95-6.05,5.81
					c-0.22,4.45,2.09,3.34,5.43,3.31c4.81-0.04,6.24-0.49,9.25,2.34c0.47,0.43,0.96,0.95,1.53,1.55c4.05,4.41,10.25,6.31,16.23,6.4
					c5.99,0.1,11.86-1.43,17.64-2.94c4.08-1.07,8.49-2.35,11.01-5.76c0.34-0.47,0.63-0.96,0.88-1.47c1-1.96,1.43-4.22,1.81-6.4
					c1.35-7.8,2.4-15.66,3.17-23.55C954.3,639.17,954.43,637.14,953.57,635.44z"/>
			</g>
			<g>
				<path class="st7" d="M1324.51,543.76c-5.81-13.56-19.29-23.05-34.97-23.05h-55.99c-10.5,0-20.03,4.26-26.91,11.14
					c-2.48,2.48-4.61,5.29-6.33,8.38c-1.68,3.01-2.97,6.27-3.78,9.72c-0.23,0.91-0.4,1.83-0.56,2.78c-0.15,0.91-0.27,1.82-0.33,2.75
					c-0.1,1.07-0.15,2.17-0.15,3.27v924.7h132.1v-924.7v-0.05L1324.51,543.76z"/>
				<path class="st3" d="M1234.15,627.13v856.34h56.05V627.13c0-15.48-12.55-28.03-28.03-28.03h0
					C1246.7,599.11,1234.15,611.65,1234.15,627.13z"/>
				<path class="st4" d="M1327.59,558.71v0.05h-132.1c0-1.1,0.05-2.2,0.15-3.27c0.06-0.93,0.18-1.84,0.33-2.75
					c0.15-0.95,0.33-1.87,0.56-2.78c0.81-3.45,2.1-6.71,3.78-9.72c1.72-3.08,3.85-5.9,6.33-8.38c6.89-6.89,16.41-11.14,26.91-11.14
					h55.99c15.68,0,29.16,9.49,34.97,23.05c1.63,3.78,2.67,7.87,2.97,12.15C1327.56,556.84,1327.59,557.78,1327.59,558.71z"/>
			</g>
		</g>
		<g>
			<g>
				<path class="st18" d="M1543.36,1421.61v45.93c0,7.76,6.28,14.04,14.04,14.04h185.71c7.76,0,14.04-6.28,14.04-14.04v-45.93
					c0-7.76-6.28-14.04-14.04-14.04H1557.4C1549.64,1407.58,1543.36,1413.86,1543.36,1421.61z"/>
				<path class="st10" d="M1543.36,1444.57v22.97c0,7.76,6.28,14.04,14.04,14.04h185.71c7.76,0,14.04-6.28,14.04-14.04v-22.97
					H1543.36z"/>
			</g>
			<g>
				<path class="st18" d="M1561.62,1347.47v45.93c0,7.76,6.28,14.04,14.04,14.04h185.71c7.76,0,14.04-6.28,14.04-14.04v-45.93
					c0-7.76-6.28-14.04-14.04-14.04h-185.71C1567.9,1333.43,1561.62,1339.71,1561.62,1347.47z"/>
				<path class="st10" d="M1561.62,1370.43v22.97c0,7.76,6.28,14.04,14.04,14.04h185.71c7.76,0,14.04-6.28,14.04-14.04v-22.97
					H1561.62z"/>
			</g>
		</g>
		<g>
			<g>
				<path class="st18" d="M1008.61,1421.54v45.93c0,7.76-6.28,14.04-14.04,14.04H808.87c-7.76,0-14.04-6.28-14.04-14.04v-45.93
					c0-7.76,6.28-14.04,14.04-14.04h185.71C1002.33,1407.51,1008.61,1413.79,1008.61,1421.54z"/>
				<path class="st10" d="M1008.61,1444.5v22.97c0,7.76-6.28,14.04-14.04,14.04H808.87c-7.76,0-14.04-6.28-14.04-14.04v-22.97
					H1008.61z"/>
			</g>
			<g>
				<path class="st18" d="M1048.95,1347.54v45.93c0,7.76-6.28,14.04-14.04,14.04H849.21c-7.76,0-14.04-6.28-14.04-14.04v-45.93
					c0-7.76,6.28-14.04,14.04-14.04h185.71C1042.67,1333.5,1048.95,1339.78,1048.95,1347.54z"/>
				<path class="st10" d="M1048.95,1370.5v22.97c0,7.76-6.28,14.04-14.04,14.04H849.21c-7.76,0-14.04-6.28-14.04-14.04v-22.97
					H1048.95z"/>
			</g>
			<g>
				<path class="st18" d="M1030.69,1273.4v45.93c0,7.76-6.28,14.04-14.04,14.04H830.95c-7.76,0-14.04-6.28-14.04-14.04v-45.93
					c0-7.76,6.28-14.04,14.04-14.04h185.71C1024.41,1259.36,1030.69,1265.64,1030.69,1273.4z"/>
				<path class="st10" d="M1030.69,1296.36v22.97c0,7.76-6.28,14.04-14.04,14.04H830.95c-7.76,0-14.04-6.28-14.04-14.04v-22.97
					H1030.69z"/>
			</g>
			<g>
				<path class="st18" d="M1250.63,1435.08l-27.67,36.66c-4.67,6.19-13.47,7.42-19.66,2.75l-148.22-111.89
					c-6.19-4.67-7.42-13.47-2.75-19.66l27.67-36.66c4.67-6.19,13.47-7.42,19.66-2.75l148.22,111.89
					C1254.08,1420.09,1255.31,1428.89,1250.63,1435.08z"/>
				<path class="st10" d="M1236.8,1453.4l-13.84,18.33c-4.67,6.19-13.47,7.42-19.66,2.75l-148.22-111.89
					c-6.19-4.67-7.42-13.47-2.75-19.66l13.84-18.33L1236.8,1453.4z"/>
			</g>
			<g>
				<g>
					<circle class="st19" cx="696.27" cy="1376.13" r="84.32"/>
				</g>
				<g>
					<circle class="st10" cx="696.27" cy="1376.13" r="106.87"/>
				</g>
				<g>
					<circle class="st20" cx="696.27" cy="1376.13" r="43.72"/>
				</g>
				<g>
					<g>
						<path class="st21" d="M749.22,1316.46c-14.39,26.28-37.21,43.12-37.21,43.12l-10.59-5.27c-1.84-19.15,4.95-42.64,9.85-56.53
							c1.72-4.9,3.21-8.61,4-10.51c3.96,0.85,7.9,1.97,11.8,3.37l-3.32,10.6l0.01,0l-14.94,47.71l31.41-39.4l6.94-8.71
							c2.44,1.65,4.78,3.4,7.02,5.25C752.71,1309.7,751.03,1313.16,749.22,1316.46z"/>
					</g>
					<g>
						<path class="st21" d="M617.16,1331.44c1.67,1.42,4.73,3.96,8.78,7.05c11.74,8.94,31.8,22.47,50.43,26.6l8.29-8.44
							c0,0-8.98-26.97-29.59-48.8c-2.58-2.73-5.34-5.38-8.29-7.89c-2.44,1.58-4.81,3.28-7.1,5.1l6.14,9.29l27.76,42.05l-40.6-28.83
							l-9.05-6.43L617.16,1331.44z"/>
					</g>
					<g>
						<path class="st21" d="M678.88,1392.25c-9.48,16.09-27.94,30.7-40.1,39.2c-3.98,2.78-7.28,4.9-9.38,6.21
							c-2.81-3.06-5.39-6.3-7.73-9.69l8.9-6.61l39.19-29.12l-47.66,13.16l-10.74,2.97l-2.77-8.56c3.3-2,6.68-3.77,10.09-5.34
							c26.87-12.49,54.74-12.69,54.74-12.69L678.88,1392.25z"/>
					</g>
					<g>
						<path class="st21" d="M733.3,1459.06c-3.78,1.69-7.67,3.11-11.65,4.27l-3.54-10.51l-15.46-45.89l-2.19,48.85l-0.5,11.13
							c-3.04,0.13-6.11,0.11-9.17-0.07c-0.86-3.77-1.47-7.54-1.9-11.26c-3.37-29.16,4.93-55.35,4.93-55.35l11.66-1.97
							c12.3,13.9,20.46,35.8,24.79,50C731.68,1452.84,732.69,1456.62,733.3,1459.06z"/>
					</g>
					<g>
						<path class="st21" d="M780.58,1410.01c-3.87-0.33-7.66-0.89-11.35-1.63l0,0.01c-28.98-5.74-51.55-21.87-51.55-21.87
							l1.74-11.71c17.34-7.53,41.25-8.43,56.04-8.12c4.96,0.1,8.89,0.34,11.21,0.52c0.41,4.09,0.54,8.2,0.4,12.33l-11.1,0.12
							l-49.17,0.53l46.33,17.38l10.41,3.91L780.58,1410.01z"/>
					</g>
				</g>
				<g>
					<circle class="st21" cx="696.27" cy="1376.13" r="13.92"/>
				</g>
				<g>
					<path class="st21" d="M780.58,1410.01c1.13-2.82,2.11-5.66,2.95-8.53c2.11-7.24,3.27-14.61,3.53-21.94
						c0.15-4.13,0.02-8.25-0.4-12.33c-2.36-23.47-13.79-45.64-32.48-61.09c-2.24-1.85-4.57-3.6-7.02-5.25
						c-3.3-2.22-6.78-4.26-10.44-6.08c-3.18-1.58-6.4-2.96-9.66-4.14c-3.9-1.4-7.84-2.52-11.8-3.37
						c-23.84-5.09-48.52-0.24-68.49,12.69c-2.44,1.58-4.81,3.28-7.1,5.1c-5.83,4.62-11.13,10-15.75,16.08
						c-2.46,3.24-4.72,6.67-6.76,10.29c-0.78,1.39-1.53,2.8-2.24,4.24c-10.28,20.67-11.93,43.42-6.33,64.12
						c0.79,2.9,1.72,5.75,2.77,8.56c2.62,6.9,6.07,13.49,10.31,19.61c2.34,3.39,4.92,6.62,7.73,9.69
						c7.31,7.96,16.17,14.74,26.41,19.84c11.26,5.6,23.15,8.64,34.98,9.34c3.06,0.18,6.13,0.2,9.17,0.07
						c7.37-0.31,14.65-1.52,21.69-3.57c3.98-1.16,7.86-2.58,11.65-4.27c18.61-8.29,34.56-22.84,44.32-42.47
						C778.7,1414.42,779.69,1412.22,780.58,1410.01z M730.28,1448.25c-3.93,1.85-8,3.38-12.17,4.57
						c-5.73,1.64-11.65,2.63-17.65,2.96c-3.83,0.21-7.7,0.15-11.57-0.21c-9.54-0.88-19.06-3.49-28.14-8.01
						c-8.43-4.19-15.79-9.68-21.97-16.12c-3.03-3.16-5.77-6.54-8.21-10.09c-3.43-5-6.27-10.36-8.47-15.97
						c-1.4-3.56-2.54-7.21-3.43-10.93c-4.15-17.51-2.44-36.51,6.17-53.84c0.36-0.72,0.72-1.42,1.1-2.12
						c2.07-3.88,4.43-7.53,7.03-10.92c3.8-4.96,8.12-9.37,12.84-13.22c2.94-2.39,6.03-4.56,9.25-6.5
						c16.65-10,36.69-13.81,56.2-10.07c4.2,0.8,8.37,1.95,12.48,3.47l0.01,0c2.71,0.99,5.39,2.15,8.04,3.46
						c2.95,1.46,5.76,3.08,8.44,4.86c3.19,2.1,6.19,4.41,8.99,6.89c14.75,13.09,23.92,31.11,26.24,50.22
						c0.52,4.28,0.69,8.62,0.5,12.97c-0.26,5.98-1.19,11.99-2.85,17.91c-1.02,3.64-2.31,7.25-3.89,10.8l0,0.01
						c-0.48,1.1-0.99,2.19-1.53,3.28C759.39,1428.36,745.98,1440.87,730.28,1448.25z"/>
				</g>
			</g>
		</g>
		<g>
			<g>
				<g>
					<circle class="st19" cx="1369.76" cy="1371.48" r="84.32"/>
				</g>
				<g>
					<circle class="st10" cx="1369.76" cy="1371.48" r="106.87"/>
				</g>
				<g>
					<circle class="st20" cx="1369.76" cy="1371.48" r="43.72"/>
				</g>
				<g>
					<g>
						<path class="st21" d="M1390.6,1294.47c-1.18,29.94-14.11,55.18-14.11,55.18h-11.83c-10.18-16.33-14.55-40.39-16.36-55.01
							c-0.64-5.16-0.95-9.14-1.1-11.19c3.92-1,7.95-1.76,12.07-2.24l1.75,10.97h0.01l7.87,49.37l10.58-49.26l2.33-10.89
							c2.92,0.39,5.79,0.92,8.62,1.58C1390.71,1286.87,1390.75,1290.71,1390.6,1294.47z"/>
					</g>
					<g>
						<path class="st21" d="M1279.02,1366.69c2.13,0.53,6,1.44,11,2.4c14.5,2.78,38.48,5.96,57,1.36l3.66-11.25
							c0,0-20.05-20.15-48.22-30.52c-3.52-1.3-7.18-2.44-10.94-3.37c-1.48,2.5-2.85,5.08-4.08,7.73l9.63,5.58l43.58,25.28
							l-49.19-7.73l-10.97-1.73L1279.02,1366.69z"/>
					</g>
					<g>
						<path class="st21" d="M1361.36,1393.65c-1.32,18.63-11.35,39.94-18.45,52.95c-2.33,4.26-4.34,7.63-5.63,9.73
							c-3.88-1.49-7.63-3.24-11.24-5.23l5.02-9.88l22.12-43.53l-36.81,33l-8.29,7.44l-6.3-6.43c2.07-3.26,4.31-6.35,6.65-9.27
							c18.5-23.15,43.36-35.74,43.36-35.74L1361.36,1393.65z"/>
					</g>
					<g>
						<path class="st21" d="M1439.84,1429.24c-2.64,3.2-5.48,6.2-8.53,9.01l-7.86-7.84l-34.28-34.21l19.8,44.71l4.51,10.18
							c-2.67,1.47-5.42,2.82-8.24,4.02c-2.45-2.99-4.68-6.09-6.72-9.24c-16-24.61-20.23-51.75-20.23-51.75l9.57-6.96
							c17.2,6.97,34.26,22.94,44.46,33.73C1435.62,1424.39,1438.2,1427.33,1439.84,1429.24z"/>
					</g>
					<g>
						<path class="st21" d="M1460.33,1364.27c-3.61,1.42-7.26,2.61-10.89,3.59v0.01c-28.51,7.77-55.89,3.37-55.89,3.37l-3.65-11.26
							c12.17-14.47,33.18-25.92,46.56-32.22c4.49-2.11,8.11-3.65,10.26-4.53c2.19,3.47,4.14,7.1,5.85,10.87l-9.88,5.05l-43.79,22.37
							l49.22-5.06l11.07-1.14L1460.33,1364.27z"/>
					</g>
				</g>
				<g>
					<circle class="st21" cx="1369.76" cy="1371.48" r="13.92"/>
				</g>
				<g>
					<path class="st21" d="M1460.33,1364.27c-0.24-3.03-0.63-6.01-1.16-8.95c-1.34-7.42-3.58-14.53-6.61-21.22
						c-1.71-3.76-3.66-7.39-5.85-10.87c-12.56-19.96-32.67-34.72-56.29-40.24c-2.83-0.66-5.7-1.19-8.62-1.58
						c-3.94-0.52-7.97-0.79-12.05-0.79c-3.55,0-7.05,0.2-10.49,0.6c-4.12,0.48-8.14,1.23-12.07,2.24
						c-23.61,6.06-43.55,21.39-55.68,41.86c-1.48,2.5-2.85,5.08-4.08,7.73c-3.16,6.73-5.51,13.91-6.94,21.41
						c-0.76,3.99-1.26,8.08-1.47,12.23c-0.08,1.59-0.12,3.19-0.12,4.79c0,23.09,8.66,44.19,22.88,60.23c2,2.24,4.1,4.39,6.3,6.43
						c5.42,5.02,11.45,9.38,17.97,12.96c3.6,1.99,7.36,3.74,11.24,5.23c10.09,3.88,21.05,6,32.48,6c12.58,0,24.58-2.57,35.48-7.21
						c2.82-1.2,5.58-2.54,8.24-4.02c6.46-3.56,12.45-7.89,17.83-12.85c3.04-2.81,5.89-5.82,8.53-9.01
						c12.97-15.71,20.77-35.84,20.77-57.76C1460.62,1369.06,1460.52,1366.65,1460.33,1364.27z M1432.33,1420.91
						c-2.69,3.41-5.66,6.59-8.87,9.51c-4.41,4.02-9.26,7.55-14.48,10.5c-3.34,1.9-6.83,3.56-10.45,4.97
						c-8.93,3.46-18.62,5.36-28.77,5.36c-9.41,0-18.45-1.64-26.85-4.65c-4.12-1.48-8.08-3.28-11.85-5.38
						c-5.3-2.95-10.23-6.49-14.69-10.52c-2.83-2.56-5.49-5.32-7.94-8.26c-11.51-13.83-18.45-31.6-18.45-50.96
						c0-0.8,0.01-1.6,0.04-2.39c0.13-4.4,0.62-8.71,1.44-12.91c1.2-6.13,3.09-12.01,5.61-17.55c1.56-3.45,3.37-6.77,5.39-9.94
						c10.45-16.37,26.7-28.7,45.84-34.05c4.12-1.15,8.37-1.98,12.72-2.45h0.01c2.87-0.32,5.79-0.48,8.74-0.48
						c3.29,0,6.53,0.2,9.72,0.59c3.8,0.46,7.5,1.19,11.12,2.17c19.04,5.16,35.27,17.2,45.86,33.29c2.37,3.6,4.45,7.41,6.23,11.39
						c2.43,5.47,4.27,11.27,5.43,17.31c0.71,3.72,1.16,7.52,1.33,11.4v0.01c0.06,1.2,0.09,2.4,0.09,3.62
						C1449.53,1390.13,1443.1,1407.3,1432.33,1420.91z"/>
				</g>
			</g>
			<g>
				<path class="st22" d="M1358.25,1248.47c1.67-2.18,3.7-4.56,6.44-4.69c1.25-0.06,2.48,0.38,3.73,0.36
					c2.32-0.04,4.33-1.61,6.6-2.1c0.91-0.2,1.87-0.22,2.72-0.61c1.39-0.64,2.17-2.1,3.11-3.3c1.18-1.49,2.8-2.71,4.66-3.09
					c1.86-0.38,3.97,0.17,5.18,1.63c1.6,1.93,1.32,4.76,0.85,7.22c-0.66,3.44-1.51,6.84-2.56,10.18c-0.65,2.06-1.38,4.12-2.61,5.89
					c-1.46,2.1-3.59,3.72-6.01,4.55c-3.27,1.13-7.26,1.01-9.53,3.61c-0.46,0.53-0.86,1.17-1.5,1.46c-0.64,0.28-1.37,0.14-2.06,0.01
					c-5.74-1.09-11.65-1.3-17.45-0.61c-5.47,0.65-4.57-3.8-2.17-6.76C1351.29,1257.74,1354.74,1253.07,1358.25,1248.47z"/>
				<path class="st23" d="M1658.66,1457.3c-4.81-0.06-9.62-0.1-14.43-0.14l-1.59-0.01l-1.06-1.19
					c-23.92-26.84-43.62-56.23-65.07-89.11c-7.83-12-14.84-22.85-21.27-34.13c-6.88-12.06-13.45-25.27-19.54-39.29
					c-8.94-20.58-17.16-43.51-25.89-72.18c-3.97-13.03-7.63-25.92-10.7-36.81c-0.57-2.04-1.35-4.11-2.1-6.11
					c-2.94-7.87-6.61-17.65,4.61-25.19c10.69-7.18,22.38-12.71,34.72-16.42c2.72-0.82,5.67-1.58,8.72-1.58
					c1.33,0,2.61,0.15,3.81,0.44c4.4,1.06,7.73,4.01,9.86,6.13c8.87,8.88,14.7,21.94,16.86,37.78c1.42,10.42,1.25,20.99,1.08,31.22
					c-0.05,2.96-0.1,6.02-0.11,9.02c-0.05,14.68,0.87,29.5,2.73,44.06c1.32,10.32,3.47,23.79,8.43,36.51
					c3.14,8.05,7.43,15.86,11.58,23.41c2.31,4.2,4.7,8.55,6.89,12.94c5.5,10.99,9.95,22.59,14.26,33.8
					c4.24,11.04,8.62,22.45,13.96,33.12c4.21,8.42,9.18,16.74,14,24.78c4.6,7.68,9.35,15.63,13.48,23.73l2.69,5.28L1658.66,1457.3z"
					/>
				<path class="st5" d="M1387.94,1249.11c-1.03,0-2.03-0.23-2.98-0.67c-1.58-0.74-2.35-2.12-2.86-3.04
					c-0.13-0.24-0.33-0.59-0.42-0.69c-0.89-0.97-1.78-1.42-3.14-2.11c-0.49-0.25-1.01-0.51-1.54-0.8l-1.88-1.04l0.47-2.1
					c2.98-13.18,9.37-26.22,15.56-38.83c1.08-2.2,2.14-4.37,3.17-6.5c1.06-2.21,2.15-4.42,3.23-6.62
					c6.32-12.88,12.86-26.21,15.3-40.28c1.1-6.35,1.39-13,1.67-19.43c0.17-3.88,0.34-7.89,0.69-11.85
					c1.65-18.73,7.39-37.3,16.59-53.69c3.61-6.42,9.59-10.41,15.63-10.41c3.13,0,7.7,1.09,11.72,6.3
					c4.02,5.21,4.92,11.88,5.26,17.72c1.31,22.29-3.48,44.52-13.86,64.29c-1.23,2.34-2.54,4.65-3.81,6.89
					c-2.02,3.57-4.11,7.25-5.82,10.98c-2.85,6.21-5.43,12.67-7.93,18.91c-2.99,7.49-6.09,15.23-9.7,22.72
					c-6.91,14.33-14.96,28.25-23.92,41.36C1396.37,1244.62,1392.67,1249.11,1387.94,1249.11
					C1387.94,1249.11,1387.94,1249.11,1387.94,1249.11z"/>
				<path class="st5" d="M1440.7,1041.98c7.22-7.07,16.41-11.76,24.3-18.07c4.5-3.6,8.97-7.91,14.69-8.63
					c5.56-0.71,10.9,2.19,15.6,5.25c16.14,10.53,30.32,24.53,39.15,41.67c2.61,5.07,4.74,10.37,6.87,15.66
					c6.17,15.38,12.35,30.76,18.52,46.15c1.93,4.82,3.87,9.63,5.8,14.45c1.62,4.04,3.24,8.66,1.38,12.6
					c-1.61,3.4-5.32,5.19-8.75,6.72c-19.46,8.66-40.07,17.52-61.26,15.28c-1.17-0.12-2.41-0.32-3.26-1.12
					c-0.87-0.82-1.12-2.08-1.37-3.25c-5.04-24.36-22.15-44.24-39.32-62.24c-8.65-9.07-21.3-20.42-23.86-33.32
					C1427.12,1062.64,1433.45,1049.08,1440.7,1041.98z"/>
				<path class="st24" d="M1519.28,1463.56c8.39,0.4,16.81,0.83,24.99,0.49c-7.41-28.93-14.82-57.86-22.22-86.79
					c-3.65-14.24-7.32-28.71-6.94-43.41c0.64-24.95,12.8-48.01,25.53-69.48c12.69-21.42,24.3-42.24,32.82-65.69
					c3.68-10.12,6.15-19.5,3.66-30.33c-0.18-0.79-0.38-1.58-0.61-2.35c-1.02-3.62-2.43-7.13-3.83-10.62
					c-3.27-8.18-6.55-16.37-9.82-24.55c-7.07-17.67-14.45-35.28-21.55-52.97c-2.13-5.29-4.25-10.6-6.87-15.67
					c-8.82-17.13-23-31.14-39.14-41.66c-4.69-3.06-10.04-5.96-15.6-5.25c-3.79,0.49-7.03,2.54-10.1,4.92
					c3.14-0.97,6.09-0.61,6.47,3.52c0.52,5.76-5.96,12.58-8.61,17.23c-10.24,17.86-7.29,40.8,1.72,59.31
					c-6.2-5.59-12.43-11.23-17.37-17.96c-4.93-6.73-8.53-14.7-8.74-23.04c-0.26-10.67,5-20.54,12.36-28.5
					c-5.14,3.46-10.3,6.9-14.72,11.23c-7.25,7.1-13.58,20.67-11.51,31.12c2.56,12.9,15.21,24.25,23.86,33.32
					c10.25,10.76,20.31,21.92,28.05,34.68c3.89,6.41,6.72,13.08,9.34,20.07c2.66,7.11,4.03,14.72,7.39,21.65
					c2.33,4.8,7.11,11.38,5.66,17.04c-1.45,5.69-4.52,11.57-6.63,17.12c-2.82,7.42-5.55,14.87-8.15,22.38
					c-5.1,14.77-9.65,29.75-13.1,44.99c-3.53,15.62-5.91,31.79-3.52,47.62c2.39,15.82,9.39,30.5,15.67,45.21
					c8.32,19.49,15.49,39.48,21.46,59.81C1511.9,1446.09,1514.45,1455.48,1519.28,1463.56z M1491.35,1116.63
					c-10.83-11.68-16-27.39-20.53-42.67c-3.51-11.91-4.4-25.13,4.23-35.32c8.52-10.07,22.79-8.31,32.07-0.53
					c4.74,3.99,8.41,9.06,11.88,14.19c7.33,10.84,14.16,22.7,14.96,35.75c0.69,11.18-3.37,22.56-10.95,30.79
					c-2.78,3.02-6.15,5.69-10.12,6.7C1504.98,1127.57,1496.9,1122.62,1491.35,1116.63z"/>
				<path class="st22" d="M1409.67,1259.53c1.67-2.18,3.7-4.56,6.44-4.69c1.25-0.06,2.48,0.38,3.73,0.36
					c2.32-0.04,4.33-1.61,6.6-2.1c0.91-0.2,1.87-0.22,2.72-0.61c1.39-0.64,2.17-2.1,3.11-3.3c1.18-1.49,2.8-2.71,4.66-3.09
					c1.86-0.38,3.97,0.17,5.18,1.63c1.6,1.93,1.32,4.76,0.85,7.22c-0.66,3.44-1.51,6.84-2.56,10.18c-0.65,2.06-1.38,4.12-2.61,5.89
					c-1.46,2.1-3.59,3.72-6.01,4.55c-3.27,1.13-7.26,1.01-9.53,3.61c-0.46,0.53-0.86,1.17-1.5,1.46c-0.64,0.28-1.37,0.14-2.06,0.01
					c-5.74-1.09-11.65-1.3-17.45-0.61c-5.47,0.65-4.58-3.8-2.17-6.76C1402.71,1268.8,1406.16,1264.13,1409.67,1259.53z"/>
				<path class="st25" d="M1475.13,1014.87c1.12,1.88,2.27,3.84,2.56,6.01c0.38,2.86-0.77,5.7-2.18,8.21
					c-3.08,5.49-8.06,10.46-14.31,11.25c-1.17,0.15-2.52,0.07-3.27-0.84c-0.38-0.46-0.53-1.05-0.68-1.62
					c-1.28-5.04-2.56-10.09-3.84-15.13c-0.74-2.89-1.47-5.92-0.81-8.83c0.57-2.52,2.14-4.68,3.76-6.69
					c2.49-3.07,6.91-6.47,11.02-4.06C1470.93,1005.26,1473.13,1011.49,1475.13,1014.87z"/>
				<path class="st5" d="M1443.49,1255.97c-0.44,0-0.86-0.03-1.17-0.06c-3.78-0.35-9.11-1.33-13.08-4.05l-1.66-1.14l0.51-1.95
					c1.11-4.23,2.96-8.15,4.75-11.94c0.96-2.03,1.95-4.13,2.78-6.2c3.05-7.57,6.02-15.22,8.89-22.62
					c4.25-10.95,8.64-22.28,12.14-33.66c1.45-4.74,2.88-9.85,3.49-15.13c0.59-5.1,0.4-10.2,0.2-15.6c-0.05-1.35-0.1-2.7-0.14-4.05
					c-0.31-11.24,0.29-22.62,1.77-33.84c2.16-16.35,5.43-41.05,16.09-56.37c3.33-4.79,8.48-7.42,14.5-7.42
					c9.32,0,19.55,6.25,23.78,14.54c8.72,17.07,0.84,34.33-6.12,49.56c-1.45,3.18-2.83,6.19-4.05,9.16
					c-2.79,6.79-5.67,13.81-7.97,20.85c-3.28,10.04-5.58,20.59-7.79,30.8c-2.33,10.73-4.74,21.82-8.32,32.49
					c-6.24,18.59-16.86,35.77-33.41,54.07c-0.57,0.63-1.36,1.5-2.57,2.04C1445.35,1255.8,1444.49,1255.97,1443.49,1255.97z"/>
				<path class="st22" d="M1409.26,1009.11c1.68,3.58,3.36,7.16,5.04,10.74c1.75,3.72,3.51,7.46,5.89,10.81
					c5.72,8.02,15.06,13.34,24.87,14.18c2.01,0.17,4.09,0.16,5.99-0.53c2.82-1.02,4.93-3.38,6.79-5.74
					c3.69-4.68,6.98-9.76,8.96-15.38s2.59-11.84,0.96-17.58c-0.22-0.76-0.46-1.62-0.06-2.31c0.31-0.53,0.92-0.79,1.44-1.11
					c3.44-2.06,3.82-6.86,3.45-10.86c-0.21-2.27-0.56-4.59-1.7-6.55c-1.15-1.97-3.26-3.52-5.53-3.39s-4.36,2.41-3.79,4.61
					c-0.71-3.79-1.43-7.61-3-11.13c-1.57-3.52-4.08-6.76-7.54-8.44c-3.32-1.61-7.16-1.67-10.85-1.48
					c-14.42,0.73-39.75,7.27-37.21,25.97C1403.85,997.33,1406.54,1003.3,1409.26,1009.11z"/>
				<path class="st10" d="M1462.13,986.77c-0.02-1.61,0.03-3.42,1.2-4.53c1.26-1.2,3.4-1.03,4.81-0.02s2.24,2.66,2.83,4.29
					c1.35,3.73,1.79,7.78,1.26,11.72c-0.07,0.52-0.17,1.07-0.49,1.48c-0.34,0.43-0.88,0.66-1.32,0.99
					c-1.56,1.17-1.71,3.57-0.87,5.33c0.85,1.76,2.44,3.02,3.97,4.23c-0.36-0.78-0.58-1.61-0.66-2.47c1.68,0.39,3.52,0.07,4.97-0.86
					c-0.5-1.13-0.86-2.31-1.06-3.53c0.76,0.26,1.66,0.04,2.22-0.54c-2.51-4.71-5.06-9.55-5.72-14.85c-0.44-3.55,0-7.17-0.48-10.72
					c-0.77-5.68-3.82-10.76-6.99-15.53c-2.83-4.26-5.91-8.51-10.13-11.39c-7.36-5.02-17.03-5.11-25.81-3.56
					c-7.53,1.33-15,3.81-21.12,8.4c-6.12,4.59-10.76,11.49-11.45,19.11c-0.67,7.43,2.35,14.65,5.3,21.5
					c0.92,2.13,1.84,4.25,2.75,6.38c-0.29-2.48-1.07-4.88-1.32-7.36c-0.26-2.48,0.1-5.19,1.78-7.04c1.96-2.15,5.2-2.58,8.09-2.28
					c2.89,0.29,5.74,1.16,8.65,1.07c4.4-0.15,8.54-2.58,11.33-5.99c1.51-1.84,2.79-4.05,4.95-5.03c4.44-2,11.69,1.69,15.34,4.41
					c3.78,2.81,5.46,7.76,7.98,11.56C1462.24,989.96,1462.15,988.35,1462.13,986.77z"/>
				<path class="st5" d="M1462.46,967.35c1.7-0.51,6.61-1.77,6.89-4.04c0.22-1.8-3.47-6.1-4.49-7.57
					c-3.29-4.77-7.42-9.21-12.9-11.41c-2.59-1.04-5.37-1.52-8.14-1.82c-5.97-0.64-12.04-0.43-17.95,0.63
					c-3.87,0.69-7.68,1.75-11.59,2.06c-1.47,0.12-2.96,0.14-4.36,0.59c-1.25,0.41-2.36,1.15-3.41,1.95
					c-6.76,5.14-11.39,13-12.61,21.4c-0.88,6.08,0.03,12.39,2.51,18c0.89,2.03,2,5.52,4.65,5.35c2.74-0.17,6.17-2.7,8.62-3.85
					c4.22-1.98,8.45-3.95,12.71-5.86c8.41-3.79,16.92-7.39,25.58-10.58C1452.74,970.46,1457.57,968.82,1462.46,967.35z"/>
				<path class="st6" d="M1428.36,995.44c-3.06,2.14-7.24,1.74-11,2.15c-5.42,0.58-10.38,3.03-14.84,6.05
					c-2.36,1.59-4.58,3.37-6.8,5.15c-1.68,1.35-2.85,3.65-4.67,4.68c-1.28,0.72-3.37,0.45-4.02-1.04c-0.68-1.55,0.91-3.66,1.58-5.02
					c2.1-4.28,4.42-8.46,6.94-12.52c0.73-1.17,1.49-2.35,2.48-3.31c1.19-1.15,2.67-1.96,4.13-2.75c7.19-3.89,14.42-7.78,22.05-10.75
					c3.97-1.54,8.16-2.28,12.14-3.69c2.87-1.02,6.6-3.7,9.81-2.29c3.91,1.72-3.4,6.37-4.66,7.29c-3.9,2.87-7.01,7.93-9.66,11.93
					c-0.92,1.38-1.82,2.82-3.12,3.85C1428.61,995.26,1428.48,995.35,1428.36,995.44z"/>
				<path class="st4" d="M1640.97,1475.31c2.99-0.09,5.98-0.21,8.97-0.35c4.82-0.22,14.25,1.06,17.21-3.17
					c2.15-3.08,0.88-7.34,1.03-10.74c0.15-3.22-0.59-7.15-4.15-8.77c-5.33-2.43-11.88,3.13-17.41,1.11
					c-2.23-0.81-4.02-2.8-6.43-2.76c-1.1,0.02-2.12,0.48-3.07,0.97c-5.01,2.6-8.88,6.54-13.66,9.33
					c-4.74,2.77-10.03,4.79-15.53,5.92c-1.08,0.22-2.25,0.46-2.96,1.22c-0.52,0.56-0.7,1.3-0.86,2.01
					c-0.42,1.81-0.55,4.17,1.27,4.98c0.59,0.26,1.26,0.28,1.91,0.3C1618.5,1475.67,1629.74,1475.65,1640.97,1475.31z"/>
				<path class="st4" d="M1515.85,1478.06c3.35-0.1,6.7-0.23,10.05-0.39c5.4-0.25,15.98,1.19,19.29-3.56
					c2.41-3.45,0.98-8.23,1.15-12.04c0.16-3.61-0.66-8.01-4.66-9.83c-5.98-2.72-13.32,3.51-19.52,1.25c-2.5-0.91-4.51-3.14-7.2-3.1
					c-1.23,0.02-2.38,0.53-3.45,1.09c-5.61,2.91-9.95,7.33-15.32,10.46c-5.32,3.11-11.24,5.36-17.41,6.64
					c-1.21,0.25-2.52,0.51-3.32,1.37c-0.58,0.62-0.78,1.46-0.96,2.25c-0.47,2.02-0.62,4.68,1.42,5.59c0.66,0.29,1.41,0.32,2.14,0.34
					C1490.66,1478.47,1503.26,1478.45,1515.85,1478.06z"/>
			</g>
		</g>
		<g>
			<path class="st6" d="M384.17,1127.97c0.95-0.57,1.86-1.23,2.73-1.88c21.76-16.1,43.51-32.19,65.27-48.29
				c-5.42-6.19-10.85-12.37-16.27-18.56c-8.54,4.67-16.62,10.2-24.08,16.46c-6.84,5.75-13.27,12.2-21.25,16.23
				c-1.01,0.51-2.09,0.99-3.22,0.96c-5.3-0.17-6.52-11.76-7.19-15.61c-0.66-3.83-1.35-7.78-2.21-11.67
				c-4.04-18.36-12.12-36.04-23.35-51.12c-4.4-5.91-10.85-9.09-16.84-8.32c-3.1,0.4-7.49,2.07-10.82,7.76
				c-3.32,5.68-3.35,12.41-2.94,18.24c2.57,36.63,22.2,64.73,45.84,91.37c2.62,2.95,5.81,6.1,9.75,5.96
				C381.24,1129.45,382.75,1128.82,384.17,1127.97z"/>
			<path class="st22" d="M437.24,1042.18c1.01-1.2,2.76-2.18,4.08-1.33c2.55,1.65-0.91,6.39,1.26,8.51
				c5.09-3.7,10.17-7.39,15.26-11.09c1.28-0.93,2.59-1.87,4.12-2.28c1.52-0.41,3.33-0.17,4.39,1s0.93,3.35-0.47,4.07
				c1.69-2.15,5.43-2.35,7.15-0.22c1.72,2.13,0.47,5.96-2.22,6.45c2.38,2.33,1.57,6.99-1.46,8.38c1.49,1.46,0.2,3.96-1.2,5.5
				c-6.75,7.39-15.68,12.35-24.45,17.17c-1.44,0.79-2.94,1.6-4.57,1.67c-2.99,0.14-5.53-2.2-7.13-4.72
				c-3.62-5.7,0.64-9.63,1.36-15.37C434.05,1054.25,433.31,1046.84,437.24,1042.18z"/>
			<g>
				
					<rect x="482.35" y="1118.65" transform="matrix(-1 -4.487356e-11 4.487356e-11 -1 984.0288 2290.0464)" class="st23" width="19.34" height="52.74"/>
				<path class="st24" d="M434.81,1129.51h83.24c2.79,0,5.24-1.86,6-4.55l17.29-61.55c1.12-3.97-1.87-7.92-6-7.92H452.1
					c-2.79,0-5.24,1.86-6,4.55l-17.29,61.55C427.7,1125.57,430.69,1129.51,434.81,1129.51z"/>
				<path class="st26" d="M445.05,1118.24h65.45c2.82,0,5.3-1.61,6.02-3.93l13.62-43.42c1.05-3.36-1.93-6.65-6.02-6.65h-65.45
					c-2.82,0-5.3,1.61-6.02,3.93l-13.62,43.42C437.98,1114.95,440.96,1118.24,445.05,1118.24z"/>
			</g>
			<g>
				<polygon class="st2" points="432.44,1482.73 571.39,1482.73 537.72,1194.97 398.77,1194.97 				"/>
				<polygon class="st7" points="466.1,1482.73 605.05,1482.73 571.39,1194.97 432.44,1194.97 				"/>
				<path class="st23" d="M399.07,1194.97h176.66c7.55,0,13.67-6.12,13.67-13.67v0c0-7.55-6.12-13.67-13.67-13.67H399.07
					c-7.55,0-13.67,6.12-13.67,13.67v0C385.4,1188.85,391.52,1194.97,399.07,1194.97z"/>
			</g>
			<path class="st23" d="M299.81,1473c4.46-1.8,8.93-3.58,13.4-5.35l1.48-0.59l0.56-1.49c12.58-33.68,20.31-68.21,28.42-106.62
				c2.96-14.02,5.56-26.67,7.48-39.51c2.05-13.73,3.39-28.43,4-43.69c0.88-22.42,0.25-46.77-1.99-76.65
				c-1.02-13.59-2.26-26.93-3.35-38.18c-0.2-2.11-0.23-4.31-0.26-6.45c-0.1-8.4-0.23-18.85-13.42-21.81
				c-12.57-2.83-25.46-3.75-38.3-2.74c-2.84,0.22-5.85,0.58-8.7,1.69c-1.24,0.48-2.38,1.08-3.39,1.78
				c-3.72,2.58-5.76,6.54-6.97,9.29c-5.06,11.49-5.76,25.77-2.04,41.32c4.9,20.47,14.95,39.08,20.77,59.35
				c6.2,21.56,10.88,43.73,11.21,66.24c0.13,9.01-0.43,18.01-0.99,27.01c-0.6,9.61-1.2,19.22-1.8,28.83
				c-1.39,22.23-2.79,44.54-7.03,66.4c-1.6,8.25-3.62,16.46-4.45,24.83C293.82,1462.76,290.99,1476.55,299.81,1473z"/>
			<path class="st5" d="M274.42,1154.32c2.73,2.59,6.84,2.92,10.6,3.1c21.28,1.04,43.69,1.83,62.63-7.92
				c0.67-0.35,1.36-0.73,1.91-1.25c0.29-0.29,0.54-0.61,0.72-0.99c0.52-1.07,0.3-2.34,0.1-3.51c-1.25-7.43-1.31-14.87-0.54-22.28
				c0.05-0.66,0.14-1.3,0.23-1.95c0.23-1.86,0.51-3.7,0.85-5.56c0.11-0.67,0.24-1.34,0.38-2.02c1.38-7.14,3.44-14.21,5.82-21.2
				c0.85-2.7,1.68-5.42,2.46-8.16c2.98-10.44,4.03-21.32,5.05-32.09c0.73-7.83,1.45-15.79,0.06-23.54
				c-1.23-6.77-4.3-13.77-9.74-18.21c-5.9-4.79-13.57-3.78-20.03-6.94h-0.01c-3.84-0.86-7.67-1.74-11.41-2.91
				c-1.86-0.58-3.73-1.24-5.62-1.81c-0.96-0.29-1.92-0.54-2.88-0.76c-0.3-0.08-0.61-0.14-0.92-0.19c-0.81-0.16-1.63-0.28-2.45-0.34
				c-0.19-0.03-0.39-0.04-0.59-0.04c-1.45-0.08-2.91,0.04-4.35,0.39c-5.45,1.35-9.38,5.99-12.65,10.54
				c-3.51,4.9-6.72,10.03-9.54,15.38c-2.25,4.27-4.25,8.67-5.95,13.18c-0.64,1.68-1.24,3.39-1.78,5.1c-0.52,1.59-0.99,3.2-1.42,4.81
				c-0.08,0.28-0.15,0.54-0.21,0.82c-1.18,4.5-2.02,9.08-2.51,13.72c-0.14,1.36-0.25,2.73-0.34,4.11
				c-0.28,4.32-0.33,8.65-0.38,12.98c-0.2,16.58-0.39,33.14-0.58,49.72c-0.05,5.19-0.11,10.37-0.18,15.57
				C271.09,1146.44,271.26,1151.33,274.42,1154.32z"/>
			<path class="st24" d="M270.7,1160.41c-0.39,38.09,31.51,70.26,48.66,102.09c17.16,31.84,25.85,67.56,31.56,103.28
				c5.71,35.71,8.6,71.84,15.06,107.44c7.56,1.53,15.11,3.05,22.67,4.57c0.23-15.83,1.73-31.52,2.63-47.31
				c0.18-3.16,0.33-6.32,0.44-9.49c2.75-75.46-8.77-151.13-31.21-223.11c-5.19-16.67-9.46-32.96-10.95-49.64
				c-0.77-8.78-0.78-17.68,0.28-26.77c0.05-0.66,0.14-1.3,0.23-1.95c0.24-1.84,0.52-3.7,0.85-5.56c0.13-0.68,0.25-1.35,0.38-2.02
				c1.45-7.29,3.66-14.2,5.82-21.2c0.85-2.7,1.68-5.42,2.46-8.16c2.98-10.44,4.03-21.32,5.05-32.09c0.73-7.83,1.45-15.79,0.06-23.54
				c-1.23-6.77-4.3-13.77-9.74-18.21c-5.9-4.79-13.57-3.78-20.03-6.94c9.75,4.78,18.22,12.07,21.83,22.1
				c2.82,7.86,2.35,16.59,0.19,24.64c-2.17,8.06-5.95,15.58-9.7,23.03c1.71-20.52-3.85-42.97-19.86-55.91
				c-4.16-3.37-12.66-7.39-14.26-12.95c-1.14-3.98,1.48-5.38,4.76-5.62c-0.96-0.29-1.92-0.54-2.88-0.76
				c-0.3-0.08-0.61-0.14-0.92-0.19c-0.81-0.16-1.63-0.28-2.45-0.34c-0.19-0.03-0.39-0.04-0.59-0.04c-1.45-0.08-2.91,0.04-4.35,0.39
				c-5.45,1.35-9.38,5.99-12.65,10.54c-3.51,4.9-6.72,10.03-9.54,15.38c-2.25,4.27-4.25,8.67-5.95,13.18
				c-0.63,1.68-1.23,3.39-1.78,5.1c-0.51,1.59-0.99,3.2-1.42,4.81c-0.08,0.28-0.15,0.54-0.21,0.82c-1.16,4.5-2.01,9.07-2.5,13.71
				c-0.15,1.38-0.27,2.74-0.35,4.12c-0.28,4.32-0.33,8.65-0.38,12.98c-0.23,19.07-0.73,38.15-0.92,57.19
				C270.89,1142.79,270.79,1151.61,270.7,1160.41z M332.5,1094.86c-3.01,7.59-8.74,15.14-16.86,16.11
				c-4.07,0.49-8.16-0.78-11.85-2.59c-10.04-4.93-17.95-14.06-21.35-24.74c-3.98-12.46-1.9-25.98,1.01-38.74
				c1.36-6.04,2.96-12.1,5.94-17.52c5.82-10.61,18.5-17.41,30.08-11.12c11.73,6.38,15.68,19.03,16.72,31.4
				C337.5,1063.54,338.36,1080.06,332.5,1094.86z"/>
			<path class="st25" d="M310.79,994.14c-0.36,2.16-0.72,4.4-0.21,6.53c0.68,2.8,2.78,5.03,5,6.87c4.86,4,11.3,6.83,17.41,5.31
				c1.14-0.28,2.38-0.85,2.75-1.96c0.19-0.56,0.12-1.17,0.04-1.76c-0.63-5.16-1.26-10.33-1.89-15.49c-0.36-2.96-0.77-6.05-2.44-8.53
				c-1.44-2.14-3.69-3.59-5.93-4.87c-3.43-1.97-8.78-3.53-11.74,0.21C311.24,983.65,311.44,990.27,310.79,994.14z"/>
			<path class="st5" d="M431.85,1164.85c5.56,1.42,11.18,2.72,16.78,3.5c9.01,1.26,11.22-14.86,12.31-21.68
				c-21.06-6.65-41.87-14.08-62.38-22.26c-9.17-3.66-19.22-8.02-25.27-16.21c-5.93-8.04-8.35-19.94-12.41-29.13
				c-8.65-19.55-19.75-39.48-37.9-51.7c-4.84-3.26-10.59-3.85-16.2-1.68c-8.69,3.37-15.96,12.9-16.91,22.16
				c-1.63,15.93,8.5,29.7,19.6,40.03c13.17,12.26,23.16,27.6,33.96,42.18c6.04,8.15,15.44,11.93,24.74,15.4
				c17.55,6.54,35.45,12.15,53.6,16.78C425.1,1163.08,428.47,1163.99,431.85,1164.85z"/>
			<path class="st22" d="M370.04,965.32c-0.27,3.94-0.54,7.89-0.81,11.83c-0.28,4.1-0.57,8.23-1.58,12.21
				c-2.43,9.54-9.21,17.89-18.06,22.22c-1.82,0.89-3.76,1.63-5.78,1.67c-3,0.07-5.82-1.37-8.41-2.89
				c-5.14-3.03-10.04-6.57-13.92-11.1c-3.88-4.53-6.7-10.1-7.25-16.04c-0.07-0.79-0.16-1.68-0.78-2.18
				c-0.48-0.38-1.14-0.41-1.75-0.51c-3.96-0.68-6.05-5.01-7.15-8.87c-0.62-2.19-1.14-4.48-0.78-6.73c0.36-2.25,1.76-4.46,3.93-5.16
				c2.17-0.7,4.94,0.67,5.2,2.93c-0.71-3.79-1.42-7.61-1.23-11.46c0.19-3.85,1.36-7.77,3.98-10.6c2.51-2.71,6.08-4.15,9.58-5.31
				c13.71-4.54,39.69-7.61,44.08,10.74C370.82,952.38,370.47,958.92,370.04,965.32z"/>
			<path class="st10" d="M312.75,963.24c-0.56-1.51-1.27-3.18-2.76-3.79c-1.61-0.67-3.54,0.27-4.49,1.73s-1.12,3.29-1.08,5.03
				c0.09,3.96,1.15,7.9,3.06,11.38c0.25,0.46,0.54,0.94,1,1.21c0.47,0.28,1.05,0.3,1.59,0.44c1.88,0.52,2.89,2.71,2.74,4.66
				c-0.15,1.95-1.18,3.7-2.18,5.38c0.06-0.85-0.04-1.72-0.28-2.54c-1.43,0.97-3.25,1.34-4.95,1c0.06-1.23-0.04-2.47-0.28-3.68
				c-0.62,0.52-1.54,0.64-2.27,0.3c0.64-5.3,1.26-10.74-0.04-15.91c-0.88-3.47-2.6-6.69-3.43-10.17c-1.34-5.57-0.34-11.41,0.9-17.01
				c1.1-5,2.43-10.07,5.33-14.28c5.04-7.34,14.03-10.93,22.77-12.65c7.5-1.48,15.37-1.88,22.73,0.19
				c7.36,2.06,14.19,6.82,17.59,13.67c3.32,6.68,3.11,14.5,2.83,21.96c-0.09,2.31-0.17,4.63-0.26,6.94
				c-0.63-2.41-0.77-4.93-1.43-7.34c-0.66-2.41-1.98-4.8-4.21-5.92c-2.61-1.3-5.78-0.52-8.37,0.8s-4.93,3.16-7.68,4.12
				c-4.16,1.45-8.9,0.68-12.73-1.48c-2.07-1.17-4.06-2.77-6.44-2.9c-4.87-0.26-10.28,5.81-12.7,9.66c-2.5,3.99-2.28,9.21-3.25,13.66
				C313.8,966.25,313.3,964.72,312.75,963.24z"/>
			<path class="st5" d="M305.41,945.26c-1.76,0.14-6.81,0.74-7.88-1.27c-0.85-1.6,1.03-6.94,1.45-8.69
				c1.34-5.64,3.58-11.27,7.9-15.3c2.04-1.9,4.45-3.36,6.93-4.65c5.34-2.76,11.07-4.75,16.96-5.9c3.85-0.75,7.79-1.15,11.55-2.27
				c1.41-0.42,2.81-0.94,4.28-1.03c1.31-0.07,2.62,0.22,3.89,0.58c8.16,2.34,15.32,8,19.5,15.39c3.02,5.35,4.45,11.56,4.18,17.69
				c-0.1,2.21,0.13,5.87-2.39,6.67c-2.62,0.83-6.73-0.28-9.43-0.47c-4.65-0.32-9.31-0.62-13.97-0.87
				c-9.21-0.49-18.45-0.77-27.67-0.61C315.6,944.63,310.5,944.85,305.41,945.26z"/>
			<path class="st6" d="M347.37,959.1c3.63,0.89,7.38-0.99,11.03-1.98c5.26-1.42,10.77-0.93,16.02,0.26
				c2.78,0.63,5.49,1.48,8.2,2.34c2.05,0.65,3.98,2.38,6.05,2.67c1.45,0.21,3.3-0.8,3.37-2.43c0.07-1.69-2.18-3.08-3.29-4.11
				c-3.51-3.23-7.18-6.29-11-9.16c-1.11-0.83-2.24-1.65-3.51-2.19c-1.53-0.65-3.2-0.86-4.84-1.07c-8.11-1.02-16.26-2.04-24.45-2.04
				c-4.26,0-8.44,0.83-12.65,0.95c-3.05,0.09-7.49-1.07-9.98,1.42c-3.02,3.02,5.47,4.7,6.98,5.11c4.67,1.26,9.41,4.86,13.32,7.62
				c1.36,0.96,2.72,1.97,4.31,2.46C347.07,959.02,347.22,959.06,347.37,959.1z"/>
			<path class="st4" d="M318.08,1482.45c-2.99-0.09-5.98-0.21-8.97-0.35c-4.82-0.22-14.25,1.06-17.21-3.17
				c-2.15-3.08-0.88-7.34-1.03-10.74c-0.15-3.22,0.59-7.15,4.15-8.77c5.33-2.43,11.88,3.13,17.41,1.11c2.23-0.81,4.02-2.8,6.43-2.76
				c1.1,0.02,2.12,0.48,3.07,0.97c5.01,2.6,8.88,6.54,13.66,9.33c4.74,2.77,10.03,4.79,15.53,5.92c1.08,0.22,2.25,0.46,2.96,1.22
				c0.52,0.56,0.7,1.3,0.86,2.01c0.42,1.81,0.55,4.17-1.27,4.98c-0.59,0.26-1.26,0.28-1.91,0.3
				C340.54,1482.82,329.3,1482.8,318.08,1482.45z"/>
			<path class="st4" d="M387.19,1482.45c-2.99-0.09-5.98-0.21-8.97-0.35c-4.82-0.22-14.25,1.06-17.21-3.17
				c-2.15-3.08-0.88-7.34-1.03-10.74c-0.15-3.22,0.59-7.15,4.15-8.77c5.33-2.43,11.88,3.13,17.41,1.11c2.23-0.81,4.02-2.8,6.43-2.76
				c1.1,0.02,2.12,0.48,3.07,0.97c5.01,2.6,8.88,6.54,13.66,9.33c4.74,2.77,10.03,4.79,15.53,5.92c1.08,0.22,2.25,0.46,2.96,1.22
				c0.52,0.56,0.7,1.3,0.86,2.01c0.42,1.81,0.55,4.17-1.27,4.98c-0.59,0.26-1.26,0.28-1.91,0.3
				C409.66,1482.82,398.42,1482.8,387.19,1482.45z"/>
			<path class="st22" d="M475.99,1136.18c1.56-0.16,3.5,0.35,3.86,1.87c0.7,2.96-5.09,3.97-4.99,7.01
				c6.23,0.86,12.46,1.72,18.68,2.59c1.56,0.22,3.17,0.45,4.55,1.21s2.52,2.18,2.47,3.76s-1.65,3.06-3.16,2.61
				c2.71-0.37,5.54,2.07,5.31,4.8c-0.24,2.73-3.79,4.63-6.07,3.11c0.1,3.33-3.72,6.13-6.86,5.03c0.06,2.08-2.6,2.99-4.68,3.13
				c-9.99,0.65-19.86-1.97-29.53-4.57c-1.58-0.43-3.22-0.88-4.46-1.96c-2.25-1.97-2.46-5.42-1.86-8.34
				c1.35-6.62,7.14-6.5,11.64-10.14C465.33,1142.66,469.93,1136.81,475.99,1136.18z"/>
		</g>
	</g>
</g>
</svg>
